M48
; DRILL file {KiCad (6.0.10)} date Sat Sep 30 09:28:58 2023
; FORMAT={-:-/ absolute / metric / decimal}
; #@! TF.CreationDate,2023-09-30T09:28:58-05:00
; #@! TF.GenerationSoftware,Kicad,Pcbnew,(6.0.10)
; #@! TF.FileFunction,Plated,1,2,PTH
FMAT,2
METRIC
; #@! TA.AperFunction,Plated,PTH,ViaDrill
T1C0.400
; #@! TA.AperFunction,Plated,PTH,ComponentDrill
T2C0.400
; #@! TA.AperFunction,Plated,PTH,ComponentDrill
T3C0.750
; #@! TA.AperFunction,Plated,PTH,ComponentDrill
T4C0.800
; #@! TA.AperFunction,Plated,PTH,ComponentDrill
T5C0.813
; #@! TA.AperFunction,Plated,PTH,ComponentDrill
T6C1.092
; #@! TA.AperFunction,Plated,PTH,ComponentDrill
T7C1.100
; #@! TA.AperFunction,Plated,PTH,ComponentDrill
T8C2.200
; #@! TA.AperFunction,Plated,PTH,ComponentDrill
T9C2.500
; #@! TA.AperFunction,Plated,PTH,ComponentDrill
T10C3.000
; #@! TA.AperFunction,Plated,PTH,ComponentDrill
T11C3.048
%
G90
G05
T1
X202.882Y-116.84
X284.162Y-16.51
X287.972Y-19.05
X289.243Y-20.32
X293.053Y-25.4
X296.863Y-26.67
X299.402Y-55.88
X299.402Y-67.31
X299.518Y-25.285
X300.285Y-41.364
X300.673Y-57.15
X304.482Y-25.4
X304.482Y-43.18
X309.81Y-27.87
X309.81Y-34.22
X315.912Y-76.2
X316.954Y-27.87
X316.958Y-32.198
X318.452Y-40.64
X318.452Y-83.82
X318.452Y-85.09
X319.448Y-86.36
X319.722Y-33.02
X319.722Y-52.07
X319.722Y-57.15
X321.679Y-50.154
X323.532Y-26.67
X326.072Y-68.58
X326.187Y-65.925
X327.342Y-69.85
T2
X31.688Y-27.781
X32.171Y-26.615
X32.171Y-28.948
X33.337Y-26.131
X33.337Y-29.431
X34.504Y-26.615
X34.504Y-28.948
X34.987Y-27.781
X245.206Y-26.194
X245.69Y-25.027
X245.69Y-27.36
X246.856Y-24.544
X246.856Y-27.844
X248.023Y-25.027
X248.023Y-27.36
X248.506Y-26.194
X306.303Y-100.67
X306.786Y-99.503
X306.786Y-101.837
X307.952Y-99.02
X307.952Y-102.32
X309.119Y-99.503
X309.119Y-101.837
X309.602Y-100.67
X322.994Y-73.025
X323.477Y-71.858
X323.477Y-74.192
X324.644Y-71.375
X324.644Y-74.675
X325.81Y-71.858
X325.81Y-74.192
X326.294Y-73.025
T3
X301.212Y-73.66
X303.212Y-73.66
T4
X17.71Y-19.932
X17.71Y-27.552
X20.885Y-19.139
X20.885Y-26.759
X24.06Y-18.345
X24.06Y-25.965
X27.235Y-17.551
X27.235Y-25.171
X30.41Y-16.758
X30.41Y-24.377
X37.554Y-19.932
X37.554Y-27.552
X40.729Y-19.297
X40.729Y-26.918
X43.904Y-18.345
X43.904Y-25.965
X47.079Y-17.551
X47.079Y-25.171
X50.254Y-16.758
X50.254Y-24.377
X57.398Y-19.932
X57.398Y-27.552
X60.572Y-19.139
X60.572Y-26.759
X63.747Y-18.345
X63.747Y-25.965
X66.922Y-17.71
X66.922Y-25.33
X70.097Y-16.916
X70.097Y-24.536
X78.035Y-20.091
X78.035Y-27.711
X81.21Y-19.139
X81.21Y-26.759
X84.385Y-18.345
X84.385Y-25.965
X87.56Y-17.551
X87.56Y-25.171
X95.498Y-20.091
X95.498Y-27.711
X98.672Y-19.139
X98.672Y-26.759
X101.847Y-18.345
X101.847Y-25.965
X105.022Y-17.551
X105.022Y-25.171
X114.547Y-20.25
X114.547Y-27.87
X117.722Y-19.297
X117.722Y-26.918
X120.897Y-18.345
X120.897Y-25.965
X124.072Y-17.551
X124.072Y-25.171
X127.247Y-16.758
X127.247Y-24.377
X134.391Y-20.091
X134.391Y-27.711
X137.566Y-19.297
X137.566Y-26.918
X140.741Y-18.345
X140.741Y-25.965
X143.916Y-17.551
X143.916Y-25.171
X147.091Y-16.758
X147.091Y-24.377
X153.441Y-20.091
X153.441Y-27.711
X156.616Y-19.139
X156.616Y-26.759
X159.791Y-18.504
X159.791Y-26.124
X162.966Y-17.71
X162.966Y-25.33
X166.141Y-16.916
X166.141Y-24.536
X171.697Y-20.091
X171.697Y-27.711
X174.873Y-19.297
X174.873Y-26.918
X178.047Y-18.504
X178.047Y-26.124
X181.222Y-17.551
X181.222Y-25.171
X184.397Y-16.916
X184.397Y-24.536
X191.541Y-20.091
X191.541Y-27.711
X194.716Y-19.139
X194.716Y-26.759
X197.891Y-18.504
X197.891Y-26.124
X201.066Y-17.71
X201.066Y-25.33
X204.241Y-16.758
X204.241Y-24.377
X211.385Y-20.091
X211.385Y-27.711
X214.56Y-19.297
X214.56Y-26.918
X217.735Y-18.345
X217.735Y-25.965
X220.91Y-17.71
X220.91Y-25.33
X224.085Y-16.758
X224.085Y-24.377
X230.435Y-20.091
X230.435Y-27.711
X233.61Y-19.297
X233.61Y-26.918
X236.785Y-18.504
X236.785Y-26.124
X239.96Y-17.71
X239.96Y-25.33
X243.135Y-16.758
X243.135Y-24.377
X251.072Y-20.091
X251.072Y-27.711
X254.248Y-19.297
X254.248Y-26.918
X257.423Y-18.345
X257.423Y-25.965
X260.597Y-17.551
X260.597Y-25.171
X263.931Y-16.758
X263.931Y-24.377
T5
X305.02Y-33.8
X308.292Y-36.211
X322.376Y-36.498
T6
X267.097Y-16.332
X267.097Y-18.872
X267.097Y-21.412
X267.097Y-23.952
X267.097Y-26.492
X308.148Y-38.751
X308.148Y-41.291
X308.148Y-43.831
X308.148Y-46.371
X308.148Y-48.911
X308.148Y-51.451
X308.148Y-53.991
X308.148Y-56.531
X308.148Y-59.071
X308.148Y-61.611
X308.148Y-64.151
X308.148Y-66.691
X310.688Y-70.015
X313.228Y-70.015
X315.768Y-61.611
X315.768Y-70.015
X318.308Y-61.611
X318.308Y-70.015
X320.848Y-61.611
X320.848Y-70.015
X323.388Y-38.751
X323.388Y-41.291
X323.388Y-43.831
X323.388Y-46.371
X323.388Y-48.911
X323.388Y-51.451
X323.388Y-53.991
X323.388Y-56.531
X323.388Y-59.071
X323.388Y-61.611
X323.388Y-64.151
X323.388Y-66.691
T7
X311.944Y-20.61
X311.944Y-25.11
X318.444Y-20.61
X318.444Y-25.11
T8
X33.337Y-27.781
X246.856Y-26.194
X307.952Y-100.67
X324.644Y-73.025
T9
X42.069Y-55.562
X56.356Y-95.25
X253.206Y-103.188
X277.019Y-65.087
T10
X21.837Y-38.03
X24.219Y-114.23
X26.6Y-57.08
X28.188Y-35.49
X28.981Y-76.13
X30.569Y-111.69
X32.95Y-54.54
X33.744Y-95.18
X35.331Y-73.59
X40.094Y-92.64
X40.887Y-38.03
X47.237Y-35.49
X48.031Y-114.23
X50.412Y-57.08
X54.381Y-111.69
X55.175Y-76.13
X56.762Y-54.54
X59.938Y-38.03
X61.525Y-73.59
X64.7Y-95.18
X66.287Y-35.49
X69.462Y-57.08
X71.05Y-92.64
X71.844Y-114.23
X74.225Y-76.13
X75.812Y-54.54
X78.194Y-111.69
X78.987Y-38.03
X80.575Y-73.59
X83.75Y-95.18
X85.337Y-35.49
X88.513Y-57.15
X90.1Y-92.64
X93.275Y-76.13
X94.862Y-54.61
X98.037Y-38.03
X99.625Y-73.59
X102.8Y-95.18
X104.387Y-35.49
X107.562Y-57.08
X109.15Y-92.64
X112.325Y-76.13
X113.912Y-54.54
X117.087Y-38.03
X118.675Y-73.59
X121.85Y-95.18
X123.438Y-35.49
X126.612Y-57.08
X128.2Y-92.64
X131.375Y-76.13
X132.963Y-54.54
X136.137Y-38.03
X137.725Y-73.59
X140.9Y-95.18
X142.487Y-35.49
X143.281Y-114.23
X145.662Y-57.08
X147.25Y-92.64
X149.631Y-111.69
X150.425Y-76.13
X152.012Y-54.54
X155.188Y-38.03
X156.775Y-73.59
X159.95Y-95.18
X161.537Y-35.49
X164.713Y-57.08
X166.3Y-92.64
X169.475Y-76.13
X171.062Y-54.54
X174.237Y-38.03
X175.825Y-73.59
X179.0Y-95.18
X180.588Y-35.49
X183.762Y-57.08
X185.35Y-92.64
X188.525Y-76.13
X190.112Y-54.54
X193.287Y-38.03
X194.875Y-73.59
X198.05Y-95.18
X199.637Y-35.49
X202.812Y-57.08
X204.4Y-92.64
X207.575Y-76.13
X209.162Y-54.54
X212.337Y-38.03
X213.925Y-73.59
X214.719Y-114.23
X217.1Y-95.18
X218.688Y-35.49
X221.069Y-111.69
X221.862Y-57.08
X223.45Y-92.64
X226.625Y-76.13
X228.212Y-54.54
X231.387Y-38.03
X232.975Y-73.59
X236.15Y-95.18
X237.737Y-35.49
X238.531Y-114.23
X240.912Y-57.08
X242.5Y-92.64
X244.881Y-111.69
X245.675Y-76.13
X247.262Y-54.54
X250.438Y-38.03
X252.025Y-73.59
X256.787Y-35.49
X259.962Y-57.08
X262.344Y-95.18
X266.312Y-54.54
X268.694Y-92.64
X269.488Y-114.23
X275.837Y-111.69
X276.631Y-76.13
X279.012Y-38.03
X282.981Y-73.59
X283.775Y-57.08
X285.363Y-35.49
X288.537Y-95.18
X288.537Y-114.23
X290.125Y-54.54
X294.887Y-92.64
X294.887Y-111.69
X307.587Y-114.23
X313.938Y-111.69
T11
X25.647Y-90.735
X49.46Y-90.735
X97.085Y-109.785
X197.097Y-109.785
X268.535Y-71.685
X270.916Y-33.585
X292.347Y-71.685
X294.729Y-33.585
T0
M30
