M48
; DRILL file {KiCad (6.0.10)} date Sat Sep 30 09:28:58 2023
; FORMAT={-:-/ absolute / metric / decimal}
; #@! TF.CreationDate,2023-09-30T09:28:58-05:00
; #@! TF.GenerationSoftware,Kicad,Pcbnew,(6.0.10)
; #@! TF.FileFunction,NonPlated,1,2,NPTH
FMAT,2
METRIC
; #@! TA.AperFunction,NonPlated,NPTH,ComponentDrill
T1C0.750
; #@! TA.AperFunction,NonPlated,NPTH,ComponentDrill
T2C0.900
; #@! TA.AperFunction,NonPlated,NPTH,ComponentDrill
T3C1.750
; #@! TA.AperFunction,NonPlated,NPTH,ComponentDrill
T4C3.988
%
G90
G05
T1
X315.541Y-14.905
X315.541Y-17.655
T2
X327.615Y-20.02
X327.615Y-23.02
T3
X20.567Y-40.57
X22.949Y-116.77
X25.33Y-59.62
X27.711Y-78.67
X30.727Y-40.57
X32.474Y-97.72
X33.109Y-116.77
X35.49Y-59.62
X37.871Y-78.67
X39.617Y-40.57
X42.634Y-97.72
X46.761Y-116.77
X49.142Y-59.62
X49.777Y-40.57
X53.905Y-78.67
X56.921Y-116.77
X58.667Y-40.57
X59.302Y-59.62
X63.43Y-97.72
X64.065Y-78.67
X68.192Y-59.62
X68.828Y-40.57
X70.574Y-116.77
X72.955Y-78.67
X73.59Y-97.72
X77.718Y-40.57
X78.352Y-59.62
X80.734Y-116.77
X82.48Y-97.72
X83.115Y-78.67
X87.242Y-59.69
X87.877Y-40.57
X92.005Y-78.67
X92.64Y-97.72
X96.767Y-40.57
X97.402Y-59.69
X101.53Y-97.72
X102.165Y-78.67
X106.292Y-59.62
X106.927Y-40.57
X111.055Y-78.67
X111.69Y-97.72
X115.817Y-40.57
X116.453Y-59.62
X120.58Y-97.72
X121.215Y-78.67
X125.343Y-59.62
X125.977Y-40.57
X130.105Y-78.67
X130.74Y-97.72
X134.868Y-40.57
X135.502Y-59.62
X139.63Y-97.72
X140.265Y-78.67
X142.011Y-116.77
X144.392Y-59.62
X145.028Y-40.57
X149.155Y-78.67
X149.79Y-97.72
X152.171Y-116.77
X153.917Y-40.57
X154.552Y-59.62
X158.68Y-97.72
X159.315Y-78.67
X163.442Y-59.62
X164.077Y-40.57
X168.205Y-78.67
X168.84Y-97.72
X172.968Y-40.57
X173.602Y-59.62
X177.73Y-97.72
X178.365Y-78.67
X182.492Y-59.62
X183.127Y-40.57
X187.255Y-78.67
X187.89Y-97.72
X192.017Y-40.57
X192.653Y-59.62
X196.78Y-97.72
X197.415Y-78.67
X201.542Y-59.62
X202.177Y-40.57
X206.305Y-78.67
X206.94Y-97.72
X211.067Y-40.57
X211.702Y-59.62
X213.449Y-116.77
X215.83Y-97.72
X216.465Y-78.67
X220.593Y-59.62
X221.227Y-40.57
X223.609Y-116.77
X225.355Y-78.67
X225.99Y-97.72
X230.117Y-40.57
X230.752Y-59.62
X234.88Y-97.72
X235.515Y-78.67
X237.261Y-116.77
X239.642Y-59.62
X240.277Y-40.57
X244.405Y-78.67
X245.04Y-97.72
X247.421Y-116.77
X249.167Y-40.57
X249.802Y-59.62
X254.565Y-78.67
X258.692Y-59.62
X259.327Y-40.57
X261.074Y-97.72
X268.217Y-116.77
X268.852Y-59.62
X271.234Y-97.72
X275.361Y-78.67
X277.743Y-40.57
X278.377Y-116.77
X282.505Y-59.62
X285.521Y-78.67
X287.267Y-97.72
X287.267Y-116.77
X287.902Y-40.57
X292.665Y-59.62
X297.428Y-97.72
X297.428Y-116.77
X306.317Y-116.77
X316.477Y-116.77
T4
X25.647Y-40.57
X25.647Y-105.975
X28.029Y-116.77
X30.41Y-59.62
X32.791Y-78.67
X37.554Y-97.72
X44.697Y-40.57
X49.46Y-105.975
X51.841Y-116.77
X54.222Y-59.62
X58.985Y-78.67
X63.747Y-40.57
X68.51Y-97.72
X73.272Y-59.62
X75.654Y-116.77
X78.035Y-78.67
X82.797Y-40.57
X87.56Y-97.72
X92.322Y-59.69
X97.085Y-78.67
X97.085Y-125.025
X101.847Y-40.57
X106.61Y-97.72
X111.372Y-59.62
X116.135Y-78.67
X120.897Y-40.57
X125.66Y-97.72
X130.422Y-59.62
X135.185Y-78.67
X139.947Y-40.57
X144.71Y-97.72
X147.091Y-116.77
X149.472Y-59.62
X154.235Y-78.67
X158.998Y-40.57
X163.76Y-97.72
X168.522Y-59.62
X173.285Y-78.67
X178.047Y-40.57
X182.81Y-97.72
X187.572Y-59.62
X192.335Y-78.67
X197.097Y-40.57
X197.097Y-125.025
X201.86Y-97.72
X206.623Y-59.62
X211.385Y-78.67
X216.147Y-40.57
X218.529Y-116.77
X220.91Y-97.72
X225.672Y-59.62
X230.435Y-78.67
X235.197Y-40.57
X239.96Y-97.72
X242.341Y-116.77
X244.722Y-59.62
X249.485Y-78.67
X254.248Y-40.57
X263.772Y-59.62
X266.154Y-97.72
X268.535Y-86.925
X270.916Y-48.825
X273.298Y-116.77
X280.441Y-78.67
X282.822Y-40.57
X287.585Y-59.62
X292.347Y-86.925
X292.347Y-97.72
X292.347Y-116.77
X294.729Y-48.825
X311.397Y-116.77
T0
M30
