%TF.GenerationSoftware,KiCad,Pcbnew,(6.0.10)*%
%TF.CreationDate,2023-09-30T09:28:59-05:00*%
%TF.ProjectId,RunTypeV3,52756e54-7970-4655-9633-2e6b69636164,rev?*%
%TF.SameCoordinates,Original*%
%TF.FileFunction,Drillmap*%
%TF.FilePolarity,Positive*%
%FSLAX45Y45*%
G04 Gerber Fmt 4.5, Leading zero omitted, Abs format (unit mm)*
G04 Created by KiCad (PCBNEW (6.0.10)) date 2023-09-30 09:28:59*
%MOMM*%
%LPD*%
G01*
G04 APERTURE LIST*
%ADD10C,0.100000*%
%ADD11C,0.200000*%
%ADD12C,0.075000*%
%ADD13C,0.090000*%
%ADD14C,0.175000*%
%ADD15C,0.398780*%
G04 APERTURE END LIST*
D10*
X1825625Y-8969376D02*
G75*
G03*
X1825625Y-8572500I0J198438D01*
G01*
X1666875Y-1428750D02*
G75*
G03*
X1349375Y-1746250I0J-317500D01*
G01*
X32385000Y-8572505D02*
G75*
G03*
X32385000Y-8969375I0J-198435D01*
G01*
X1349375Y-8572500D02*
X1349375Y-1746250D01*
X1666875Y-1428750D02*
X32623125Y-1428750D01*
X1349375Y-8969375D02*
X1825625Y-8969375D01*
X32940625Y-8572500D02*
X32940625Y-1746250D01*
X1349375Y-12938125D02*
X1349375Y-8969375D01*
X32385000Y-8572500D02*
X32940625Y-8572500D01*
X32543750Y-13255625D02*
X1666875Y-13255625D01*
X32940620Y-1746250D02*
G75*
G03*
X32623125Y-1428750I-317500J0D01*
G01*
X1825625Y-8572500D02*
X1349375Y-8572500D01*
X32940625Y-8969375D02*
X32940625Y-12858750D01*
X32940625Y-8969375D02*
X32385000Y-8969375D01*
X32543750Y-13255625D02*
G75*
G03*
X32940625Y-12858750I0J396875D01*
G01*
X1349375Y-12938125D02*
G75*
G03*
X1666875Y-13255625I317500J0D01*
G01*
D11*
D12*
X31516576Y-1453035D02*
X31591576Y-1528035D01*
X31591576Y-1453035D02*
X31516576Y-1528035D01*
X31516576Y-1728035D02*
X31591576Y-1803035D01*
X31591576Y-1728035D02*
X31516576Y-1803035D01*
D13*
X32806545Y-2002000D02*
G75*
G03*
X32806545Y-2002000I-45000J0D01*
G01*
X32806545Y-2302000D02*
G75*
G03*
X32806545Y-2302000I-45000J0D01*
G01*
D14*
X2056750Y-3969500D02*
X2056750Y-4144500D01*
X1969250Y-4057000D02*
X2144250Y-4057000D01*
X2294875Y-11589500D02*
X2294875Y-11764500D01*
X2207375Y-11677000D02*
X2382375Y-11677000D01*
X2533000Y-5874500D02*
X2533000Y-6049500D01*
X2445500Y-5962000D02*
X2620500Y-5962000D01*
X2771125Y-7779500D02*
X2771125Y-7954500D01*
X2683625Y-7867000D02*
X2858625Y-7867000D01*
X3072750Y-3969500D02*
X3072750Y-4144500D01*
X2985250Y-4057000D02*
X3160250Y-4057000D01*
X3247375Y-9684500D02*
X3247375Y-9859500D01*
X3159875Y-9772000D02*
X3334875Y-9772000D01*
X3310875Y-11589500D02*
X3310875Y-11764500D01*
X3223375Y-11677000D02*
X3398375Y-11677000D01*
X3549000Y-5874500D02*
X3549000Y-6049500D01*
X3461500Y-5962000D02*
X3636500Y-5962000D01*
X3787125Y-7779500D02*
X3787125Y-7954500D01*
X3699625Y-7867000D02*
X3874625Y-7867000D01*
X3961750Y-3969500D02*
X3961750Y-4144500D01*
X3874250Y-4057000D02*
X4049250Y-4057000D01*
X4263375Y-9684500D02*
X4263375Y-9859500D01*
X4175875Y-9772000D02*
X4350875Y-9772000D01*
X4676125Y-11589500D02*
X4676125Y-11764500D01*
X4588625Y-11677000D02*
X4763625Y-11677000D01*
X4914250Y-5874500D02*
X4914250Y-6049500D01*
X4826750Y-5962000D02*
X5001750Y-5962000D01*
X4977750Y-3969500D02*
X4977750Y-4144500D01*
X4890250Y-4057000D02*
X5065250Y-4057000D01*
X5390500Y-7779500D02*
X5390500Y-7954500D01*
X5303000Y-7867000D02*
X5478000Y-7867000D01*
X5692125Y-11589500D02*
X5692125Y-11764500D01*
X5604625Y-11677000D02*
X5779625Y-11677000D01*
X5866750Y-3969500D02*
X5866750Y-4144500D01*
X5779250Y-4057000D02*
X5954250Y-4057000D01*
X5930250Y-5874500D02*
X5930250Y-6049500D01*
X5842750Y-5962000D02*
X6017750Y-5962000D01*
X6343000Y-9684500D02*
X6343000Y-9859500D01*
X6255500Y-9772000D02*
X6430500Y-9772000D01*
X6406500Y-7779500D02*
X6406500Y-7954500D01*
X6319000Y-7867000D02*
X6494000Y-7867000D01*
X6819250Y-5874500D02*
X6819250Y-6049500D01*
X6731750Y-5962000D02*
X6906750Y-5962000D01*
X6882750Y-3969500D02*
X6882750Y-4144500D01*
X6795250Y-4057000D02*
X6970250Y-4057000D01*
X7057375Y-11589500D02*
X7057375Y-11764500D01*
X6969875Y-11677000D02*
X7144875Y-11677000D01*
X7295500Y-7779500D02*
X7295500Y-7954500D01*
X7208000Y-7867000D02*
X7383000Y-7867000D01*
X7359000Y-9684500D02*
X7359000Y-9859500D01*
X7271500Y-9772000D02*
X7446500Y-9772000D01*
X7771750Y-3969500D02*
X7771750Y-4144500D01*
X7684250Y-4057000D02*
X7859250Y-4057000D01*
X7835250Y-5874500D02*
X7835250Y-6049500D01*
X7747750Y-5962000D02*
X7922750Y-5962000D01*
X8073375Y-11589500D02*
X8073375Y-11764500D01*
X7985875Y-11677000D02*
X8160875Y-11677000D01*
X8248000Y-9684500D02*
X8248000Y-9859500D01*
X8160500Y-9772000D02*
X8335500Y-9772000D01*
X8311500Y-7779500D02*
X8311500Y-7954500D01*
X8224000Y-7867000D02*
X8399000Y-7867000D01*
X8724250Y-5881500D02*
X8724250Y-6056500D01*
X8636750Y-5969000D02*
X8811750Y-5969000D01*
X8787750Y-3969500D02*
X8787750Y-4144500D01*
X8700250Y-4057000D02*
X8875250Y-4057000D01*
X9200500Y-7779500D02*
X9200500Y-7954500D01*
X9113000Y-7867000D02*
X9288000Y-7867000D01*
X9264000Y-9684500D02*
X9264000Y-9859500D01*
X9176500Y-9772000D02*
X9351500Y-9772000D01*
X9676750Y-3969500D02*
X9676750Y-4144500D01*
X9589250Y-4057000D02*
X9764250Y-4057000D01*
X9740250Y-5881500D02*
X9740250Y-6056500D01*
X9652750Y-5969000D02*
X9827750Y-5969000D01*
X10153000Y-9684500D02*
X10153000Y-9859500D01*
X10065500Y-9772000D02*
X10240500Y-9772000D01*
X10216500Y-7779500D02*
X10216500Y-7954500D01*
X10129000Y-7867000D02*
X10304000Y-7867000D01*
X10629250Y-5874500D02*
X10629250Y-6049500D01*
X10541750Y-5962000D02*
X10716750Y-5962000D01*
X10692750Y-3969500D02*
X10692750Y-4144500D01*
X10605250Y-4057000D02*
X10780250Y-4057000D01*
X11105500Y-7779500D02*
X11105500Y-7954500D01*
X11018000Y-7867000D02*
X11193000Y-7867000D01*
X11169000Y-9684500D02*
X11169000Y-9859500D01*
X11081500Y-9772000D02*
X11256500Y-9772000D01*
X11581750Y-3969500D02*
X11581750Y-4144500D01*
X11494250Y-4057000D02*
X11669250Y-4057000D01*
X11645250Y-5874500D02*
X11645250Y-6049500D01*
X11557750Y-5962000D02*
X11732750Y-5962000D01*
X12058000Y-9684500D02*
X12058000Y-9859500D01*
X11970500Y-9772000D02*
X12145500Y-9772000D01*
X12121500Y-7779500D02*
X12121500Y-7954500D01*
X12034000Y-7867000D02*
X12209000Y-7867000D01*
X12534250Y-5874500D02*
X12534250Y-6049500D01*
X12446750Y-5962000D02*
X12621750Y-5962000D01*
X12597750Y-3969500D02*
X12597750Y-4144500D01*
X12510250Y-4057000D02*
X12685250Y-4057000D01*
X13010500Y-7779500D02*
X13010500Y-7954500D01*
X12923000Y-7867000D02*
X13098000Y-7867000D01*
X13074000Y-9684500D02*
X13074000Y-9859500D01*
X12986500Y-9772000D02*
X13161500Y-9772000D01*
X13486750Y-3969500D02*
X13486750Y-4144500D01*
X13399250Y-4057000D02*
X13574250Y-4057000D01*
X13550250Y-5874500D02*
X13550250Y-6049500D01*
X13462750Y-5962000D02*
X13637750Y-5962000D01*
X13963000Y-9684500D02*
X13963000Y-9859500D01*
X13875500Y-9772000D02*
X14050500Y-9772000D01*
X14026500Y-7779500D02*
X14026500Y-7954500D01*
X13939000Y-7867000D02*
X14114000Y-7867000D01*
X14201125Y-11589500D02*
X14201125Y-11764500D01*
X14113625Y-11677000D02*
X14288625Y-11677000D01*
X14439250Y-5874500D02*
X14439250Y-6049500D01*
X14351750Y-5962000D02*
X14526750Y-5962000D01*
X14502750Y-3969500D02*
X14502750Y-4144500D01*
X14415250Y-4057000D02*
X14590250Y-4057000D01*
X14915500Y-7779500D02*
X14915500Y-7954500D01*
X14828000Y-7867000D02*
X15003000Y-7867000D01*
X14979000Y-9684500D02*
X14979000Y-9859500D01*
X14891500Y-9772000D02*
X15066500Y-9772000D01*
X15217125Y-11589500D02*
X15217125Y-11764500D01*
X15129625Y-11677000D02*
X15304625Y-11677000D01*
X15391750Y-3969500D02*
X15391750Y-4144500D01*
X15304250Y-4057000D02*
X15479250Y-4057000D01*
X15455250Y-5874500D02*
X15455250Y-6049500D01*
X15367750Y-5962000D02*
X15542750Y-5962000D01*
X15868000Y-9684500D02*
X15868000Y-9859500D01*
X15780500Y-9772000D02*
X15955500Y-9772000D01*
X15931500Y-7779500D02*
X15931500Y-7954500D01*
X15844000Y-7867000D02*
X16019000Y-7867000D01*
X16344250Y-5874500D02*
X16344250Y-6049500D01*
X16256750Y-5962000D02*
X16431750Y-5962000D01*
X16407750Y-3969500D02*
X16407750Y-4144500D01*
X16320250Y-4057000D02*
X16495250Y-4057000D01*
X16820500Y-7779500D02*
X16820500Y-7954500D01*
X16733000Y-7867000D02*
X16908000Y-7867000D01*
X16884000Y-9684500D02*
X16884000Y-9859500D01*
X16796500Y-9772000D02*
X16971500Y-9772000D01*
X17296750Y-3969500D02*
X17296750Y-4144500D01*
X17209250Y-4057000D02*
X17384250Y-4057000D01*
X17360250Y-5874500D02*
X17360250Y-6049500D01*
X17272750Y-5962000D02*
X17447750Y-5962000D01*
X17773000Y-9684500D02*
X17773000Y-9859500D01*
X17685500Y-9772000D02*
X17860500Y-9772000D01*
X17836500Y-7779500D02*
X17836500Y-7954500D01*
X17749000Y-7867000D02*
X17924000Y-7867000D01*
X18249250Y-5874500D02*
X18249250Y-6049500D01*
X18161750Y-5962000D02*
X18336750Y-5962000D01*
X18312750Y-3969500D02*
X18312750Y-4144500D01*
X18225250Y-4057000D02*
X18400250Y-4057000D01*
X18725500Y-7779500D02*
X18725500Y-7954500D01*
X18638000Y-7867000D02*
X18813000Y-7867000D01*
X18789000Y-9684500D02*
X18789000Y-9859500D01*
X18701500Y-9772000D02*
X18876500Y-9772000D01*
X19201750Y-3969500D02*
X19201750Y-4144500D01*
X19114250Y-4057000D02*
X19289250Y-4057000D01*
X19265250Y-5874500D02*
X19265250Y-6049500D01*
X19177750Y-5962000D02*
X19352750Y-5962000D01*
X19678000Y-9684500D02*
X19678000Y-9859500D01*
X19590500Y-9772000D02*
X19765500Y-9772000D01*
X19741500Y-7779500D02*
X19741500Y-7954500D01*
X19654000Y-7867000D02*
X19829000Y-7867000D01*
X20154250Y-5874500D02*
X20154250Y-6049500D01*
X20066750Y-5962000D02*
X20241750Y-5962000D01*
X20217750Y-3969500D02*
X20217750Y-4144500D01*
X20130250Y-4057000D02*
X20305250Y-4057000D01*
X20630500Y-7779500D02*
X20630500Y-7954500D01*
X20543000Y-7867000D02*
X20718000Y-7867000D01*
X20694000Y-9684500D02*
X20694000Y-9859500D01*
X20606500Y-9772000D02*
X20781500Y-9772000D01*
X21106750Y-3969500D02*
X21106750Y-4144500D01*
X21019250Y-4057000D02*
X21194250Y-4057000D01*
X21170250Y-5874500D02*
X21170250Y-6049500D01*
X21082750Y-5962000D02*
X21257750Y-5962000D01*
X21344875Y-11589500D02*
X21344875Y-11764500D01*
X21257375Y-11677000D02*
X21432375Y-11677000D01*
X21583000Y-9684500D02*
X21583000Y-9859500D01*
X21495500Y-9772000D02*
X21670500Y-9772000D01*
X21646500Y-7779500D02*
X21646500Y-7954500D01*
X21559000Y-7867000D02*
X21734000Y-7867000D01*
X22059250Y-5874500D02*
X22059250Y-6049500D01*
X21971750Y-5962000D02*
X22146750Y-5962000D01*
X22122750Y-3969500D02*
X22122750Y-4144500D01*
X22035250Y-4057000D02*
X22210250Y-4057000D01*
X22360875Y-11589500D02*
X22360875Y-11764500D01*
X22273375Y-11677000D02*
X22448375Y-11677000D01*
X22535500Y-7779500D02*
X22535500Y-7954500D01*
X22448000Y-7867000D02*
X22623000Y-7867000D01*
X22599000Y-9684500D02*
X22599000Y-9859500D01*
X22511500Y-9772000D02*
X22686500Y-9772000D01*
X23011750Y-3969500D02*
X23011750Y-4144500D01*
X22924250Y-4057000D02*
X23099250Y-4057000D01*
X23075250Y-5874500D02*
X23075250Y-6049500D01*
X22987750Y-5962000D02*
X23162750Y-5962000D01*
X23488000Y-9684500D02*
X23488000Y-9859500D01*
X23400500Y-9772000D02*
X23575500Y-9772000D01*
X23551500Y-7779500D02*
X23551500Y-7954500D01*
X23464000Y-7867000D02*
X23639000Y-7867000D01*
X23726125Y-11589500D02*
X23726125Y-11764500D01*
X23638625Y-11677000D02*
X23813625Y-11677000D01*
X23964250Y-5874500D02*
X23964250Y-6049500D01*
X23876750Y-5962000D02*
X24051750Y-5962000D01*
X24027750Y-3969500D02*
X24027750Y-4144500D01*
X23940250Y-4057000D02*
X24115250Y-4057000D01*
X24440500Y-7779500D02*
X24440500Y-7954500D01*
X24353000Y-7867000D02*
X24528000Y-7867000D01*
X24504000Y-9684500D02*
X24504000Y-9859500D01*
X24416500Y-9772000D02*
X24591500Y-9772000D01*
X24742125Y-11589500D02*
X24742125Y-11764500D01*
X24654625Y-11677000D02*
X24829625Y-11677000D01*
X24916750Y-3969500D02*
X24916750Y-4144500D01*
X24829250Y-4057000D02*
X25004250Y-4057000D01*
X24980250Y-5874500D02*
X24980250Y-6049500D01*
X24892750Y-5962000D02*
X25067750Y-5962000D01*
X25456500Y-7779500D02*
X25456500Y-7954500D01*
X25369000Y-7867000D02*
X25544000Y-7867000D01*
X25869250Y-5874500D02*
X25869250Y-6049500D01*
X25781750Y-5962000D02*
X25956750Y-5962000D01*
X25932750Y-3969500D02*
X25932750Y-4144500D01*
X25845250Y-4057000D02*
X26020250Y-4057000D01*
X26107375Y-9684500D02*
X26107375Y-9859500D01*
X26019875Y-9772000D02*
X26194875Y-9772000D01*
X26821750Y-11589500D02*
X26821750Y-11764500D01*
X26734250Y-11677000D02*
X26909250Y-11677000D01*
X26885250Y-5874500D02*
X26885250Y-6049500D01*
X26797750Y-5962000D02*
X26972750Y-5962000D01*
X27123375Y-9684500D02*
X27123375Y-9859500D01*
X27035875Y-9772000D02*
X27210875Y-9772000D01*
X27536125Y-7779500D02*
X27536125Y-7954500D01*
X27448625Y-7867000D02*
X27623625Y-7867000D01*
X27774250Y-3969500D02*
X27774250Y-4144500D01*
X27686750Y-4057000D02*
X27861750Y-4057000D01*
X27837750Y-11589500D02*
X27837750Y-11764500D01*
X27750250Y-11677000D02*
X27925250Y-11677000D01*
X28250500Y-5874500D02*
X28250500Y-6049500D01*
X28163000Y-5962000D02*
X28338000Y-5962000D01*
X28552125Y-7779500D02*
X28552125Y-7954500D01*
X28464625Y-7867000D02*
X28639625Y-7867000D01*
X28726750Y-9684500D02*
X28726750Y-9859500D01*
X28639250Y-9772000D02*
X28814250Y-9772000D01*
X28726750Y-11589500D02*
X28726750Y-11764500D01*
X28639250Y-11677000D02*
X28814250Y-11677000D01*
X28790250Y-3969500D02*
X28790250Y-4144500D01*
X28702750Y-4057000D02*
X28877750Y-4057000D01*
X29266500Y-5874500D02*
X29266500Y-6049500D01*
X29179000Y-5962000D02*
X29354000Y-5962000D01*
X29742750Y-9684500D02*
X29742750Y-9859500D01*
X29655250Y-9772000D02*
X29830250Y-9772000D01*
X29742750Y-11589500D02*
X29742750Y-11764500D01*
X29655250Y-11677000D02*
X29830250Y-11677000D01*
X30631750Y-11589500D02*
X30631750Y-11764500D01*
X30544250Y-11677000D02*
X30719250Y-11677000D01*
X31647750Y-11589500D02*
X31647750Y-11764500D01*
X31560250Y-11677000D02*
X31735250Y-11677000D01*
D15*
X2705741Y-4197991D02*
X2705741Y-3916009D01*
X2423759Y-3916009D01*
X2423759Y-4197991D01*
X2705741Y-4197991D01*
X2705741Y-10738491D02*
X2705741Y-10456509D01*
X2423759Y-10456509D01*
X2423759Y-10738491D01*
X2705741Y-10738491D01*
X2943866Y-11817991D02*
X2943866Y-11536009D01*
X2661884Y-11536009D01*
X2661884Y-11817991D01*
X2943866Y-11817991D01*
X3181991Y-6102991D02*
X3181991Y-5821009D01*
X2900009Y-5821009D01*
X2900009Y-6102991D01*
X3181991Y-6102991D01*
X3420116Y-8007991D02*
X3420116Y-7726009D01*
X3138134Y-7726009D01*
X3138134Y-8007991D01*
X3420116Y-8007991D01*
X3896366Y-9912991D02*
X3896366Y-9631009D01*
X3614384Y-9631009D01*
X3614384Y-9912991D01*
X3896366Y-9912991D01*
X4610741Y-4197991D02*
X4610741Y-3916009D01*
X4328759Y-3916009D01*
X4328759Y-4197991D01*
X4610741Y-4197991D01*
X5086991Y-10738491D02*
X5086991Y-10456509D01*
X4805009Y-10456509D01*
X4805009Y-10738491D01*
X5086991Y-10738491D01*
X5325116Y-11817991D02*
X5325116Y-11536009D01*
X5043134Y-11536009D01*
X5043134Y-11817991D01*
X5325116Y-11817991D01*
X5563241Y-6102991D02*
X5563241Y-5821009D01*
X5281259Y-5821009D01*
X5281259Y-6102991D01*
X5563241Y-6102991D01*
X6039491Y-8007991D02*
X6039491Y-7726009D01*
X5757509Y-7726009D01*
X5757509Y-8007991D01*
X6039491Y-8007991D01*
X6515741Y-4197991D02*
X6515741Y-3916009D01*
X6233759Y-3916009D01*
X6233759Y-4197991D01*
X6515741Y-4197991D01*
X6991991Y-9912991D02*
X6991991Y-9631009D01*
X6710009Y-9631009D01*
X6710009Y-9912991D01*
X6991991Y-9912991D01*
X7468241Y-6102991D02*
X7468241Y-5821009D01*
X7186259Y-5821009D01*
X7186259Y-6102991D01*
X7468241Y-6102991D01*
X7706366Y-11817991D02*
X7706366Y-11536009D01*
X7424384Y-11536009D01*
X7424384Y-11817991D01*
X7706366Y-11817991D01*
X7944491Y-8007991D02*
X7944491Y-7726009D01*
X7662509Y-7726009D01*
X7662509Y-8007991D01*
X7944491Y-8007991D01*
X8420741Y-4197991D02*
X8420741Y-3916009D01*
X8138759Y-3916009D01*
X8138759Y-4197991D01*
X8420741Y-4197991D01*
X8896991Y-9912991D02*
X8896991Y-9631009D01*
X8615009Y-9631009D01*
X8615009Y-9912991D01*
X8896991Y-9912991D01*
X9373241Y-6109991D02*
X9373241Y-5828009D01*
X9091259Y-5828009D01*
X9091259Y-6109991D01*
X9373241Y-6109991D01*
X9849491Y-8007991D02*
X9849491Y-7726009D01*
X9567509Y-7726009D01*
X9567509Y-8007991D01*
X9849491Y-8007991D01*
X9849491Y-12643491D02*
X9849491Y-12361509D01*
X9567509Y-12361509D01*
X9567509Y-12643491D01*
X9849491Y-12643491D01*
X10325741Y-4197991D02*
X10325741Y-3916009D01*
X10043759Y-3916009D01*
X10043759Y-4197991D01*
X10325741Y-4197991D01*
X10801991Y-9912991D02*
X10801991Y-9631009D01*
X10520009Y-9631009D01*
X10520009Y-9912991D01*
X10801991Y-9912991D01*
X11278241Y-6102991D02*
X11278241Y-5821009D01*
X10996259Y-5821009D01*
X10996259Y-6102991D01*
X11278241Y-6102991D01*
X11754491Y-8007991D02*
X11754491Y-7726009D01*
X11472509Y-7726009D01*
X11472509Y-8007991D01*
X11754491Y-8007991D01*
X12230741Y-4197991D02*
X12230741Y-3916009D01*
X11948759Y-3916009D01*
X11948759Y-4197991D01*
X12230741Y-4197991D01*
X12706991Y-9912991D02*
X12706991Y-9631009D01*
X12425009Y-9631009D01*
X12425009Y-9912991D01*
X12706991Y-9912991D01*
X13183241Y-6102991D02*
X13183241Y-5821009D01*
X12901259Y-5821009D01*
X12901259Y-6102991D01*
X13183241Y-6102991D01*
X13659491Y-8007991D02*
X13659491Y-7726009D01*
X13377509Y-7726009D01*
X13377509Y-8007991D01*
X13659491Y-8007991D01*
X14135741Y-4197991D02*
X14135741Y-3916009D01*
X13853759Y-3916009D01*
X13853759Y-4197991D01*
X14135741Y-4197991D01*
X14611991Y-9912991D02*
X14611991Y-9631009D01*
X14330009Y-9631009D01*
X14330009Y-9912991D01*
X14611991Y-9912991D01*
X14850116Y-11817991D02*
X14850116Y-11536009D01*
X14568134Y-11536009D01*
X14568134Y-11817991D01*
X14850116Y-11817991D01*
X15088241Y-6102991D02*
X15088241Y-5821009D01*
X14806259Y-5821009D01*
X14806259Y-6102991D01*
X15088241Y-6102991D01*
X15564491Y-8007991D02*
X15564491Y-7726009D01*
X15282509Y-7726009D01*
X15282509Y-8007991D01*
X15564491Y-8007991D01*
X16040741Y-4197991D02*
X16040741Y-3916009D01*
X15758759Y-3916009D01*
X15758759Y-4197991D01*
X16040741Y-4197991D01*
X16516991Y-9912991D02*
X16516991Y-9631009D01*
X16235009Y-9631009D01*
X16235009Y-9912991D01*
X16516991Y-9912991D01*
X16993241Y-6102991D02*
X16993241Y-5821009D01*
X16711259Y-5821009D01*
X16711259Y-6102991D01*
X16993241Y-6102991D01*
X17469491Y-8007991D02*
X17469491Y-7726009D01*
X17187509Y-7726009D01*
X17187509Y-8007991D01*
X17469491Y-8007991D01*
X17945741Y-4197991D02*
X17945741Y-3916009D01*
X17663759Y-3916009D01*
X17663759Y-4197991D01*
X17945741Y-4197991D01*
X18421991Y-9912991D02*
X18421991Y-9631009D01*
X18140009Y-9631009D01*
X18140009Y-9912991D01*
X18421991Y-9912991D01*
X18898241Y-6102991D02*
X18898241Y-5821009D01*
X18616259Y-5821009D01*
X18616259Y-6102991D01*
X18898241Y-6102991D01*
X19374491Y-8007991D02*
X19374491Y-7726009D01*
X19092509Y-7726009D01*
X19092509Y-8007991D01*
X19374491Y-8007991D01*
X19850741Y-4197991D02*
X19850741Y-3916009D01*
X19568759Y-3916009D01*
X19568759Y-4197991D01*
X19850741Y-4197991D01*
X19850741Y-12643491D02*
X19850741Y-12361509D01*
X19568759Y-12361509D01*
X19568759Y-12643491D01*
X19850741Y-12643491D01*
X20326991Y-9912991D02*
X20326991Y-9631009D01*
X20045009Y-9631009D01*
X20045009Y-9912991D01*
X20326991Y-9912991D01*
X20803241Y-6102991D02*
X20803241Y-5821009D01*
X20521259Y-5821009D01*
X20521259Y-6102991D01*
X20803241Y-6102991D01*
X21279491Y-8007991D02*
X21279491Y-7726009D01*
X20997509Y-7726009D01*
X20997509Y-8007991D01*
X21279491Y-8007991D01*
X21755741Y-4197991D02*
X21755741Y-3916009D01*
X21473759Y-3916009D01*
X21473759Y-4197991D01*
X21755741Y-4197991D01*
X21993866Y-11817991D02*
X21993866Y-11536009D01*
X21711884Y-11536009D01*
X21711884Y-11817991D01*
X21993866Y-11817991D01*
X22231991Y-9912991D02*
X22231991Y-9631009D01*
X21950009Y-9631009D01*
X21950009Y-9912991D01*
X22231991Y-9912991D01*
X22708241Y-6102991D02*
X22708241Y-5821009D01*
X22426259Y-5821009D01*
X22426259Y-6102991D01*
X22708241Y-6102991D01*
X23184491Y-8007991D02*
X23184491Y-7726009D01*
X22902509Y-7726009D01*
X22902509Y-8007991D01*
X23184491Y-8007991D01*
X23660741Y-4197991D02*
X23660741Y-3916009D01*
X23378759Y-3916009D01*
X23378759Y-4197991D01*
X23660741Y-4197991D01*
X24136991Y-9912991D02*
X24136991Y-9631009D01*
X23855009Y-9631009D01*
X23855009Y-9912991D01*
X24136991Y-9912991D01*
X24375116Y-11817991D02*
X24375116Y-11536009D01*
X24093134Y-11536009D01*
X24093134Y-11817991D01*
X24375116Y-11817991D01*
X24613241Y-6102991D02*
X24613241Y-5821009D01*
X24331259Y-5821009D01*
X24331259Y-6102991D01*
X24613241Y-6102991D01*
X25089491Y-8007991D02*
X25089491Y-7726009D01*
X24807509Y-7726009D01*
X24807509Y-8007991D01*
X25089491Y-8007991D01*
X25565741Y-4197991D02*
X25565741Y-3916009D01*
X25283759Y-3916009D01*
X25283759Y-4197991D01*
X25565741Y-4197991D01*
X26518241Y-6102991D02*
X26518241Y-5821009D01*
X26236259Y-5821009D01*
X26236259Y-6102991D01*
X26518241Y-6102991D01*
X26756366Y-9912991D02*
X26756366Y-9631009D01*
X26474384Y-9631009D01*
X26474384Y-9912991D01*
X26756366Y-9912991D01*
X26994491Y-8833491D02*
X26994491Y-8551509D01*
X26712509Y-8551509D01*
X26712509Y-8833491D01*
X26994491Y-8833491D01*
X27232616Y-5023491D02*
X27232616Y-4741509D01*
X26950634Y-4741509D01*
X26950634Y-5023491D01*
X27232616Y-5023491D01*
X27470741Y-11817991D02*
X27470741Y-11536009D01*
X27188759Y-11536009D01*
X27188759Y-11817991D01*
X27470741Y-11817991D01*
X28185116Y-8007991D02*
X28185116Y-7726009D01*
X27903134Y-7726009D01*
X27903134Y-8007991D01*
X28185116Y-8007991D01*
X28423241Y-4197991D02*
X28423241Y-3916009D01*
X28141259Y-3916009D01*
X28141259Y-4197991D01*
X28423241Y-4197991D01*
X28899491Y-6102991D02*
X28899491Y-5821009D01*
X28617509Y-5821009D01*
X28617509Y-6102991D01*
X28899491Y-6102991D01*
X29375741Y-8833491D02*
X29375741Y-8551509D01*
X29093759Y-8551509D01*
X29093759Y-8833491D01*
X29375741Y-8833491D01*
X29375741Y-9912991D02*
X29375741Y-9631009D01*
X29093759Y-9631009D01*
X29093759Y-9912991D01*
X29375741Y-9912991D01*
X29375741Y-11817991D02*
X29375741Y-11536009D01*
X29093759Y-11536009D01*
X29093759Y-11817991D01*
X29375741Y-11817991D01*
X29613866Y-5023491D02*
X29613866Y-4741509D01*
X29331884Y-4741509D01*
X29331884Y-5023491D01*
X29613866Y-5023491D01*
X31280741Y-11817991D02*
X31280741Y-11536009D01*
X30998759Y-11536009D01*
X30998759Y-11817991D01*
X31280741Y-11817991D01*
D11*
X1601994Y-13571101D02*
X1601994Y-13371101D01*
X1649613Y-13371101D01*
X1678184Y-13380625D01*
X1697232Y-13399673D01*
X1706756Y-13418720D01*
X1716280Y-13456815D01*
X1716280Y-13485387D01*
X1706756Y-13523482D01*
X1697232Y-13542530D01*
X1678184Y-13561577D01*
X1649613Y-13571101D01*
X1601994Y-13571101D01*
X1801994Y-13571101D02*
X1801994Y-13437768D01*
X1801994Y-13475863D02*
X1811518Y-13456815D01*
X1821042Y-13447292D01*
X1840089Y-13437768D01*
X1859137Y-13437768D01*
X1925803Y-13571101D02*
X1925803Y-13437768D01*
X1925803Y-13371101D02*
X1916280Y-13380625D01*
X1925803Y-13390149D01*
X1935327Y-13380625D01*
X1925803Y-13371101D01*
X1925803Y-13390149D01*
X2049613Y-13571101D02*
X2030565Y-13561577D01*
X2021042Y-13542530D01*
X2021042Y-13371101D01*
X2154375Y-13571101D02*
X2135327Y-13561577D01*
X2125804Y-13542530D01*
X2125804Y-13371101D01*
X2382946Y-13571101D02*
X2382946Y-13371101D01*
X2449613Y-13513958D01*
X2516280Y-13371101D01*
X2516280Y-13571101D01*
X2697232Y-13571101D02*
X2697232Y-13466339D01*
X2687708Y-13447292D01*
X2668661Y-13437768D01*
X2630565Y-13437768D01*
X2611518Y-13447292D01*
X2697232Y-13561577D02*
X2678185Y-13571101D01*
X2630565Y-13571101D01*
X2611518Y-13561577D01*
X2601994Y-13542530D01*
X2601994Y-13523482D01*
X2611518Y-13504434D01*
X2630565Y-13494911D01*
X2678185Y-13494911D01*
X2697232Y-13485387D01*
X2792470Y-13437768D02*
X2792470Y-13637768D01*
X2792470Y-13447292D02*
X2811518Y-13437768D01*
X2849613Y-13437768D01*
X2868661Y-13447292D01*
X2878184Y-13456815D01*
X2887708Y-13475863D01*
X2887708Y-13533006D01*
X2878184Y-13552053D01*
X2868661Y-13561577D01*
X2849613Y-13571101D01*
X2811518Y-13571101D01*
X2792470Y-13561577D01*
X2973423Y-13552053D02*
X2982946Y-13561577D01*
X2973423Y-13571101D01*
X2963899Y-13561577D01*
X2973423Y-13552053D01*
X2973423Y-13571101D01*
X2973423Y-13447292D02*
X2982946Y-13456815D01*
X2973423Y-13466339D01*
X2963899Y-13456815D01*
X2973423Y-13447292D01*
X2973423Y-13466339D01*
D12*
X1269375Y-13863125D02*
X1344375Y-13938125D01*
X1344375Y-13863125D02*
X1269375Y-13938125D01*
D11*
X1640089Y-13791101D02*
X1659137Y-13791101D01*
X1678184Y-13800625D01*
X1687708Y-13810149D01*
X1697232Y-13829196D01*
X1706756Y-13867292D01*
X1706756Y-13914911D01*
X1697232Y-13953006D01*
X1687708Y-13972053D01*
X1678184Y-13981577D01*
X1659137Y-13991101D01*
X1640089Y-13991101D01*
X1621042Y-13981577D01*
X1611518Y-13972053D01*
X1601994Y-13953006D01*
X1592470Y-13914911D01*
X1592470Y-13867292D01*
X1601994Y-13829196D01*
X1611518Y-13810149D01*
X1621042Y-13800625D01*
X1640089Y-13791101D01*
X1792470Y-13972053D02*
X1801994Y-13981577D01*
X1792470Y-13991101D01*
X1782946Y-13981577D01*
X1792470Y-13972053D01*
X1792470Y-13991101D01*
X1868661Y-13791101D02*
X2001994Y-13791101D01*
X1916280Y-13991101D01*
X2173423Y-13791101D02*
X2078184Y-13791101D01*
X2068661Y-13886339D01*
X2078184Y-13876815D01*
X2097232Y-13867292D01*
X2144851Y-13867292D01*
X2163899Y-13876815D01*
X2173423Y-13886339D01*
X2182946Y-13905387D01*
X2182946Y-13953006D01*
X2173423Y-13972053D01*
X2163899Y-13981577D01*
X2144851Y-13991101D01*
X2097232Y-13991101D01*
X2078184Y-13981577D01*
X2068661Y-13972053D01*
X2306756Y-13791101D02*
X2325804Y-13791101D01*
X2344851Y-13800625D01*
X2354375Y-13810149D01*
X2363899Y-13829196D01*
X2373423Y-13867292D01*
X2373423Y-13914911D01*
X2363899Y-13953006D01*
X2354375Y-13972053D01*
X2344851Y-13981577D01*
X2325804Y-13991101D01*
X2306756Y-13991101D01*
X2287708Y-13981577D01*
X2278185Y-13972053D01*
X2268661Y-13953006D01*
X2259137Y-13914911D01*
X2259137Y-13867292D01*
X2268661Y-13829196D01*
X2278185Y-13810149D01*
X2287708Y-13800625D01*
X2306756Y-13791101D01*
X2459137Y-13991101D02*
X2459137Y-13857768D01*
X2459137Y-13876815D02*
X2468661Y-13867292D01*
X2487708Y-13857768D01*
X2516280Y-13857768D01*
X2535327Y-13867292D01*
X2544851Y-13886339D01*
X2544851Y-13991101D01*
X2544851Y-13886339D02*
X2554375Y-13867292D01*
X2573423Y-13857768D01*
X2601994Y-13857768D01*
X2621042Y-13867292D01*
X2630565Y-13886339D01*
X2630565Y-13991101D01*
X2725804Y-13991101D02*
X2725804Y-13857768D01*
X2725804Y-13876815D02*
X2735327Y-13867292D01*
X2754375Y-13857768D01*
X2782946Y-13857768D01*
X2801994Y-13867292D01*
X2811518Y-13886339D01*
X2811518Y-13991101D01*
X2811518Y-13886339D02*
X2821042Y-13867292D01*
X2840089Y-13857768D01*
X2868661Y-13857768D01*
X2887708Y-13867292D01*
X2897232Y-13886339D01*
X2897232Y-13991101D01*
X3287708Y-13781577D02*
X3116280Y-14038720D01*
X3544851Y-13791101D02*
X3563899Y-13791101D01*
X3582946Y-13800625D01*
X3592470Y-13810149D01*
X3601994Y-13829196D01*
X3611518Y-13867292D01*
X3611518Y-13914911D01*
X3601994Y-13953006D01*
X3592470Y-13972053D01*
X3582946Y-13981577D01*
X3563899Y-13991101D01*
X3544851Y-13991101D01*
X3525803Y-13981577D01*
X3516280Y-13972053D01*
X3506756Y-13953006D01*
X3497232Y-13914911D01*
X3497232Y-13867292D01*
X3506756Y-13829196D01*
X3516280Y-13810149D01*
X3525803Y-13800625D01*
X3544851Y-13791101D01*
X3697232Y-13972053D02*
X3706756Y-13981577D01*
X3697232Y-13991101D01*
X3687708Y-13981577D01*
X3697232Y-13972053D01*
X3697232Y-13991101D01*
X3830565Y-13791101D02*
X3849613Y-13791101D01*
X3868661Y-13800625D01*
X3878184Y-13810149D01*
X3887708Y-13829196D01*
X3897232Y-13867292D01*
X3897232Y-13914911D01*
X3887708Y-13953006D01*
X3878184Y-13972053D01*
X3868661Y-13981577D01*
X3849613Y-13991101D01*
X3830565Y-13991101D01*
X3811518Y-13981577D01*
X3801994Y-13972053D01*
X3792470Y-13953006D01*
X3782946Y-13914911D01*
X3782946Y-13867292D01*
X3792470Y-13829196D01*
X3801994Y-13810149D01*
X3811518Y-13800625D01*
X3830565Y-13791101D01*
X3973423Y-13810149D02*
X3982946Y-13800625D01*
X4001994Y-13791101D01*
X4049613Y-13791101D01*
X4068661Y-13800625D01*
X4078184Y-13810149D01*
X4087708Y-13829196D01*
X4087708Y-13848244D01*
X4078184Y-13876815D01*
X3963899Y-13991101D01*
X4087708Y-13991101D01*
X4182946Y-13991101D02*
X4221042Y-13991101D01*
X4240089Y-13981577D01*
X4249613Y-13972053D01*
X4268661Y-13943482D01*
X4278185Y-13905387D01*
X4278185Y-13829196D01*
X4268661Y-13810149D01*
X4259137Y-13800625D01*
X4240089Y-13791101D01*
X4201994Y-13791101D01*
X4182946Y-13800625D01*
X4173423Y-13810149D01*
X4163899Y-13829196D01*
X4163899Y-13876815D01*
X4173423Y-13895863D01*
X4182946Y-13905387D01*
X4201994Y-13914911D01*
X4240089Y-13914911D01*
X4259137Y-13905387D01*
X4268661Y-13895863D01*
X4278185Y-13876815D01*
X4459137Y-13791101D02*
X4363899Y-13791101D01*
X4354375Y-13886339D01*
X4363899Y-13876815D01*
X4382946Y-13867292D01*
X4430565Y-13867292D01*
X4449613Y-13876815D01*
X4459137Y-13886339D01*
X4468661Y-13905387D01*
X4468661Y-13953006D01*
X4459137Y-13972053D01*
X4449613Y-13981577D01*
X4430565Y-13991101D01*
X4382946Y-13991101D01*
X4363899Y-13981577D01*
X4354375Y-13972053D01*
X4544851Y-13791101D02*
X4544851Y-13829196D01*
X4621042Y-13791101D02*
X4621042Y-13829196D01*
X4916280Y-14067292D02*
X4906756Y-14057768D01*
X4887708Y-14029196D01*
X4878185Y-14010149D01*
X4868661Y-13981577D01*
X4859137Y-13933958D01*
X4859137Y-13895863D01*
X4868661Y-13848244D01*
X4878185Y-13819673D01*
X4887708Y-13800625D01*
X4906756Y-13772053D01*
X4916280Y-13762530D01*
X4982946Y-13810149D02*
X4992470Y-13800625D01*
X5011518Y-13791101D01*
X5059137Y-13791101D01*
X5078185Y-13800625D01*
X5087708Y-13810149D01*
X5097232Y-13829196D01*
X5097232Y-13848244D01*
X5087708Y-13876815D01*
X4973423Y-13991101D01*
X5097232Y-13991101D01*
X5335327Y-13991101D02*
X5335327Y-13791101D01*
X5421042Y-13991101D02*
X5421042Y-13886339D01*
X5411518Y-13867292D01*
X5392470Y-13857768D01*
X5363899Y-13857768D01*
X5344851Y-13867292D01*
X5335327Y-13876815D01*
X5544851Y-13991101D02*
X5525804Y-13981577D01*
X5516280Y-13972053D01*
X5506756Y-13953006D01*
X5506756Y-13895863D01*
X5516280Y-13876815D01*
X5525804Y-13867292D01*
X5544851Y-13857768D01*
X5573423Y-13857768D01*
X5592470Y-13867292D01*
X5601994Y-13876815D01*
X5611518Y-13895863D01*
X5611518Y-13953006D01*
X5601994Y-13972053D01*
X5592470Y-13981577D01*
X5573423Y-13991101D01*
X5544851Y-13991101D01*
X5725803Y-13991101D02*
X5706756Y-13981577D01*
X5697232Y-13962530D01*
X5697232Y-13791101D01*
X5878184Y-13981577D02*
X5859137Y-13991101D01*
X5821042Y-13991101D01*
X5801994Y-13981577D01*
X5792470Y-13962530D01*
X5792470Y-13886339D01*
X5801994Y-13867292D01*
X5821042Y-13857768D01*
X5859137Y-13857768D01*
X5878184Y-13867292D01*
X5887708Y-13886339D01*
X5887708Y-13905387D01*
X5792470Y-13924434D01*
X5963899Y-13981577D02*
X5982946Y-13991101D01*
X6021042Y-13991101D01*
X6040089Y-13981577D01*
X6049613Y-13962530D01*
X6049613Y-13953006D01*
X6040089Y-13933958D01*
X6021042Y-13924434D01*
X5992470Y-13924434D01*
X5973423Y-13914911D01*
X5963899Y-13895863D01*
X5963899Y-13886339D01*
X5973423Y-13867292D01*
X5992470Y-13857768D01*
X6021042Y-13857768D01*
X6040089Y-13867292D01*
X6116280Y-14067292D02*
X6125803Y-14057768D01*
X6144851Y-14029196D01*
X6154375Y-14010149D01*
X6163899Y-13981577D01*
X6173423Y-13933958D01*
X6173423Y-13895863D01*
X6163899Y-13848244D01*
X6154375Y-13819673D01*
X6144851Y-13800625D01*
X6125803Y-13772053D01*
X6116280Y-13762530D01*
X6478184Y-14067292D02*
X6468661Y-14057768D01*
X6449613Y-14029196D01*
X6440089Y-14010149D01*
X6430565Y-13981577D01*
X6421042Y-13933958D01*
X6421042Y-13895863D01*
X6430565Y-13848244D01*
X6440089Y-13819673D01*
X6449613Y-13800625D01*
X6468661Y-13772053D01*
X6478184Y-13762530D01*
X6554375Y-13857768D02*
X6554375Y-13991101D01*
X6554375Y-13876815D02*
X6563899Y-13867292D01*
X6582946Y-13857768D01*
X6611518Y-13857768D01*
X6630565Y-13867292D01*
X6640089Y-13886339D01*
X6640089Y-13991101D01*
X6763899Y-13991101D02*
X6744851Y-13981577D01*
X6735327Y-13972053D01*
X6725803Y-13953006D01*
X6725803Y-13895863D01*
X6735327Y-13876815D01*
X6744851Y-13867292D01*
X6763899Y-13857768D01*
X6792470Y-13857768D01*
X6811518Y-13867292D01*
X6821042Y-13876815D01*
X6830565Y-13895863D01*
X6830565Y-13953006D01*
X6821042Y-13972053D01*
X6811518Y-13981577D01*
X6792470Y-13991101D01*
X6763899Y-13991101D01*
X6887708Y-13857768D02*
X6963899Y-13857768D01*
X6916280Y-13791101D02*
X6916280Y-13962530D01*
X6925803Y-13981577D01*
X6944851Y-13991101D01*
X6963899Y-13991101D01*
X7182946Y-13857768D02*
X7182946Y-14057768D01*
X7182946Y-13867292D02*
X7201994Y-13857768D01*
X7240089Y-13857768D01*
X7259137Y-13867292D01*
X7268661Y-13876815D01*
X7278184Y-13895863D01*
X7278184Y-13953006D01*
X7268661Y-13972053D01*
X7259137Y-13981577D01*
X7240089Y-13991101D01*
X7201994Y-13991101D01*
X7182946Y-13981577D01*
X7392470Y-13991101D02*
X7373423Y-13981577D01*
X7363899Y-13962530D01*
X7363899Y-13791101D01*
X7554375Y-13991101D02*
X7554375Y-13886339D01*
X7544851Y-13867292D01*
X7525803Y-13857768D01*
X7487708Y-13857768D01*
X7468661Y-13867292D01*
X7554375Y-13981577D02*
X7535327Y-13991101D01*
X7487708Y-13991101D01*
X7468661Y-13981577D01*
X7459137Y-13962530D01*
X7459137Y-13943482D01*
X7468661Y-13924434D01*
X7487708Y-13914911D01*
X7535327Y-13914911D01*
X7554375Y-13905387D01*
X7621042Y-13857768D02*
X7697232Y-13857768D01*
X7649613Y-13791101D02*
X7649613Y-13962530D01*
X7659137Y-13981577D01*
X7678184Y-13991101D01*
X7697232Y-13991101D01*
X7840089Y-13981577D02*
X7821042Y-13991101D01*
X7782946Y-13991101D01*
X7763899Y-13981577D01*
X7754375Y-13962530D01*
X7754375Y-13886339D01*
X7763899Y-13867292D01*
X7782946Y-13857768D01*
X7821042Y-13857768D01*
X7840089Y-13867292D01*
X7849613Y-13886339D01*
X7849613Y-13905387D01*
X7754375Y-13924434D01*
X8021042Y-13991101D02*
X8021042Y-13791101D01*
X8021042Y-13981577D02*
X8001994Y-13991101D01*
X7963899Y-13991101D01*
X7944851Y-13981577D01*
X7935327Y-13972053D01*
X7925803Y-13953006D01*
X7925803Y-13895863D01*
X7935327Y-13876815D01*
X7944851Y-13867292D01*
X7963899Y-13857768D01*
X8001994Y-13857768D01*
X8021042Y-13867292D01*
X8097232Y-14067292D02*
X8106756Y-14057768D01*
X8125803Y-14029196D01*
X8135327Y-14010149D01*
X8144851Y-13981577D01*
X8154375Y-13933958D01*
X8154375Y-13895863D01*
X8144851Y-13848244D01*
X8135327Y-13819673D01*
X8125803Y-13800625D01*
X8106756Y-13772053D01*
X8097232Y-13762530D01*
D13*
X1344375Y-14164625D02*
G75*
G03*
X1344375Y-14164625I-45000J0D01*
G01*
D11*
X1640089Y-14055101D02*
X1659137Y-14055101D01*
X1678184Y-14064625D01*
X1687708Y-14074149D01*
X1697232Y-14093196D01*
X1706756Y-14131292D01*
X1706756Y-14178911D01*
X1697232Y-14217006D01*
X1687708Y-14236053D01*
X1678184Y-14245577D01*
X1659137Y-14255101D01*
X1640089Y-14255101D01*
X1621042Y-14245577D01*
X1611518Y-14236053D01*
X1601994Y-14217006D01*
X1592470Y-14178911D01*
X1592470Y-14131292D01*
X1601994Y-14093196D01*
X1611518Y-14074149D01*
X1621042Y-14064625D01*
X1640089Y-14055101D01*
X1792470Y-14236053D02*
X1801994Y-14245577D01*
X1792470Y-14255101D01*
X1782946Y-14245577D01*
X1792470Y-14236053D01*
X1792470Y-14255101D01*
X1897232Y-14255101D02*
X1935327Y-14255101D01*
X1954375Y-14245577D01*
X1963899Y-14236053D01*
X1982946Y-14207482D01*
X1992470Y-14169387D01*
X1992470Y-14093196D01*
X1982946Y-14074149D01*
X1973423Y-14064625D01*
X1954375Y-14055101D01*
X1916280Y-14055101D01*
X1897232Y-14064625D01*
X1887708Y-14074149D01*
X1878184Y-14093196D01*
X1878184Y-14140815D01*
X1887708Y-14159863D01*
X1897232Y-14169387D01*
X1916280Y-14178911D01*
X1954375Y-14178911D01*
X1973423Y-14169387D01*
X1982946Y-14159863D01*
X1992470Y-14140815D01*
X2116280Y-14055101D02*
X2135327Y-14055101D01*
X2154375Y-14064625D01*
X2163899Y-14074149D01*
X2173423Y-14093196D01*
X2182946Y-14131292D01*
X2182946Y-14178911D01*
X2173423Y-14217006D01*
X2163899Y-14236053D01*
X2154375Y-14245577D01*
X2135327Y-14255101D01*
X2116280Y-14255101D01*
X2097232Y-14245577D01*
X2087708Y-14236053D01*
X2078184Y-14217006D01*
X2068661Y-14178911D01*
X2068661Y-14131292D01*
X2078184Y-14093196D01*
X2087708Y-14074149D01*
X2097232Y-14064625D01*
X2116280Y-14055101D01*
X2306756Y-14055101D02*
X2325804Y-14055101D01*
X2344851Y-14064625D01*
X2354375Y-14074149D01*
X2363899Y-14093196D01*
X2373423Y-14131292D01*
X2373423Y-14178911D01*
X2363899Y-14217006D01*
X2354375Y-14236053D01*
X2344851Y-14245577D01*
X2325804Y-14255101D01*
X2306756Y-14255101D01*
X2287708Y-14245577D01*
X2278185Y-14236053D01*
X2268661Y-14217006D01*
X2259137Y-14178911D01*
X2259137Y-14131292D01*
X2268661Y-14093196D01*
X2278185Y-14074149D01*
X2287708Y-14064625D01*
X2306756Y-14055101D01*
X2459137Y-14255101D02*
X2459137Y-14121768D01*
X2459137Y-14140815D02*
X2468661Y-14131292D01*
X2487708Y-14121768D01*
X2516280Y-14121768D01*
X2535327Y-14131292D01*
X2544851Y-14150339D01*
X2544851Y-14255101D01*
X2544851Y-14150339D02*
X2554375Y-14131292D01*
X2573423Y-14121768D01*
X2601994Y-14121768D01*
X2621042Y-14131292D01*
X2630565Y-14150339D01*
X2630565Y-14255101D01*
X2725804Y-14255101D02*
X2725804Y-14121768D01*
X2725804Y-14140815D02*
X2735327Y-14131292D01*
X2754375Y-14121768D01*
X2782946Y-14121768D01*
X2801994Y-14131292D01*
X2811518Y-14150339D01*
X2811518Y-14255101D01*
X2811518Y-14150339D02*
X2821042Y-14131292D01*
X2840089Y-14121768D01*
X2868661Y-14121768D01*
X2887708Y-14131292D01*
X2897232Y-14150339D01*
X2897232Y-14255101D01*
X3287708Y-14045577D02*
X3116280Y-14302720D01*
X3544851Y-14055101D02*
X3563899Y-14055101D01*
X3582946Y-14064625D01*
X3592470Y-14074149D01*
X3601994Y-14093196D01*
X3611518Y-14131292D01*
X3611518Y-14178911D01*
X3601994Y-14217006D01*
X3592470Y-14236053D01*
X3582946Y-14245577D01*
X3563899Y-14255101D01*
X3544851Y-14255101D01*
X3525803Y-14245577D01*
X3516280Y-14236053D01*
X3506756Y-14217006D01*
X3497232Y-14178911D01*
X3497232Y-14131292D01*
X3506756Y-14093196D01*
X3516280Y-14074149D01*
X3525803Y-14064625D01*
X3544851Y-14055101D01*
X3697232Y-14236053D02*
X3706756Y-14245577D01*
X3697232Y-14255101D01*
X3687708Y-14245577D01*
X3697232Y-14236053D01*
X3697232Y-14255101D01*
X3830565Y-14055101D02*
X3849613Y-14055101D01*
X3868661Y-14064625D01*
X3878184Y-14074149D01*
X3887708Y-14093196D01*
X3897232Y-14131292D01*
X3897232Y-14178911D01*
X3887708Y-14217006D01*
X3878184Y-14236053D01*
X3868661Y-14245577D01*
X3849613Y-14255101D01*
X3830565Y-14255101D01*
X3811518Y-14245577D01*
X3801994Y-14236053D01*
X3792470Y-14217006D01*
X3782946Y-14178911D01*
X3782946Y-14131292D01*
X3792470Y-14093196D01*
X3801994Y-14074149D01*
X3811518Y-14064625D01*
X3830565Y-14055101D01*
X3963899Y-14055101D02*
X4087708Y-14055101D01*
X4021042Y-14131292D01*
X4049613Y-14131292D01*
X4068661Y-14140815D01*
X4078184Y-14150339D01*
X4087708Y-14169387D01*
X4087708Y-14217006D01*
X4078184Y-14236053D01*
X4068661Y-14245577D01*
X4049613Y-14255101D01*
X3992470Y-14255101D01*
X3973423Y-14245577D01*
X3963899Y-14236053D01*
X4268661Y-14055101D02*
X4173423Y-14055101D01*
X4163899Y-14150339D01*
X4173423Y-14140815D01*
X4192470Y-14131292D01*
X4240089Y-14131292D01*
X4259137Y-14140815D01*
X4268661Y-14150339D01*
X4278185Y-14169387D01*
X4278185Y-14217006D01*
X4268661Y-14236053D01*
X4259137Y-14245577D01*
X4240089Y-14255101D01*
X4192470Y-14255101D01*
X4173423Y-14245577D01*
X4163899Y-14236053D01*
X4449613Y-14121768D02*
X4449613Y-14255101D01*
X4401994Y-14045577D02*
X4354375Y-14188434D01*
X4478185Y-14188434D01*
X4544851Y-14055101D02*
X4544851Y-14093196D01*
X4621042Y-14055101D02*
X4621042Y-14093196D01*
X4916280Y-14331292D02*
X4906756Y-14321768D01*
X4887708Y-14293196D01*
X4878185Y-14274149D01*
X4868661Y-14245577D01*
X4859137Y-14197958D01*
X4859137Y-14159863D01*
X4868661Y-14112244D01*
X4878185Y-14083673D01*
X4887708Y-14064625D01*
X4906756Y-14036053D01*
X4916280Y-14026530D01*
X4982946Y-14074149D02*
X4992470Y-14064625D01*
X5011518Y-14055101D01*
X5059137Y-14055101D01*
X5078185Y-14064625D01*
X5087708Y-14074149D01*
X5097232Y-14093196D01*
X5097232Y-14112244D01*
X5087708Y-14140815D01*
X4973423Y-14255101D01*
X5097232Y-14255101D01*
X5335327Y-14255101D02*
X5335327Y-14055101D01*
X5421042Y-14255101D02*
X5421042Y-14150339D01*
X5411518Y-14131292D01*
X5392470Y-14121768D01*
X5363899Y-14121768D01*
X5344851Y-14131292D01*
X5335327Y-14140815D01*
X5544851Y-14255101D02*
X5525804Y-14245577D01*
X5516280Y-14236053D01*
X5506756Y-14217006D01*
X5506756Y-14159863D01*
X5516280Y-14140815D01*
X5525804Y-14131292D01*
X5544851Y-14121768D01*
X5573423Y-14121768D01*
X5592470Y-14131292D01*
X5601994Y-14140815D01*
X5611518Y-14159863D01*
X5611518Y-14217006D01*
X5601994Y-14236053D01*
X5592470Y-14245577D01*
X5573423Y-14255101D01*
X5544851Y-14255101D01*
X5725803Y-14255101D02*
X5706756Y-14245577D01*
X5697232Y-14226530D01*
X5697232Y-14055101D01*
X5878184Y-14245577D02*
X5859137Y-14255101D01*
X5821042Y-14255101D01*
X5801994Y-14245577D01*
X5792470Y-14226530D01*
X5792470Y-14150339D01*
X5801994Y-14131292D01*
X5821042Y-14121768D01*
X5859137Y-14121768D01*
X5878184Y-14131292D01*
X5887708Y-14150339D01*
X5887708Y-14169387D01*
X5792470Y-14188434D01*
X5963899Y-14245577D02*
X5982946Y-14255101D01*
X6021042Y-14255101D01*
X6040089Y-14245577D01*
X6049613Y-14226530D01*
X6049613Y-14217006D01*
X6040089Y-14197958D01*
X6021042Y-14188434D01*
X5992470Y-14188434D01*
X5973423Y-14178911D01*
X5963899Y-14159863D01*
X5963899Y-14150339D01*
X5973423Y-14131292D01*
X5992470Y-14121768D01*
X6021042Y-14121768D01*
X6040089Y-14131292D01*
X6116280Y-14331292D02*
X6125803Y-14321768D01*
X6144851Y-14293196D01*
X6154375Y-14274149D01*
X6163899Y-14245577D01*
X6173423Y-14197958D01*
X6173423Y-14159863D01*
X6163899Y-14112244D01*
X6154375Y-14083673D01*
X6144851Y-14064625D01*
X6125803Y-14036053D01*
X6116280Y-14026530D01*
X6478184Y-14331292D02*
X6468661Y-14321768D01*
X6449613Y-14293196D01*
X6440089Y-14274149D01*
X6430565Y-14245577D01*
X6421042Y-14197958D01*
X6421042Y-14159863D01*
X6430565Y-14112244D01*
X6440089Y-14083673D01*
X6449613Y-14064625D01*
X6468661Y-14036053D01*
X6478184Y-14026530D01*
X6554375Y-14121768D02*
X6554375Y-14255101D01*
X6554375Y-14140815D02*
X6563899Y-14131292D01*
X6582946Y-14121768D01*
X6611518Y-14121768D01*
X6630565Y-14131292D01*
X6640089Y-14150339D01*
X6640089Y-14255101D01*
X6763899Y-14255101D02*
X6744851Y-14245577D01*
X6735327Y-14236053D01*
X6725803Y-14217006D01*
X6725803Y-14159863D01*
X6735327Y-14140815D01*
X6744851Y-14131292D01*
X6763899Y-14121768D01*
X6792470Y-14121768D01*
X6811518Y-14131292D01*
X6821042Y-14140815D01*
X6830565Y-14159863D01*
X6830565Y-14217006D01*
X6821042Y-14236053D01*
X6811518Y-14245577D01*
X6792470Y-14255101D01*
X6763899Y-14255101D01*
X6887708Y-14121768D02*
X6963899Y-14121768D01*
X6916280Y-14055101D02*
X6916280Y-14226530D01*
X6925803Y-14245577D01*
X6944851Y-14255101D01*
X6963899Y-14255101D01*
X7182946Y-14121768D02*
X7182946Y-14321768D01*
X7182946Y-14131292D02*
X7201994Y-14121768D01*
X7240089Y-14121768D01*
X7259137Y-14131292D01*
X7268661Y-14140815D01*
X7278184Y-14159863D01*
X7278184Y-14217006D01*
X7268661Y-14236053D01*
X7259137Y-14245577D01*
X7240089Y-14255101D01*
X7201994Y-14255101D01*
X7182946Y-14245577D01*
X7392470Y-14255101D02*
X7373423Y-14245577D01*
X7363899Y-14226530D01*
X7363899Y-14055101D01*
X7554375Y-14255101D02*
X7554375Y-14150339D01*
X7544851Y-14131292D01*
X7525803Y-14121768D01*
X7487708Y-14121768D01*
X7468661Y-14131292D01*
X7554375Y-14245577D02*
X7535327Y-14255101D01*
X7487708Y-14255101D01*
X7468661Y-14245577D01*
X7459137Y-14226530D01*
X7459137Y-14207482D01*
X7468661Y-14188434D01*
X7487708Y-14178911D01*
X7535327Y-14178911D01*
X7554375Y-14169387D01*
X7621042Y-14121768D02*
X7697232Y-14121768D01*
X7649613Y-14055101D02*
X7649613Y-14226530D01*
X7659137Y-14245577D01*
X7678184Y-14255101D01*
X7697232Y-14255101D01*
X7840089Y-14245577D02*
X7821042Y-14255101D01*
X7782946Y-14255101D01*
X7763899Y-14245577D01*
X7754375Y-14226530D01*
X7754375Y-14150339D01*
X7763899Y-14131292D01*
X7782946Y-14121768D01*
X7821042Y-14121768D01*
X7840089Y-14131292D01*
X7849613Y-14150339D01*
X7849613Y-14169387D01*
X7754375Y-14188434D01*
X8021042Y-14255101D02*
X8021042Y-14055101D01*
X8021042Y-14245577D02*
X8001994Y-14255101D01*
X7963899Y-14255101D01*
X7944851Y-14245577D01*
X7935327Y-14236053D01*
X7925803Y-14217006D01*
X7925803Y-14159863D01*
X7935327Y-14140815D01*
X7944851Y-14131292D01*
X7963899Y-14121768D01*
X8001994Y-14121768D01*
X8021042Y-14131292D01*
X8097232Y-14331292D02*
X8106756Y-14321768D01*
X8125803Y-14293196D01*
X8135327Y-14274149D01*
X8144851Y-14245577D01*
X8154375Y-14197958D01*
X8154375Y-14159863D01*
X8144851Y-14112244D01*
X8135327Y-14083673D01*
X8125803Y-14064625D01*
X8106756Y-14036053D01*
X8097232Y-14026530D01*
D14*
X1256875Y-14341125D02*
X1256875Y-14516125D01*
X1169375Y-14428625D02*
X1344375Y-14428625D01*
D11*
X1706756Y-14519101D02*
X1592470Y-14519101D01*
X1649613Y-14519101D02*
X1649613Y-14319101D01*
X1630565Y-14347673D01*
X1611518Y-14366720D01*
X1592470Y-14376244D01*
X1792470Y-14500053D02*
X1801994Y-14509577D01*
X1792470Y-14519101D01*
X1782946Y-14509577D01*
X1792470Y-14500053D01*
X1792470Y-14519101D01*
X1868661Y-14319101D02*
X2001994Y-14319101D01*
X1916280Y-14519101D01*
X2173423Y-14319101D02*
X2078184Y-14319101D01*
X2068661Y-14414339D01*
X2078184Y-14404815D01*
X2097232Y-14395292D01*
X2144851Y-14395292D01*
X2163899Y-14404815D01*
X2173423Y-14414339D01*
X2182946Y-14433387D01*
X2182946Y-14481006D01*
X2173423Y-14500053D01*
X2163899Y-14509577D01*
X2144851Y-14519101D01*
X2097232Y-14519101D01*
X2078184Y-14509577D01*
X2068661Y-14500053D01*
X2306756Y-14319101D02*
X2325804Y-14319101D01*
X2344851Y-14328625D01*
X2354375Y-14338149D01*
X2363899Y-14357196D01*
X2373423Y-14395292D01*
X2373423Y-14442911D01*
X2363899Y-14481006D01*
X2354375Y-14500053D01*
X2344851Y-14509577D01*
X2325804Y-14519101D01*
X2306756Y-14519101D01*
X2287708Y-14509577D01*
X2278185Y-14500053D01*
X2268661Y-14481006D01*
X2259137Y-14442911D01*
X2259137Y-14395292D01*
X2268661Y-14357196D01*
X2278185Y-14338149D01*
X2287708Y-14328625D01*
X2306756Y-14319101D01*
X2459137Y-14519101D02*
X2459137Y-14385768D01*
X2459137Y-14404815D02*
X2468661Y-14395292D01*
X2487708Y-14385768D01*
X2516280Y-14385768D01*
X2535327Y-14395292D01*
X2544851Y-14414339D01*
X2544851Y-14519101D01*
X2544851Y-14414339D02*
X2554375Y-14395292D01*
X2573423Y-14385768D01*
X2601994Y-14385768D01*
X2621042Y-14395292D01*
X2630565Y-14414339D01*
X2630565Y-14519101D01*
X2725804Y-14519101D02*
X2725804Y-14385768D01*
X2725804Y-14404815D02*
X2735327Y-14395292D01*
X2754375Y-14385768D01*
X2782946Y-14385768D01*
X2801994Y-14395292D01*
X2811518Y-14414339D01*
X2811518Y-14519101D01*
X2811518Y-14414339D02*
X2821042Y-14395292D01*
X2840089Y-14385768D01*
X2868661Y-14385768D01*
X2887708Y-14395292D01*
X2897232Y-14414339D01*
X2897232Y-14519101D01*
X3287708Y-14309577D02*
X3116280Y-14566720D01*
X3544851Y-14319101D02*
X3563899Y-14319101D01*
X3582946Y-14328625D01*
X3592470Y-14338149D01*
X3601994Y-14357196D01*
X3611518Y-14395292D01*
X3611518Y-14442911D01*
X3601994Y-14481006D01*
X3592470Y-14500053D01*
X3582946Y-14509577D01*
X3563899Y-14519101D01*
X3544851Y-14519101D01*
X3525803Y-14509577D01*
X3516280Y-14500053D01*
X3506756Y-14481006D01*
X3497232Y-14442911D01*
X3497232Y-14395292D01*
X3506756Y-14357196D01*
X3516280Y-14338149D01*
X3525803Y-14328625D01*
X3544851Y-14319101D01*
X3697232Y-14500053D02*
X3706756Y-14509577D01*
X3697232Y-14519101D01*
X3687708Y-14509577D01*
X3697232Y-14500053D01*
X3697232Y-14519101D01*
X3830565Y-14319101D02*
X3849613Y-14319101D01*
X3868661Y-14328625D01*
X3878184Y-14338149D01*
X3887708Y-14357196D01*
X3897232Y-14395292D01*
X3897232Y-14442911D01*
X3887708Y-14481006D01*
X3878184Y-14500053D01*
X3868661Y-14509577D01*
X3849613Y-14519101D01*
X3830565Y-14519101D01*
X3811518Y-14509577D01*
X3801994Y-14500053D01*
X3792470Y-14481006D01*
X3782946Y-14442911D01*
X3782946Y-14395292D01*
X3792470Y-14357196D01*
X3801994Y-14338149D01*
X3811518Y-14328625D01*
X3830565Y-14319101D01*
X4068661Y-14319101D02*
X4030565Y-14319101D01*
X4011518Y-14328625D01*
X4001994Y-14338149D01*
X3982946Y-14366720D01*
X3973423Y-14404815D01*
X3973423Y-14481006D01*
X3982946Y-14500053D01*
X3992470Y-14509577D01*
X4011518Y-14519101D01*
X4049613Y-14519101D01*
X4068661Y-14509577D01*
X4078184Y-14500053D01*
X4087708Y-14481006D01*
X4087708Y-14433387D01*
X4078184Y-14414339D01*
X4068661Y-14404815D01*
X4049613Y-14395292D01*
X4011518Y-14395292D01*
X3992470Y-14404815D01*
X3982946Y-14414339D01*
X3973423Y-14433387D01*
X4201994Y-14404815D02*
X4182946Y-14395292D01*
X4173423Y-14385768D01*
X4163899Y-14366720D01*
X4163899Y-14357196D01*
X4173423Y-14338149D01*
X4182946Y-14328625D01*
X4201994Y-14319101D01*
X4240089Y-14319101D01*
X4259137Y-14328625D01*
X4268661Y-14338149D01*
X4278185Y-14357196D01*
X4278185Y-14366720D01*
X4268661Y-14385768D01*
X4259137Y-14395292D01*
X4240089Y-14404815D01*
X4201994Y-14404815D01*
X4182946Y-14414339D01*
X4173423Y-14423863D01*
X4163899Y-14442911D01*
X4163899Y-14481006D01*
X4173423Y-14500053D01*
X4182946Y-14509577D01*
X4201994Y-14519101D01*
X4240089Y-14519101D01*
X4259137Y-14509577D01*
X4268661Y-14500053D01*
X4278185Y-14481006D01*
X4278185Y-14442911D01*
X4268661Y-14423863D01*
X4259137Y-14414339D01*
X4240089Y-14404815D01*
X4373423Y-14519101D02*
X4411518Y-14519101D01*
X4430565Y-14509577D01*
X4440089Y-14500053D01*
X4459137Y-14471482D01*
X4468661Y-14433387D01*
X4468661Y-14357196D01*
X4459137Y-14338149D01*
X4449613Y-14328625D01*
X4430565Y-14319101D01*
X4392470Y-14319101D01*
X4373423Y-14328625D01*
X4363899Y-14338149D01*
X4354375Y-14357196D01*
X4354375Y-14404815D01*
X4363899Y-14423863D01*
X4373423Y-14433387D01*
X4392470Y-14442911D01*
X4430565Y-14442911D01*
X4449613Y-14433387D01*
X4459137Y-14423863D01*
X4468661Y-14404815D01*
X4544851Y-14319101D02*
X4544851Y-14357196D01*
X4621042Y-14319101D02*
X4621042Y-14357196D01*
X4916280Y-14595292D02*
X4906756Y-14585768D01*
X4887708Y-14557196D01*
X4878185Y-14538149D01*
X4868661Y-14509577D01*
X4859137Y-14461958D01*
X4859137Y-14423863D01*
X4868661Y-14376244D01*
X4878185Y-14347673D01*
X4887708Y-14328625D01*
X4906756Y-14300053D01*
X4916280Y-14290530D01*
X5097232Y-14519101D02*
X4982946Y-14519101D01*
X5040089Y-14519101D02*
X5040089Y-14319101D01*
X5021042Y-14347673D01*
X5001994Y-14366720D01*
X4982946Y-14376244D01*
X5173423Y-14338149D02*
X5182946Y-14328625D01*
X5201994Y-14319101D01*
X5249613Y-14319101D01*
X5268661Y-14328625D01*
X5278185Y-14338149D01*
X5287708Y-14357196D01*
X5287708Y-14376244D01*
X5278185Y-14404815D01*
X5163899Y-14519101D01*
X5287708Y-14519101D01*
X5459137Y-14319101D02*
X5421042Y-14319101D01*
X5401994Y-14328625D01*
X5392470Y-14338149D01*
X5373423Y-14366720D01*
X5363899Y-14404815D01*
X5363899Y-14481006D01*
X5373423Y-14500053D01*
X5382946Y-14509577D01*
X5401994Y-14519101D01*
X5440089Y-14519101D01*
X5459137Y-14509577D01*
X5468661Y-14500053D01*
X5478185Y-14481006D01*
X5478185Y-14433387D01*
X5468661Y-14414339D01*
X5459137Y-14404815D01*
X5440089Y-14395292D01*
X5401994Y-14395292D01*
X5382946Y-14404815D01*
X5373423Y-14414339D01*
X5363899Y-14433387D01*
X5716280Y-14519101D02*
X5716280Y-14319101D01*
X5801994Y-14519101D02*
X5801994Y-14414339D01*
X5792470Y-14395292D01*
X5773423Y-14385768D01*
X5744851Y-14385768D01*
X5725803Y-14395292D01*
X5716280Y-14404815D01*
X5925803Y-14519101D02*
X5906756Y-14509577D01*
X5897232Y-14500053D01*
X5887708Y-14481006D01*
X5887708Y-14423863D01*
X5897232Y-14404815D01*
X5906756Y-14395292D01*
X5925803Y-14385768D01*
X5954375Y-14385768D01*
X5973423Y-14395292D01*
X5982946Y-14404815D01*
X5992470Y-14423863D01*
X5992470Y-14481006D01*
X5982946Y-14500053D01*
X5973423Y-14509577D01*
X5954375Y-14519101D01*
X5925803Y-14519101D01*
X6106756Y-14519101D02*
X6087708Y-14509577D01*
X6078184Y-14490530D01*
X6078184Y-14319101D01*
X6259137Y-14509577D02*
X6240089Y-14519101D01*
X6201994Y-14519101D01*
X6182946Y-14509577D01*
X6173423Y-14490530D01*
X6173423Y-14414339D01*
X6182946Y-14395292D01*
X6201994Y-14385768D01*
X6240089Y-14385768D01*
X6259137Y-14395292D01*
X6268661Y-14414339D01*
X6268661Y-14433387D01*
X6173423Y-14452434D01*
X6344851Y-14509577D02*
X6363899Y-14519101D01*
X6401994Y-14519101D01*
X6421042Y-14509577D01*
X6430565Y-14490530D01*
X6430565Y-14481006D01*
X6421042Y-14461958D01*
X6401994Y-14452434D01*
X6373423Y-14452434D01*
X6354375Y-14442911D01*
X6344851Y-14423863D01*
X6344851Y-14414339D01*
X6354375Y-14395292D01*
X6373423Y-14385768D01*
X6401994Y-14385768D01*
X6421042Y-14395292D01*
X6497232Y-14595292D02*
X6506756Y-14585768D01*
X6525803Y-14557196D01*
X6535327Y-14538149D01*
X6544851Y-14509577D01*
X6554375Y-14461958D01*
X6554375Y-14423863D01*
X6544851Y-14376244D01*
X6535327Y-14347673D01*
X6525803Y-14328625D01*
X6506756Y-14300053D01*
X6497232Y-14290530D01*
X6859137Y-14595292D02*
X6849613Y-14585768D01*
X6830565Y-14557196D01*
X6821042Y-14538149D01*
X6811518Y-14509577D01*
X6801994Y-14461958D01*
X6801994Y-14423863D01*
X6811518Y-14376244D01*
X6821042Y-14347673D01*
X6830565Y-14328625D01*
X6849613Y-14300053D01*
X6859137Y-14290530D01*
X6935327Y-14385768D02*
X6935327Y-14519101D01*
X6935327Y-14404815D02*
X6944851Y-14395292D01*
X6963899Y-14385768D01*
X6992470Y-14385768D01*
X7011518Y-14395292D01*
X7021042Y-14414339D01*
X7021042Y-14519101D01*
X7144851Y-14519101D02*
X7125803Y-14509577D01*
X7116280Y-14500053D01*
X7106756Y-14481006D01*
X7106756Y-14423863D01*
X7116280Y-14404815D01*
X7125803Y-14395292D01*
X7144851Y-14385768D01*
X7173423Y-14385768D01*
X7192470Y-14395292D01*
X7201994Y-14404815D01*
X7211518Y-14423863D01*
X7211518Y-14481006D01*
X7201994Y-14500053D01*
X7192470Y-14509577D01*
X7173423Y-14519101D01*
X7144851Y-14519101D01*
X7268661Y-14385768D02*
X7344851Y-14385768D01*
X7297232Y-14319101D02*
X7297232Y-14490530D01*
X7306756Y-14509577D01*
X7325803Y-14519101D01*
X7344851Y-14519101D01*
X7563899Y-14385768D02*
X7563899Y-14585768D01*
X7563899Y-14395292D02*
X7582946Y-14385768D01*
X7621042Y-14385768D01*
X7640089Y-14395292D01*
X7649613Y-14404815D01*
X7659137Y-14423863D01*
X7659137Y-14481006D01*
X7649613Y-14500053D01*
X7640089Y-14509577D01*
X7621042Y-14519101D01*
X7582946Y-14519101D01*
X7563899Y-14509577D01*
X7773423Y-14519101D02*
X7754375Y-14509577D01*
X7744851Y-14490530D01*
X7744851Y-14319101D01*
X7935327Y-14519101D02*
X7935327Y-14414339D01*
X7925803Y-14395292D01*
X7906756Y-14385768D01*
X7868661Y-14385768D01*
X7849613Y-14395292D01*
X7935327Y-14509577D02*
X7916280Y-14519101D01*
X7868661Y-14519101D01*
X7849613Y-14509577D01*
X7840089Y-14490530D01*
X7840089Y-14471482D01*
X7849613Y-14452434D01*
X7868661Y-14442911D01*
X7916280Y-14442911D01*
X7935327Y-14433387D01*
X8001994Y-14385768D02*
X8078184Y-14385768D01*
X8030565Y-14319101D02*
X8030565Y-14490530D01*
X8040089Y-14509577D01*
X8059137Y-14519101D01*
X8078184Y-14519101D01*
X8221042Y-14509577D02*
X8201994Y-14519101D01*
X8163899Y-14519101D01*
X8144851Y-14509577D01*
X8135327Y-14490530D01*
X8135327Y-14414339D01*
X8144851Y-14395292D01*
X8163899Y-14385768D01*
X8201994Y-14385768D01*
X8221042Y-14395292D01*
X8230565Y-14414339D01*
X8230565Y-14433387D01*
X8135327Y-14452434D01*
X8401994Y-14519101D02*
X8401994Y-14319101D01*
X8401994Y-14509577D02*
X8382946Y-14519101D01*
X8344851Y-14519101D01*
X8325803Y-14509577D01*
X8316280Y-14500053D01*
X8306756Y-14481006D01*
X8306756Y-14423863D01*
X8316280Y-14404815D01*
X8325803Y-14395292D01*
X8344851Y-14385768D01*
X8382946Y-14385768D01*
X8401994Y-14395292D01*
X8478185Y-14595292D02*
X8487708Y-14585768D01*
X8506756Y-14557196D01*
X8516280Y-14538149D01*
X8525804Y-14509577D01*
X8535327Y-14461958D01*
X8535327Y-14423863D01*
X8525804Y-14376244D01*
X8516280Y-14347673D01*
X8506756Y-14328625D01*
X8487708Y-14300053D01*
X8478185Y-14290530D01*
X1315086Y-14794336D02*
X1315086Y-14652914D01*
X1173664Y-14652914D01*
X1173664Y-14794336D01*
X1315086Y-14794336D01*
X1582946Y-14614101D02*
X1706756Y-14614101D01*
X1640089Y-14690292D01*
X1668661Y-14690292D01*
X1687708Y-14699815D01*
X1697232Y-14709339D01*
X1706756Y-14728387D01*
X1706756Y-14776006D01*
X1697232Y-14795053D01*
X1687708Y-14804577D01*
X1668661Y-14814101D01*
X1611518Y-14814101D01*
X1592470Y-14804577D01*
X1582946Y-14795053D01*
X1792470Y-14795053D02*
X1801994Y-14804577D01*
X1792470Y-14814101D01*
X1782946Y-14804577D01*
X1792470Y-14795053D01*
X1792470Y-14814101D01*
X1897232Y-14814101D02*
X1935327Y-14814101D01*
X1954375Y-14804577D01*
X1963899Y-14795053D01*
X1982946Y-14766482D01*
X1992470Y-14728387D01*
X1992470Y-14652196D01*
X1982946Y-14633149D01*
X1973423Y-14623625D01*
X1954375Y-14614101D01*
X1916280Y-14614101D01*
X1897232Y-14623625D01*
X1887708Y-14633149D01*
X1878184Y-14652196D01*
X1878184Y-14699815D01*
X1887708Y-14718863D01*
X1897232Y-14728387D01*
X1916280Y-14737911D01*
X1954375Y-14737911D01*
X1973423Y-14728387D01*
X1982946Y-14718863D01*
X1992470Y-14699815D01*
X2106756Y-14699815D02*
X2087708Y-14690292D01*
X2078184Y-14680768D01*
X2068661Y-14661720D01*
X2068661Y-14652196D01*
X2078184Y-14633149D01*
X2087708Y-14623625D01*
X2106756Y-14614101D01*
X2144851Y-14614101D01*
X2163899Y-14623625D01*
X2173423Y-14633149D01*
X2182946Y-14652196D01*
X2182946Y-14661720D01*
X2173423Y-14680768D01*
X2163899Y-14690292D01*
X2144851Y-14699815D01*
X2106756Y-14699815D01*
X2087708Y-14709339D01*
X2078184Y-14718863D01*
X2068661Y-14737911D01*
X2068661Y-14776006D01*
X2078184Y-14795053D01*
X2087708Y-14804577D01*
X2106756Y-14814101D01*
X2144851Y-14814101D01*
X2163899Y-14804577D01*
X2173423Y-14795053D01*
X2182946Y-14776006D01*
X2182946Y-14737911D01*
X2173423Y-14718863D01*
X2163899Y-14709339D01*
X2144851Y-14699815D01*
X2297232Y-14699815D02*
X2278185Y-14690292D01*
X2268661Y-14680768D01*
X2259137Y-14661720D01*
X2259137Y-14652196D01*
X2268661Y-14633149D01*
X2278185Y-14623625D01*
X2297232Y-14614101D01*
X2335327Y-14614101D01*
X2354375Y-14623625D01*
X2363899Y-14633149D01*
X2373423Y-14652196D01*
X2373423Y-14661720D01*
X2363899Y-14680768D01*
X2354375Y-14690292D01*
X2335327Y-14699815D01*
X2297232Y-14699815D01*
X2278185Y-14709339D01*
X2268661Y-14718863D01*
X2259137Y-14737911D01*
X2259137Y-14776006D01*
X2268661Y-14795053D01*
X2278185Y-14804577D01*
X2297232Y-14814101D01*
X2335327Y-14814101D01*
X2354375Y-14804577D01*
X2363899Y-14795053D01*
X2373423Y-14776006D01*
X2373423Y-14737911D01*
X2363899Y-14718863D01*
X2354375Y-14709339D01*
X2335327Y-14699815D01*
X2459137Y-14814101D02*
X2459137Y-14680768D01*
X2459137Y-14699815D02*
X2468661Y-14690292D01*
X2487708Y-14680768D01*
X2516280Y-14680768D01*
X2535327Y-14690292D01*
X2544851Y-14709339D01*
X2544851Y-14814101D01*
X2544851Y-14709339D02*
X2554375Y-14690292D01*
X2573423Y-14680768D01*
X2601994Y-14680768D01*
X2621042Y-14690292D01*
X2630565Y-14709339D01*
X2630565Y-14814101D01*
X2725804Y-14814101D02*
X2725804Y-14680768D01*
X2725804Y-14699815D02*
X2735327Y-14690292D01*
X2754375Y-14680768D01*
X2782946Y-14680768D01*
X2801994Y-14690292D01*
X2811518Y-14709339D01*
X2811518Y-14814101D01*
X2811518Y-14709339D02*
X2821042Y-14690292D01*
X2840089Y-14680768D01*
X2868661Y-14680768D01*
X2887708Y-14690292D01*
X2897232Y-14709339D01*
X2897232Y-14814101D01*
X3287708Y-14604577D02*
X3116280Y-14861720D01*
X3544851Y-14614101D02*
X3563899Y-14614101D01*
X3582946Y-14623625D01*
X3592470Y-14633149D01*
X3601994Y-14652196D01*
X3611518Y-14690292D01*
X3611518Y-14737911D01*
X3601994Y-14776006D01*
X3592470Y-14795053D01*
X3582946Y-14804577D01*
X3563899Y-14814101D01*
X3544851Y-14814101D01*
X3525803Y-14804577D01*
X3516280Y-14795053D01*
X3506756Y-14776006D01*
X3497232Y-14737911D01*
X3497232Y-14690292D01*
X3506756Y-14652196D01*
X3516280Y-14633149D01*
X3525803Y-14623625D01*
X3544851Y-14614101D01*
X3697232Y-14795053D02*
X3706756Y-14804577D01*
X3697232Y-14814101D01*
X3687708Y-14804577D01*
X3697232Y-14795053D01*
X3697232Y-14814101D01*
X3897232Y-14814101D02*
X3782946Y-14814101D01*
X3840089Y-14814101D02*
X3840089Y-14614101D01*
X3821042Y-14642673D01*
X3801994Y-14661720D01*
X3782946Y-14671244D01*
X4078184Y-14614101D02*
X3982946Y-14614101D01*
X3973423Y-14709339D01*
X3982946Y-14699815D01*
X4001994Y-14690292D01*
X4049613Y-14690292D01*
X4068661Y-14699815D01*
X4078184Y-14709339D01*
X4087708Y-14728387D01*
X4087708Y-14776006D01*
X4078184Y-14795053D01*
X4068661Y-14804577D01*
X4049613Y-14814101D01*
X4001994Y-14814101D01*
X3982946Y-14804577D01*
X3973423Y-14795053D01*
X4154375Y-14614101D02*
X4287708Y-14614101D01*
X4201994Y-14814101D01*
X4401994Y-14614101D02*
X4421042Y-14614101D01*
X4440089Y-14623625D01*
X4449613Y-14633149D01*
X4459137Y-14652196D01*
X4468661Y-14690292D01*
X4468661Y-14737911D01*
X4459137Y-14776006D01*
X4449613Y-14795053D01*
X4440089Y-14804577D01*
X4421042Y-14814101D01*
X4401994Y-14814101D01*
X4382946Y-14804577D01*
X4373423Y-14795053D01*
X4363899Y-14776006D01*
X4354375Y-14737911D01*
X4354375Y-14690292D01*
X4363899Y-14652196D01*
X4373423Y-14633149D01*
X4382946Y-14623625D01*
X4401994Y-14614101D01*
X4544851Y-14614101D02*
X4544851Y-14652196D01*
X4621042Y-14614101D02*
X4621042Y-14652196D01*
X4916280Y-14890292D02*
X4906756Y-14880768D01*
X4887708Y-14852196D01*
X4878185Y-14833149D01*
X4868661Y-14804577D01*
X4859137Y-14756958D01*
X4859137Y-14718863D01*
X4868661Y-14671244D01*
X4878185Y-14642673D01*
X4887708Y-14623625D01*
X4906756Y-14595053D01*
X4916280Y-14585530D01*
X4973423Y-14614101D02*
X5106756Y-14614101D01*
X5021042Y-14814101D01*
X5287708Y-14814101D02*
X5173423Y-14814101D01*
X5230565Y-14814101D02*
X5230565Y-14614101D01*
X5211518Y-14642673D01*
X5192470Y-14661720D01*
X5173423Y-14671244D01*
X5525804Y-14814101D02*
X5525804Y-14614101D01*
X5611518Y-14814101D02*
X5611518Y-14709339D01*
X5601994Y-14690292D01*
X5582946Y-14680768D01*
X5554375Y-14680768D01*
X5535327Y-14690292D01*
X5525804Y-14699815D01*
X5735327Y-14814101D02*
X5716280Y-14804577D01*
X5706756Y-14795053D01*
X5697232Y-14776006D01*
X5697232Y-14718863D01*
X5706756Y-14699815D01*
X5716280Y-14690292D01*
X5735327Y-14680768D01*
X5763899Y-14680768D01*
X5782946Y-14690292D01*
X5792470Y-14699815D01*
X5801994Y-14718863D01*
X5801994Y-14776006D01*
X5792470Y-14795053D01*
X5782946Y-14804577D01*
X5763899Y-14814101D01*
X5735327Y-14814101D01*
X5916280Y-14814101D02*
X5897232Y-14804577D01*
X5887708Y-14785530D01*
X5887708Y-14614101D01*
X6068661Y-14804577D02*
X6049613Y-14814101D01*
X6011518Y-14814101D01*
X5992470Y-14804577D01*
X5982946Y-14785530D01*
X5982946Y-14709339D01*
X5992470Y-14690292D01*
X6011518Y-14680768D01*
X6049613Y-14680768D01*
X6068661Y-14690292D01*
X6078184Y-14709339D01*
X6078184Y-14728387D01*
X5982946Y-14747434D01*
X6154375Y-14804577D02*
X6173423Y-14814101D01*
X6211518Y-14814101D01*
X6230565Y-14804577D01*
X6240089Y-14785530D01*
X6240089Y-14776006D01*
X6230565Y-14756958D01*
X6211518Y-14747434D01*
X6182946Y-14747434D01*
X6163899Y-14737911D01*
X6154375Y-14718863D01*
X6154375Y-14709339D01*
X6163899Y-14690292D01*
X6182946Y-14680768D01*
X6211518Y-14680768D01*
X6230565Y-14690292D01*
X6306756Y-14890292D02*
X6316280Y-14880768D01*
X6335327Y-14852196D01*
X6344851Y-14833149D01*
X6354375Y-14804577D01*
X6363899Y-14756958D01*
X6363899Y-14718863D01*
X6354375Y-14671244D01*
X6344851Y-14642673D01*
X6335327Y-14623625D01*
X6316280Y-14595053D01*
X6306756Y-14585530D01*
X6668661Y-14890292D02*
X6659137Y-14880768D01*
X6640089Y-14852196D01*
X6630565Y-14833149D01*
X6621042Y-14804577D01*
X6611518Y-14756958D01*
X6611518Y-14718863D01*
X6621042Y-14671244D01*
X6630565Y-14642673D01*
X6640089Y-14623625D01*
X6659137Y-14595053D01*
X6668661Y-14585530D01*
X6744851Y-14680768D02*
X6744851Y-14814101D01*
X6744851Y-14699815D02*
X6754375Y-14690292D01*
X6773423Y-14680768D01*
X6801994Y-14680768D01*
X6821042Y-14690292D01*
X6830565Y-14709339D01*
X6830565Y-14814101D01*
X6954375Y-14814101D02*
X6935327Y-14804577D01*
X6925803Y-14795053D01*
X6916280Y-14776006D01*
X6916280Y-14718863D01*
X6925803Y-14699815D01*
X6935327Y-14690292D01*
X6954375Y-14680768D01*
X6982946Y-14680768D01*
X7001994Y-14690292D01*
X7011518Y-14699815D01*
X7021042Y-14718863D01*
X7021042Y-14776006D01*
X7011518Y-14795053D01*
X7001994Y-14804577D01*
X6982946Y-14814101D01*
X6954375Y-14814101D01*
X7078184Y-14680768D02*
X7154375Y-14680768D01*
X7106756Y-14614101D02*
X7106756Y-14785530D01*
X7116280Y-14804577D01*
X7135327Y-14814101D01*
X7154375Y-14814101D01*
X7373423Y-14680768D02*
X7373423Y-14880768D01*
X7373423Y-14690292D02*
X7392470Y-14680768D01*
X7430565Y-14680768D01*
X7449613Y-14690292D01*
X7459137Y-14699815D01*
X7468661Y-14718863D01*
X7468661Y-14776006D01*
X7459137Y-14795053D01*
X7449613Y-14804577D01*
X7430565Y-14814101D01*
X7392470Y-14814101D01*
X7373423Y-14804577D01*
X7582946Y-14814101D02*
X7563899Y-14804577D01*
X7554375Y-14785530D01*
X7554375Y-14614101D01*
X7744851Y-14814101D02*
X7744851Y-14709339D01*
X7735327Y-14690292D01*
X7716280Y-14680768D01*
X7678184Y-14680768D01*
X7659137Y-14690292D01*
X7744851Y-14804577D02*
X7725803Y-14814101D01*
X7678184Y-14814101D01*
X7659137Y-14804577D01*
X7649613Y-14785530D01*
X7649613Y-14766482D01*
X7659137Y-14747434D01*
X7678184Y-14737911D01*
X7725803Y-14737911D01*
X7744851Y-14728387D01*
X7811518Y-14680768D02*
X7887708Y-14680768D01*
X7840089Y-14614101D02*
X7840089Y-14785530D01*
X7849613Y-14804577D01*
X7868661Y-14814101D01*
X7887708Y-14814101D01*
X8030565Y-14804577D02*
X8011518Y-14814101D01*
X7973423Y-14814101D01*
X7954375Y-14804577D01*
X7944851Y-14785530D01*
X7944851Y-14709339D01*
X7954375Y-14690292D01*
X7973423Y-14680768D01*
X8011518Y-14680768D01*
X8030565Y-14690292D01*
X8040089Y-14709339D01*
X8040089Y-14728387D01*
X7944851Y-14747434D01*
X8211518Y-14814101D02*
X8211518Y-14614101D01*
X8211518Y-14804577D02*
X8192470Y-14814101D01*
X8154375Y-14814101D01*
X8135327Y-14804577D01*
X8125803Y-14795053D01*
X8116280Y-14776006D01*
X8116280Y-14718863D01*
X8125803Y-14699815D01*
X8135327Y-14690292D01*
X8154375Y-14680768D01*
X8192470Y-14680768D01*
X8211518Y-14690292D01*
X8287708Y-14890292D02*
X8297232Y-14880768D01*
X8316280Y-14852196D01*
X8325803Y-14833149D01*
X8335327Y-14804577D01*
X8344851Y-14756958D01*
X8344851Y-14718863D01*
X8335327Y-14671244D01*
X8325803Y-14642673D01*
X8316280Y-14623625D01*
X8297232Y-14595053D01*
X8287708Y-14585530D01*
M02*
