G04 #@! TF.GenerationSoftware,KiCad,Pcbnew,(6.0.10)*
G04 #@! TF.CreationDate,2023-09-30T09:28:11-05:00*
G04 #@! TF.ProjectId,RunTypeV3,52756e54-7970-4655-9633-2e6b69636164,rev?*
G04 #@! TF.SameCoordinates,Original*
G04 #@! TF.FileFunction,Soldermask,Bot*
G04 #@! TF.FilePolarity,Negative*
%FSLAX46Y46*%
G04 Gerber Fmt 4.6, Leading zero omitted, Abs format (unit mm)*
G04 Created by KiCad (PCBNEW (6.0.10)) date 2023-09-30 09:28:11*
%MOMM*%
%LPD*%
G01*
G04 APERTURE LIST*
G04 Aperture macros list*
%AMRoundRect*
0 Rectangle with rounded corners*
0 $1 Rounding radius*
0 $2 $3 $4 $5 $6 $7 $8 $9 X,Y pos of 4 corners*
0 Add a 4 corners polygon primitive as box body*
4,1,4,$2,$3,$4,$5,$6,$7,$8,$9,$2,$3,0*
0 Add four circle primitives for the rounded corners*
1,1,$1+$1,$2,$3*
1,1,$1+$1,$4,$5*
1,1,$1+$1,$6,$7*
1,1,$1+$1,$8,$9*
0 Add four rect primitives between the rounded corners*
20,1,$1+$1,$2,$3,$4,$5,0*
20,1,$1+$1,$4,$5,$6,$7,0*
20,1,$1+$1,$6,$7,$8,$9,0*
20,1,$1+$1,$8,$9,$2,$3,0*%
G04 Aperture macros list end*
%ADD10C,0.000000*%
%ADD11R,1.600000X1.600000*%
%ADD12O,1.600000X1.600000*%
%ADD13C,1.397000*%
%ADD14C,0.750000*%
%ADD15C,0.700000*%
%ADD16C,4.400000*%
%ADD17C,1.752600*%
%ADD18C,1.000000*%
%ADD19C,4.000000*%
%ADD20C,3.987800*%
%ADD21C,5.000000*%
%ADD22C,2.000000*%
%ADD23C,1.750000*%
%ADD24RoundRect,0.250000X1.025000X1.000000X-1.025000X1.000000X-1.025000X-1.000000X1.025000X-1.000000X0*%
%ADD25C,3.300000*%
%ADD26RoundRect,0.250000X0.350000X0.625000X-0.350000X0.625000X-0.350000X-0.625000X0.350000X-0.625000X0*%
%ADD27O,1.200000X1.750000*%
G04 APERTURE END LIST*
D10*
G36*
X181588012Y-119459694D02*
G01*
X181598841Y-119472608D01*
X181609158Y-119485367D01*
X181628072Y-119510047D01*
X181644381Y-119532992D01*
X181657714Y-119553455D01*
X181663148Y-119562525D01*
X181667698Y-119570695D01*
X181671318Y-119577872D01*
X181673961Y-119583965D01*
X181675581Y-119588879D01*
X181676131Y-119592523D01*
X181676347Y-119594256D01*
X181676985Y-119596471D01*
X181679490Y-119602279D01*
X181683561Y-119609824D01*
X181689112Y-119618981D01*
X181696059Y-119629627D01*
X181704315Y-119641636D01*
X181713797Y-119654886D01*
X181724417Y-119669252D01*
X181736092Y-119684611D01*
X181748736Y-119700837D01*
X181776589Y-119735398D01*
X181791629Y-119753485D01*
X181807296Y-119771944D01*
X181823505Y-119790651D01*
X181840172Y-119809482D01*
X181875922Y-119851112D01*
X181914834Y-119899440D01*
X181955607Y-119952729D01*
X181996938Y-120009242D01*
X182037525Y-120067244D01*
X182076065Y-120124997D01*
X182111257Y-120180767D01*
X182141798Y-120232815D01*
X182169693Y-120281515D01*
X182197278Y-120327734D01*
X182223746Y-120370481D01*
X182248292Y-120408763D01*
X182270110Y-120441587D01*
X182288393Y-120467963D01*
X182302335Y-120486897D01*
X182311131Y-120497398D01*
X182314290Y-120500739D01*
X182317797Y-120504777D01*
X182321630Y-120509467D01*
X182325766Y-120514761D01*
X182334850Y-120526978D01*
X182344865Y-120541054D01*
X182355624Y-120556619D01*
X182366941Y-120573300D01*
X182390506Y-120608523D01*
X182405172Y-120632791D01*
X182428457Y-120668716D01*
X182495678Y-120768596D01*
X182676256Y-121031858D01*
X182739415Y-121124255D01*
X182766448Y-121165756D01*
X182790605Y-121204498D01*
X182812003Y-121240759D01*
X182830758Y-121274819D01*
X182846986Y-121306956D01*
X182860803Y-121337451D01*
X182872325Y-121366581D01*
X182881670Y-121394625D01*
X182888952Y-121421864D01*
X182894289Y-121448575D01*
X182897797Y-121475039D01*
X182899591Y-121501533D01*
X182899789Y-121528338D01*
X182898506Y-121555731D01*
X182897271Y-121574624D01*
X182895571Y-121593517D01*
X182893436Y-121612286D01*
X182890899Y-121630807D01*
X182887990Y-121648956D01*
X182884739Y-121666609D01*
X182881179Y-121683641D01*
X182877339Y-121699929D01*
X182873252Y-121715350D01*
X182868947Y-121729778D01*
X182864456Y-121743090D01*
X182859811Y-121755161D01*
X182855041Y-121765869D01*
X182850178Y-121775088D01*
X182845253Y-121782694D01*
X182840298Y-121788565D01*
X182825049Y-121801169D01*
X182803638Y-121814982D01*
X182776848Y-121829725D01*
X182745461Y-121845120D01*
X182710260Y-121860886D01*
X182672029Y-121876746D01*
X182631549Y-121892419D01*
X182589605Y-121907628D01*
X182546978Y-121922092D01*
X182504452Y-121935533D01*
X182462810Y-121947672D01*
X182422835Y-121958230D01*
X182385308Y-121966927D01*
X182351015Y-121973485D01*
X182320736Y-121977624D01*
X182295256Y-121979066D01*
X182284656Y-121978635D01*
X182273712Y-121977358D01*
X182262449Y-121975255D01*
X182250896Y-121972348D01*
X182239080Y-121968658D01*
X182227027Y-121964206D01*
X182214765Y-121959014D01*
X182202320Y-121953103D01*
X182176994Y-121939210D01*
X182151264Y-121922697D01*
X182125348Y-121903734D01*
X182099464Y-121882492D01*
X182073827Y-121859142D01*
X182048656Y-121833854D01*
X182024166Y-121806799D01*
X182000576Y-121778146D01*
X181978102Y-121748068D01*
X181956961Y-121716734D01*
X181937370Y-121684315D01*
X181919547Y-121650981D01*
X181881452Y-121581714D01*
X181842984Y-121513563D01*
X181804764Y-121447645D01*
X181767412Y-121385075D01*
X181731549Y-121326970D01*
X181697794Y-121274446D01*
X181666767Y-121228619D01*
X181639089Y-121190607D01*
X181321590Y-120761982D01*
X181221957Y-120625969D01*
X181135719Y-120511289D01*
X181072302Y-120429351D01*
X181052097Y-120404226D01*
X181041131Y-120391565D01*
X181032098Y-120381798D01*
X181017483Y-120365024D01*
X180998156Y-120342173D01*
X180974985Y-120314174D01*
X180948836Y-120281959D01*
X180920580Y-120246457D01*
X180891083Y-120208599D01*
X180861214Y-120169314D01*
X180845353Y-120148925D01*
X180829578Y-120129482D01*
X180813973Y-120111062D01*
X180798624Y-120093743D01*
X180783616Y-120077602D01*
X180769034Y-120062716D01*
X180754964Y-120049164D01*
X180741490Y-120037023D01*
X180728699Y-120026370D01*
X180716675Y-120017283D01*
X180705504Y-120009839D01*
X180695271Y-120004116D01*
X180686061Y-120000191D01*
X180681866Y-119998927D01*
X180677959Y-119998142D01*
X180674351Y-119997845D01*
X180671051Y-119998046D01*
X180668072Y-119998755D01*
X180665422Y-119999982D01*
X180663004Y-120001347D01*
X180660709Y-120002469D01*
X180658539Y-120003352D01*
X180656493Y-120004002D01*
X180654570Y-120004423D01*
X180652772Y-120004621D01*
X180651098Y-120004599D01*
X180649547Y-120004364D01*
X180648121Y-120003919D01*
X180646819Y-120003270D01*
X180645641Y-120002421D01*
X180644586Y-120001377D01*
X180643656Y-120000143D01*
X180642850Y-119998725D01*
X180642168Y-119997126D01*
X180641610Y-119995351D01*
X180641176Y-119993407D01*
X180640866Y-119991296D01*
X180640680Y-119989025D01*
X180640618Y-119986597D01*
X180640680Y-119984019D01*
X180640866Y-119981294D01*
X180641176Y-119978428D01*
X180641610Y-119975425D01*
X180642168Y-119972290D01*
X180642850Y-119969029D01*
X180643656Y-119965645D01*
X180644586Y-119962144D01*
X180645641Y-119958531D01*
X180646819Y-119954810D01*
X180648121Y-119950987D01*
X180649547Y-119947065D01*
X180651408Y-119941701D01*
X180653022Y-119936522D01*
X180654393Y-119931527D01*
X180655521Y-119926715D01*
X180656409Y-119922085D01*
X180657058Y-119917637D01*
X180657472Y-119913369D01*
X180657650Y-119909280D01*
X180657596Y-119905369D01*
X180657312Y-119901635D01*
X180656798Y-119898078D01*
X180656059Y-119894696D01*
X180655094Y-119891489D01*
X180653906Y-119888455D01*
X180652498Y-119885594D01*
X180650870Y-119882904D01*
X180649026Y-119880384D01*
X180646966Y-119878035D01*
X180644693Y-119875853D01*
X180642209Y-119873840D01*
X180639516Y-119871993D01*
X180636615Y-119870311D01*
X180633509Y-119868795D01*
X180630200Y-119867442D01*
X180626689Y-119866252D01*
X180622978Y-119865224D01*
X180619070Y-119864356D01*
X180614965Y-119863649D01*
X180610668Y-119863100D01*
X180606178Y-119862710D01*
X180596631Y-119862398D01*
X180583542Y-119862657D01*
X180577596Y-119862991D01*
X180572043Y-119863473D01*
X180566882Y-119864110D01*
X180562110Y-119864910D01*
X180557723Y-119865880D01*
X180553719Y-119867029D01*
X180550094Y-119868363D01*
X180546847Y-119869891D01*
X180543974Y-119871621D01*
X180541471Y-119873560D01*
X180539337Y-119875717D01*
X180537569Y-119878098D01*
X180536162Y-119880711D01*
X180535115Y-119883565D01*
X180534425Y-119886667D01*
X180534088Y-119890024D01*
X180534102Y-119893646D01*
X180534464Y-119897538D01*
X180535171Y-119901710D01*
X180536220Y-119906168D01*
X180537608Y-119910921D01*
X180539332Y-119915976D01*
X180541390Y-119921342D01*
X180543778Y-119927025D01*
X180549533Y-119939376D01*
X180556576Y-119953091D01*
X180564881Y-119968232D01*
X180571134Y-119979013D01*
X180577945Y-119989492D01*
X180585252Y-119999614D01*
X180592993Y-120009325D01*
X180601106Y-120018571D01*
X180609529Y-120027298D01*
X180618201Y-120035451D01*
X180627058Y-120042977D01*
X180636039Y-120049820D01*
X180645083Y-120055927D01*
X180654126Y-120061243D01*
X180663107Y-120065714D01*
X180671965Y-120069286D01*
X180676328Y-120070718D01*
X180680636Y-120071905D01*
X180684883Y-120072840D01*
X180689060Y-120073516D01*
X180693159Y-120073927D01*
X180697173Y-120074065D01*
X180701125Y-120074203D01*
X180705041Y-120074614D01*
X180708913Y-120075290D01*
X180712738Y-120076225D01*
X180716508Y-120077412D01*
X180720218Y-120078844D01*
X180723862Y-120080514D01*
X180727434Y-120082416D01*
X180730929Y-120084542D01*
X180734341Y-120086887D01*
X180737663Y-120089443D01*
X180740891Y-120092203D01*
X180744018Y-120095161D01*
X180747038Y-120098310D01*
X180749946Y-120101643D01*
X180752735Y-120105153D01*
X180755401Y-120108834D01*
X180757936Y-120112679D01*
X180760337Y-120116680D01*
X180762595Y-120120832D01*
X180764706Y-120125127D01*
X180766665Y-120129559D01*
X180768464Y-120134121D01*
X180770099Y-120138805D01*
X180771563Y-120143606D01*
X180772850Y-120148517D01*
X180773956Y-120153530D01*
X180774874Y-120158639D01*
X180775597Y-120163837D01*
X180776122Y-120169118D01*
X180776440Y-120174474D01*
X180776548Y-120179899D01*
X180776854Y-120190680D01*
X180777757Y-120201158D01*
X180779234Y-120211280D01*
X180781261Y-120220992D01*
X180783815Y-120230238D01*
X180786873Y-120238965D01*
X180790411Y-120247118D01*
X180794407Y-120254643D01*
X180798837Y-120261486D01*
X180803678Y-120267593D01*
X180808906Y-120272909D01*
X180811658Y-120275254D01*
X180814499Y-120277381D01*
X180817424Y-120279282D01*
X180820433Y-120280953D01*
X180823520Y-120282385D01*
X180826684Y-120283571D01*
X180829922Y-120284506D01*
X180833230Y-120285182D01*
X180836607Y-120285593D01*
X180840048Y-120285731D01*
X180842962Y-120285777D01*
X180845752Y-120285914D01*
X180848415Y-120286137D01*
X180850952Y-120286445D01*
X180853360Y-120286834D01*
X180855640Y-120287301D01*
X180857790Y-120287844D01*
X180859809Y-120288460D01*
X180861696Y-120289145D01*
X180863451Y-120289898D01*
X180865072Y-120290714D01*
X180866558Y-120291591D01*
X180867908Y-120292527D01*
X180869122Y-120293518D01*
X180870199Y-120294561D01*
X180871136Y-120295653D01*
X180871934Y-120296792D01*
X180872592Y-120297975D01*
X180873108Y-120299198D01*
X180873482Y-120300459D01*
X180873713Y-120301755D01*
X180873799Y-120303083D01*
X180873739Y-120304440D01*
X180873534Y-120305823D01*
X180873181Y-120307229D01*
X180872680Y-120308656D01*
X180872029Y-120310101D01*
X180871229Y-120311559D01*
X180870277Y-120313030D01*
X180869173Y-120314509D01*
X180867916Y-120315994D01*
X180866505Y-120317482D01*
X180865187Y-120319589D01*
X180864204Y-120321935D01*
X180863553Y-120324512D01*
X180863229Y-120327311D01*
X180863226Y-120330323D01*
X180863540Y-120333539D01*
X180864166Y-120336951D01*
X180865100Y-120340550D01*
X180866335Y-120344328D01*
X180867868Y-120348275D01*
X180869694Y-120352383D01*
X180871807Y-120356642D01*
X180874204Y-120361046D01*
X180876878Y-120365584D01*
X180883042Y-120375029D01*
X180890260Y-120384908D01*
X180898493Y-120395151D01*
X180907703Y-120405689D01*
X180917851Y-120416452D01*
X180928899Y-120427370D01*
X180940806Y-120438373D01*
X180953535Y-120449391D01*
X180967047Y-120460356D01*
X180980619Y-120470630D01*
X180993516Y-120481533D01*
X181005685Y-120492947D01*
X181017070Y-120504757D01*
X181027619Y-120516845D01*
X181037276Y-120529096D01*
X181045987Y-120541394D01*
X181053698Y-120553622D01*
X181060355Y-120565664D01*
X181065904Y-120577404D01*
X181070290Y-120588725D01*
X181073459Y-120599511D01*
X181074570Y-120604667D01*
X181075357Y-120609646D01*
X181075812Y-120614433D01*
X181075929Y-120619014D01*
X181075701Y-120623374D01*
X181075122Y-120627498D01*
X181074184Y-120631372D01*
X181072880Y-120634982D01*
X181070150Y-120642728D01*
X181067909Y-120650072D01*
X181066148Y-120656981D01*
X181064860Y-120663425D01*
X181064038Y-120669372D01*
X181063672Y-120674793D01*
X181063756Y-120679656D01*
X181064282Y-120683929D01*
X181064708Y-120685836D01*
X181065242Y-120687583D01*
X181065882Y-120689167D01*
X181066628Y-120690585D01*
X181067479Y-120691833D01*
X181068433Y-120692906D01*
X181069490Y-120693800D01*
X181070649Y-120694513D01*
X181071908Y-120695039D01*
X181073268Y-120695376D01*
X181074726Y-120695519D01*
X181076282Y-120695464D01*
X181077934Y-120695207D01*
X181079683Y-120694746D01*
X181081527Y-120694075D01*
X181083465Y-120693190D01*
X181085449Y-120692741D01*
X181087429Y-120692383D01*
X181089405Y-120692116D01*
X181091371Y-120691940D01*
X181093326Y-120691852D01*
X181095266Y-120691853D01*
X181097189Y-120691941D01*
X181099091Y-120692115D01*
X181100970Y-120692375D01*
X181102824Y-120692718D01*
X181104648Y-120693146D01*
X181106440Y-120693655D01*
X181108197Y-120694246D01*
X181109916Y-120694917D01*
X181111595Y-120695668D01*
X181113230Y-120696497D01*
X181114818Y-120697404D01*
X181116358Y-120698387D01*
X181117844Y-120699446D01*
X181119276Y-120700579D01*
X181120649Y-120701786D01*
X181121962Y-120703066D01*
X181123210Y-120704418D01*
X181124392Y-120705840D01*
X181125504Y-120707332D01*
X181126543Y-120708893D01*
X181127507Y-120710521D01*
X181128392Y-120712217D01*
X181129196Y-120713978D01*
X181129915Y-120715804D01*
X181130547Y-120717695D01*
X181131089Y-120719648D01*
X181133499Y-120724972D01*
X181136722Y-120730986D01*
X181140705Y-120737635D01*
X181145393Y-120744866D01*
X181150733Y-120752624D01*
X181156669Y-120760855D01*
X181170115Y-120778518D01*
X181185298Y-120797421D01*
X181201782Y-120817130D01*
X181219135Y-120837212D01*
X181236922Y-120857231D01*
X181303668Y-120929434D01*
X181333544Y-120963155D01*
X181361111Y-120995311D01*
X181386384Y-121025916D01*
X181409377Y-121054987D01*
X181430107Y-121082538D01*
X181448589Y-121108586D01*
X181464839Y-121133145D01*
X181478872Y-121156231D01*
X181490703Y-121177861D01*
X181500349Y-121198048D01*
X181507824Y-121216809D01*
X181513144Y-121234160D01*
X181516324Y-121250115D01*
X181517381Y-121264690D01*
X181517566Y-121272558D01*
X181518115Y-121280255D01*
X181519021Y-121287735D01*
X181520275Y-121294951D01*
X181521871Y-121301858D01*
X181523799Y-121308408D01*
X181526054Y-121314555D01*
X181528626Y-121320252D01*
X181531508Y-121325454D01*
X181534693Y-121330112D01*
X181538172Y-121334182D01*
X181540019Y-121335981D01*
X181541938Y-121337616D01*
X181543926Y-121339080D01*
X181545983Y-121340367D01*
X181548107Y-121341473D01*
X181550299Y-121342391D01*
X181552556Y-121343114D01*
X181554879Y-121343639D01*
X181557265Y-121343957D01*
X181559714Y-121344065D01*
X181565924Y-121345011D01*
X181572619Y-121347791D01*
X181579758Y-121352314D01*
X181587299Y-121358493D01*
X181595200Y-121366237D01*
X181603421Y-121375458D01*
X181620651Y-121397974D01*
X181638656Y-121425326D01*
X181657103Y-121456802D01*
X181675659Y-121491689D01*
X181693990Y-121529273D01*
X181711763Y-121568842D01*
X181728644Y-121609681D01*
X181744301Y-121651079D01*
X181758400Y-121692322D01*
X181770607Y-121732697D01*
X181780590Y-121771491D01*
X181788014Y-121807990D01*
X181792548Y-121841481D01*
X181793913Y-121861557D01*
X181794045Y-121881102D01*
X181792950Y-121900111D01*
X181790635Y-121918582D01*
X181787108Y-121936511D01*
X181782373Y-121953893D01*
X181776440Y-121970725D01*
X181769313Y-121987002D01*
X181761001Y-122002721D01*
X181751510Y-122017879D01*
X181740846Y-122032470D01*
X181729016Y-122046492D01*
X181716028Y-122059940D01*
X181701887Y-122072811D01*
X181686602Y-122085100D01*
X181670177Y-122096804D01*
X181652621Y-122107919D01*
X181633941Y-122118441D01*
X181614142Y-122128366D01*
X181593231Y-122137690D01*
X181571216Y-122146410D01*
X181548103Y-122154521D01*
X181523900Y-122162020D01*
X181498612Y-122168903D01*
X181472246Y-122175165D01*
X181444810Y-122180804D01*
X181416310Y-122185815D01*
X181386753Y-122190194D01*
X181356145Y-122193937D01*
X181324494Y-122197041D01*
X181291807Y-122199501D01*
X181258089Y-122201314D01*
X181213751Y-122202971D01*
X181173753Y-122203898D01*
X181137724Y-122203989D01*
X181105292Y-122203134D01*
X181076084Y-122201224D01*
X181049729Y-122198152D01*
X181025855Y-122193809D01*
X181004089Y-122188086D01*
X180984059Y-122180874D01*
X180965394Y-122172066D01*
X180947720Y-122161553D01*
X180930667Y-122149225D01*
X180913862Y-122134975D01*
X180896933Y-122118695D01*
X180879507Y-122100275D01*
X180861214Y-122079607D01*
X180707756Y-121890429D01*
X180655831Y-121825482D01*
X180617798Y-121776659D01*
X180591670Y-121741229D01*
X180575465Y-121716466D01*
X180570462Y-121707231D01*
X180567197Y-121699640D01*
X180565419Y-121693351D01*
X180564881Y-121688023D01*
X180563172Y-121682549D01*
X180558153Y-121672262D01*
X180538836Y-121638331D01*
X180508233Y-121588401D01*
X180467647Y-121524642D01*
X180418378Y-121449226D01*
X180361730Y-121364322D01*
X180299006Y-121272100D01*
X180231506Y-121174731D01*
X179958324Y-120767935D01*
X179760548Y-120476232D01*
X179730421Y-120430757D01*
X179700107Y-120386273D01*
X179670414Y-120343775D01*
X179642147Y-120304252D01*
X179616112Y-120268699D01*
X179593116Y-120238106D01*
X179573964Y-120213467D01*
X179559464Y-120195773D01*
X179549594Y-120181459D01*
X179540034Y-120166586D01*
X179531094Y-120151590D01*
X179526953Y-120144181D01*
X179523084Y-120136903D01*
X179519525Y-120129812D01*
X179516315Y-120122961D01*
X179513492Y-120116404D01*
X179511095Y-120110196D01*
X179509164Y-120104392D01*
X179507736Y-120099045D01*
X179506851Y-120094209D01*
X179506548Y-120089939D01*
X179504823Y-120085000D01*
X179501680Y-120078209D01*
X179497188Y-120069696D01*
X179491417Y-120059595D01*
X179484437Y-120048036D01*
X179476317Y-120035152D01*
X179456938Y-120005934D01*
X179433839Y-119972996D01*
X179421068Y-119955461D01*
X179407577Y-119937391D01*
X179393434Y-119918918D01*
X179378710Y-119900174D01*
X179363475Y-119881290D01*
X179347798Y-119862398D01*
X179315148Y-119824851D01*
X179285042Y-119788233D01*
X179258036Y-119753475D01*
X179234688Y-119721508D01*
X179215558Y-119693262D01*
X179207748Y-119680825D01*
X179201202Y-119669666D01*
X179195989Y-119659903D01*
X179192179Y-119651652D01*
X179189842Y-119645028D01*
X179189048Y-119640148D01*
X179188600Y-119634306D01*
X179187265Y-119627703D01*
X179185054Y-119620355D01*
X179181978Y-119612274D01*
X179173281Y-119593977D01*
X179161266Y-119572928D01*
X179146027Y-119549243D01*
X179127656Y-119523039D01*
X179106246Y-119494433D01*
X179081891Y-119463539D01*
X179054684Y-119430475D01*
X179024716Y-119395357D01*
X178992083Y-119358301D01*
X178956876Y-119319424D01*
X178919188Y-119278841D01*
X178879113Y-119236669D01*
X178836743Y-119193025D01*
X178792172Y-119148024D01*
X178769096Y-119126422D01*
X180053214Y-119126422D01*
X180053357Y-119128507D01*
X180053782Y-119130942D01*
X180054483Y-119133719D01*
X180055455Y-119136830D01*
X180056693Y-119140266D01*
X180059950Y-119148075D01*
X180064215Y-119157078D01*
X180069448Y-119167206D01*
X180075612Y-119178387D01*
X180082667Y-119190553D01*
X180090575Y-119203634D01*
X180099297Y-119217559D01*
X180108794Y-119232260D01*
X180119027Y-119247666D01*
X180129958Y-119263708D01*
X180141547Y-119280315D01*
X180165256Y-119311445D01*
X180188345Y-119340838D01*
X180210194Y-119367751D01*
X180230183Y-119391440D01*
X180247691Y-119411160D01*
X180262098Y-119426167D01*
X180267945Y-119431670D01*
X180272785Y-119435717D01*
X180276539Y-119438213D01*
X180279131Y-119439065D01*
X180280465Y-119438850D01*
X180281493Y-119438213D01*
X180282222Y-119437164D01*
X180282655Y-119435717D01*
X180282797Y-119433882D01*
X180282654Y-119431670D01*
X180282229Y-119429095D01*
X180281529Y-119426167D01*
X180280557Y-119422898D01*
X180279318Y-119419299D01*
X180276061Y-119411160D01*
X180271797Y-119401843D01*
X180266563Y-119391440D01*
X180260400Y-119380045D01*
X180253345Y-119367751D01*
X180245437Y-119354651D01*
X180236715Y-119340838D01*
X180227219Y-119326405D01*
X180216985Y-119311445D01*
X180206055Y-119296051D01*
X180194465Y-119280315D01*
X180170756Y-119247666D01*
X180147667Y-119217559D01*
X180125818Y-119190553D01*
X180105829Y-119167206D01*
X180088321Y-119148075D01*
X180073913Y-119133719D01*
X180068066Y-119128507D01*
X180063226Y-119124697D01*
X180059472Y-119122360D01*
X180056881Y-119121565D01*
X180055546Y-119121765D01*
X180054518Y-119122360D01*
X180053789Y-119123340D01*
X180053356Y-119124697D01*
X180053214Y-119126422D01*
X178769096Y-119126422D01*
X178766014Y-119123537D01*
X178739173Y-119099717D01*
X178711712Y-119076609D01*
X178683693Y-119054262D01*
X178655178Y-119032721D01*
X178626229Y-119012032D01*
X178596908Y-118992242D01*
X178567276Y-118973398D01*
X178537397Y-118955547D01*
X178507332Y-118938734D01*
X178477142Y-118923006D01*
X178446891Y-118908410D01*
X178416639Y-118894992D01*
X178386450Y-118882799D01*
X178356385Y-118871877D01*
X178326505Y-118862273D01*
X178265155Y-118842879D01*
X178193387Y-118817005D01*
X178025542Y-118749164D01*
X177836861Y-118665448D01*
X177641235Y-118572555D01*
X177452554Y-118477181D01*
X177284709Y-118386023D01*
X177212940Y-118344119D01*
X177151590Y-118305780D01*
X177102394Y-118271844D01*
X177067089Y-118243148D01*
X177049659Y-118225629D01*
X177034066Y-118206865D01*
X177020285Y-118186944D01*
X177008291Y-118165954D01*
X176998061Y-118143984D01*
X176989570Y-118121121D01*
X176982794Y-118097454D01*
X176977709Y-118073071D01*
X176974290Y-118048060D01*
X176972514Y-118022509D01*
X176972356Y-117996507D01*
X176973792Y-117970142D01*
X176976797Y-117943501D01*
X176981348Y-117916673D01*
X176987421Y-117889747D01*
X176994990Y-117862810D01*
X177004032Y-117835950D01*
X177014522Y-117809256D01*
X177026437Y-117782816D01*
X177039752Y-117756718D01*
X177054443Y-117731050D01*
X177070485Y-117705901D01*
X177087855Y-117681358D01*
X177106529Y-117657510D01*
X177126481Y-117634444D01*
X177147688Y-117612250D01*
X177170125Y-117591015D01*
X177193769Y-117570828D01*
X177218594Y-117551776D01*
X177244578Y-117533947D01*
X177271695Y-117517431D01*
X177299922Y-117502315D01*
X177366151Y-117467175D01*
X177424938Y-117435508D01*
X177449215Y-117422061D01*
X177468842Y-117410786D01*
X177482888Y-117402114D01*
X177487527Y-117398891D01*
X177490423Y-117396482D01*
X177493075Y-117391801D01*
X177493099Y-117384711D01*
X177490504Y-117375220D01*
X177485296Y-117363336D01*
X177477484Y-117349069D01*
X177467075Y-117332427D01*
X177438498Y-117292054D01*
X177399627Y-117242286D01*
X177350524Y-117183192D01*
X177291251Y-117114844D01*
X177221870Y-117037310D01*
X177142444Y-116950660D01*
X177053033Y-116854964D01*
X176953701Y-116750292D01*
X176844509Y-116636714D01*
X176596793Y-116383117D01*
X176310381Y-116094732D01*
X176012229Y-115790657D01*
X175891151Y-115664072D01*
X175787498Y-115552253D01*
X175700341Y-115453550D01*
X175628748Y-115366311D01*
X175571790Y-115288885D01*
X175528537Y-115219622D01*
X175511759Y-115187536D01*
X175498058Y-115156870D01*
X175487319Y-115127420D01*
X175479424Y-115098978D01*
X175474258Y-115071339D01*
X175471703Y-115044296D01*
X175471645Y-115017642D01*
X175473967Y-114991171D01*
X175478552Y-114964677D01*
X175485284Y-114937953D01*
X175504725Y-114882991D01*
X175531359Y-114824634D01*
X175564256Y-114761231D01*
X175575710Y-114742276D01*
X175588172Y-114723197D01*
X175601533Y-114704118D01*
X175615685Y-114685164D01*
X175630518Y-114666457D01*
X175645926Y-114648122D01*
X175661798Y-114630283D01*
X175678027Y-114613065D01*
X175694504Y-114596590D01*
X175711121Y-114580984D01*
X175727768Y-114566370D01*
X175744338Y-114552872D01*
X175760722Y-114540614D01*
X175776812Y-114529721D01*
X175792498Y-114520316D01*
X175807673Y-114512523D01*
X175830670Y-114504283D01*
X175852249Y-114497454D01*
X175872727Y-114492083D01*
X175892422Y-114488215D01*
X175902076Y-114486859D01*
X175911652Y-114485897D01*
X175921192Y-114485334D01*
X175930735Y-114485176D01*
X175940321Y-114485429D01*
X175949988Y-114486098D01*
X175959778Y-114487190D01*
X175969730Y-114488711D01*
X175979883Y-114490665D01*
X175990278Y-114493059D01*
X176011950Y-114499191D01*
X176035063Y-114507151D01*
X176059936Y-114516988D01*
X176086887Y-114528747D01*
X176116232Y-114542475D01*
X176148291Y-114558218D01*
X176183380Y-114576023D01*
X176207901Y-114589822D01*
X176233693Y-114605303D01*
X176260539Y-114622288D01*
X176288222Y-114640598D01*
X176345231Y-114680482D01*
X176402985Y-114723528D01*
X176459746Y-114768311D01*
X176513778Y-114813404D01*
X176563346Y-114857381D01*
X176606713Y-114898815D01*
X176802506Y-115099898D01*
X176897755Y-114941148D01*
X176907041Y-114924541D01*
X176916979Y-114908499D01*
X176927474Y-114893093D01*
X176938435Y-114878393D01*
X176949768Y-114864467D01*
X176961380Y-114851386D01*
X176973177Y-114839220D01*
X176985068Y-114828039D01*
X176996959Y-114817912D01*
X177008757Y-114808908D01*
X177020368Y-114801099D01*
X177031701Y-114794552D01*
X177042661Y-114789340D01*
X177053157Y-114785530D01*
X177058201Y-114784173D01*
X177063094Y-114783193D01*
X177067825Y-114782598D01*
X177072380Y-114782398D01*
X177081485Y-114782093D01*
X177090891Y-114781199D01*
X177100530Y-114779747D01*
X177110332Y-114777768D01*
X177120227Y-114775293D01*
X177130145Y-114772352D01*
X177140016Y-114768978D01*
X177149771Y-114765200D01*
X177159341Y-114761051D01*
X177168654Y-114756560D01*
X177177642Y-114751759D01*
X177186234Y-114746679D01*
X177194362Y-114741351D01*
X177201954Y-114735806D01*
X177208942Y-114730076D01*
X177215255Y-114724189D01*
X177229126Y-114711966D01*
X177244057Y-114702177D01*
X177260209Y-114694963D01*
X177277742Y-114690466D01*
X177296819Y-114688824D01*
X177317598Y-114690180D01*
X177340242Y-114694673D01*
X177364910Y-114702444D01*
X177391765Y-114713634D01*
X177420966Y-114728382D01*
X177452675Y-114746830D01*
X177487053Y-114769117D01*
X177524260Y-114795385D01*
X177564456Y-114825774D01*
X177607804Y-114860424D01*
X177654464Y-114899476D01*
X177704596Y-114943071D01*
X177758362Y-114991348D01*
X177815922Y-115044449D01*
X177877437Y-115102513D01*
X178012977Y-115234096D01*
X178166267Y-115387219D01*
X178338595Y-115563008D01*
X178531247Y-115762586D01*
X178745511Y-115987078D01*
X178982672Y-116237607D01*
X179085884Y-116345376D01*
X179181554Y-116442690D01*
X179270201Y-116529879D01*
X179352345Y-116607279D01*
X179428504Y-116675222D01*
X179499199Y-116734041D01*
X179564948Y-116784070D01*
X179626271Y-116825643D01*
X179683688Y-116859092D01*
X179737717Y-116884750D01*
X179788878Y-116902952D01*
X179837690Y-116914030D01*
X179861378Y-116917002D01*
X179884673Y-116918318D01*
X179930346Y-116916149D01*
X179975228Y-116907856D01*
X180019839Y-116893773D01*
X180058837Y-116880513D01*
X180098656Y-116870539D01*
X180118976Y-116866804D01*
X180139623Y-116863914D01*
X180160638Y-116861877D01*
X180182062Y-116860700D01*
X180203936Y-116860391D01*
X180226300Y-116860958D01*
X180272661Y-116864752D01*
X180321472Y-116872141D01*
X180373058Y-116883190D01*
X180427745Y-116897959D01*
X180485857Y-116916511D01*
X180547722Y-116938907D01*
X180613664Y-116965211D01*
X180684008Y-116995483D01*
X180759081Y-117029786D01*
X180839208Y-117068181D01*
X180924715Y-117110732D01*
X181007004Y-117153251D01*
X181085945Y-117192918D01*
X181159677Y-117228864D01*
X181226340Y-117260221D01*
X181284072Y-117286121D01*
X181331015Y-117305696D01*
X181365308Y-117318078D01*
X181377129Y-117321300D01*
X181385090Y-117322398D01*
X181387262Y-117322091D01*
X181388823Y-117321179D01*
X181389784Y-117319678D01*
X181390154Y-117317603D01*
X181389942Y-117314970D01*
X181389159Y-117311794D01*
X181387814Y-117308092D01*
X181385916Y-117303877D01*
X181383476Y-117299167D01*
X181380503Y-117293976D01*
X181372997Y-117282215D01*
X181363476Y-117268717D01*
X181352016Y-117253607D01*
X181338697Y-117237008D01*
X181323594Y-117219045D01*
X181306786Y-117199842D01*
X181288351Y-117179523D01*
X181268365Y-117158212D01*
X181246906Y-117136032D01*
X181224053Y-117113109D01*
X181199881Y-117089565D01*
X181089035Y-116980559D01*
X180977879Y-116867398D01*
X180871064Y-116755353D01*
X180773241Y-116649695D01*
X180689060Y-116555695D01*
X180623172Y-116478625D01*
X180580229Y-116423755D01*
X180568815Y-116406293D01*
X180564881Y-116396357D01*
X180561572Y-116387192D01*
X180552045Y-116370167D01*
X180516760Y-116315824D01*
X180463864Y-116239901D01*
X180398194Y-116148971D01*
X180324586Y-116049608D01*
X180247877Y-115948384D01*
X180172905Y-115851873D01*
X180104506Y-115766648D01*
X180080275Y-115734882D01*
X180057253Y-115701288D01*
X180035534Y-115666143D01*
X180015209Y-115629726D01*
X179996373Y-115592318D01*
X179979119Y-115554196D01*
X179963538Y-115515640D01*
X179949725Y-115476929D01*
X179937772Y-115438343D01*
X179927773Y-115400159D01*
X179919820Y-115362658D01*
X179914006Y-115326117D01*
X179910425Y-115290817D01*
X179909169Y-115257036D01*
X179910332Y-115225054D01*
X179914006Y-115195149D01*
X179917083Y-115180767D01*
X179921324Y-115166413D01*
X179926684Y-115152115D01*
X179933116Y-115137901D01*
X179940575Y-115123800D01*
X179949015Y-115109840D01*
X179958392Y-115096048D01*
X179968659Y-115082452D01*
X179979771Y-115069082D01*
X179991682Y-115055964D01*
X180004347Y-115043128D01*
X180017720Y-115030600D01*
X180031756Y-115018410D01*
X180046410Y-115006585D01*
X180061635Y-114995153D01*
X180077386Y-114984143D01*
X180093617Y-114973583D01*
X180110284Y-114963500D01*
X180127340Y-114953923D01*
X180144741Y-114944880D01*
X180162439Y-114936398D01*
X180180391Y-114928507D01*
X180198550Y-114921234D01*
X180216871Y-114914608D01*
X180235308Y-114908655D01*
X180253815Y-114903405D01*
X180272348Y-114898886D01*
X180290861Y-114895126D01*
X180309308Y-114892152D01*
X180327643Y-114889993D01*
X180345821Y-114888677D01*
X180363797Y-114888232D01*
X180376948Y-114887976D01*
X180388633Y-114887178D01*
X180393934Y-114886560D01*
X180398877Y-114885790D01*
X180403465Y-114884861D01*
X180407702Y-114883767D01*
X180411589Y-114882502D01*
X180415131Y-114881062D01*
X180418330Y-114879439D01*
X180421189Y-114877628D01*
X180423711Y-114875623D01*
X180425898Y-114873419D01*
X180427754Y-114871009D01*
X180429282Y-114868388D01*
X180430484Y-114865550D01*
X180431363Y-114862489D01*
X180431923Y-114859199D01*
X180432165Y-114855675D01*
X180432094Y-114851911D01*
X180431712Y-114847901D01*
X180431021Y-114843638D01*
X180430026Y-114839118D01*
X180428728Y-114834335D01*
X180427131Y-114829282D01*
X180425237Y-114823953D01*
X180423049Y-114818344D01*
X180417805Y-114806260D01*
X180411422Y-114792982D01*
X180404984Y-114782414D01*
X180397625Y-114768714D01*
X180380416Y-114732789D01*
X180360356Y-114686942D01*
X180338001Y-114632909D01*
X180313909Y-114572427D01*
X180288639Y-114507231D01*
X180236798Y-114369648D01*
X180211094Y-114303895D01*
X180185948Y-114242483D01*
X180161919Y-114186776D01*
X180139563Y-114138138D01*
X180119441Y-114097934D01*
X180102108Y-114067527D01*
X180094663Y-114056425D01*
X180088125Y-114048283D01*
X180082563Y-114043273D01*
X180080170Y-114041996D01*
X180078048Y-114041565D01*
X180075598Y-114041458D01*
X180073212Y-114041139D01*
X180070890Y-114040615D01*
X180068632Y-114039891D01*
X180066441Y-114038973D01*
X180064316Y-114037868D01*
X180062259Y-114036580D01*
X180060271Y-114035116D01*
X180058353Y-114033481D01*
X180056505Y-114031682D01*
X180054729Y-114029724D01*
X180053026Y-114027612D01*
X180051397Y-114025354D01*
X180049842Y-114022954D01*
X180048362Y-114020418D01*
X180046959Y-114017753D01*
X180045634Y-114014963D01*
X180044387Y-114012055D01*
X180043220Y-114009035D01*
X180042133Y-114005908D01*
X180041127Y-114002681D01*
X180040204Y-113999358D01*
X180039364Y-113995947D01*
X180038609Y-113992452D01*
X180037938Y-113988879D01*
X180037354Y-113985235D01*
X180036857Y-113981525D01*
X180036448Y-113977755D01*
X180036129Y-113973931D01*
X180035899Y-113970058D01*
X180035761Y-113966142D01*
X180035715Y-113962190D01*
X180035470Y-113953834D01*
X180034753Y-113944703D01*
X180033587Y-113934889D01*
X180031994Y-113924487D01*
X180029998Y-113913588D01*
X180027622Y-113902287D01*
X180024890Y-113890675D01*
X180021824Y-113878846D01*
X180018448Y-113866893D01*
X180014785Y-113854910D01*
X180010859Y-113842988D01*
X180006693Y-113831221D01*
X180002309Y-113819703D01*
X179997732Y-113808525D01*
X179992984Y-113797781D01*
X179988089Y-113787565D01*
X179946117Y-113692759D01*
X179891433Y-113553987D01*
X179829680Y-113387310D01*
X179766500Y-113208789D01*
X179707537Y-113034484D01*
X179658435Y-112880457D01*
X179624835Y-112762770D01*
X179615612Y-112722572D01*
X179612381Y-112697482D01*
X179612076Y-112687202D01*
X179611182Y-112676264D01*
X179609730Y-112664751D01*
X179607750Y-112652751D01*
X179605275Y-112640347D01*
X179602335Y-112627626D01*
X179598960Y-112614672D01*
X179595183Y-112601570D01*
X179591033Y-112588407D01*
X179586543Y-112575267D01*
X179581742Y-112562235D01*
X179576662Y-112549398D01*
X179571334Y-112536839D01*
X179565789Y-112524644D01*
X179560058Y-112512900D01*
X179554172Y-112501690D01*
X179548287Y-112488652D01*
X179542556Y-112471552D01*
X179537011Y-112450669D01*
X179531683Y-112426283D01*
X179526603Y-112398672D01*
X179521803Y-112368116D01*
X179517312Y-112334893D01*
X179513162Y-112299283D01*
X179506010Y-112222016D01*
X179500595Y-112138548D01*
X179497163Y-112051112D01*
X179495964Y-111961939D01*
X179495324Y-111839570D01*
X179496127Y-111785671D01*
X179496164Y-111784577D01*
X180342843Y-111784577D01*
X180347923Y-111887195D01*
X180358708Y-111998184D01*
X180375167Y-112116917D01*
X180397268Y-112242766D01*
X180424982Y-112375103D01*
X180458278Y-112513300D01*
X180497123Y-112656730D01*
X180541487Y-112804763D01*
X180591339Y-112956773D01*
X180630530Y-113062193D01*
X180666745Y-113157195D01*
X180682806Y-113197534D01*
X180697007Y-113231361D01*
X180708975Y-113257375D01*
X180714006Y-113267045D01*
X180718339Y-113274273D01*
X180722791Y-113280875D01*
X180728157Y-113290624D01*
X180734361Y-113303318D01*
X180741325Y-113318756D01*
X180757220Y-113357059D01*
X180775224Y-113403919D01*
X180794717Y-113457725D01*
X180815078Y-113516863D01*
X180835686Y-113579722D01*
X180855923Y-113644690D01*
X180877844Y-113712541D01*
X180903300Y-113783679D01*
X180931360Y-113855933D01*
X180961094Y-113927133D01*
X180991573Y-113995108D01*
X181021866Y-114057688D01*
X181051043Y-114112703D01*
X181064922Y-114136695D01*
X181078173Y-114157982D01*
X181101634Y-114199498D01*
X181123979Y-114240085D01*
X181144587Y-114278811D01*
X181162839Y-114314747D01*
X181178115Y-114346962D01*
X181189794Y-114374526D01*
X181194091Y-114386274D01*
X181197256Y-114396510D01*
X181199212Y-114405118D01*
X181199881Y-114411981D01*
X181200066Y-114416936D01*
X181200615Y-114421852D01*
X181201520Y-114426690D01*
X181202775Y-114431412D01*
X181204370Y-114435979D01*
X181206299Y-114440352D01*
X181208554Y-114444493D01*
X181211126Y-114448362D01*
X181212529Y-114450183D01*
X181214008Y-114451921D01*
X181215563Y-114453572D01*
X181217193Y-114455132D01*
X181218896Y-114456594D01*
X181220672Y-114457954D01*
X181222520Y-114459208D01*
X181224438Y-114460351D01*
X181226426Y-114461377D01*
X181228483Y-114462282D01*
X181230608Y-114463061D01*
X181232799Y-114463710D01*
X181235057Y-114464223D01*
X181237379Y-114464595D01*
X181239766Y-114464822D01*
X181242215Y-114464898D01*
X181244276Y-114465129D01*
X181246486Y-114465812D01*
X181248839Y-114466935D01*
X181251330Y-114468485D01*
X181253953Y-114470450D01*
X181256702Y-114472817D01*
X181259571Y-114475573D01*
X181262554Y-114478706D01*
X181268841Y-114486053D01*
X181275514Y-114494757D01*
X181282529Y-114504716D01*
X181289839Y-114515831D01*
X181297397Y-114527999D01*
X181305156Y-114541121D01*
X181313070Y-114555096D01*
X181321093Y-114569822D01*
X181329178Y-114585200D01*
X181337278Y-114601128D01*
X181345347Y-114617505D01*
X181353339Y-114634231D01*
X181443876Y-114842260D01*
X181593449Y-115171336D01*
X181773779Y-115559942D01*
X181956589Y-115946565D01*
X181979358Y-115995503D01*
X181999832Y-116042394D01*
X182017702Y-116086185D01*
X182032657Y-116125820D01*
X182044388Y-116160247D01*
X182052583Y-116188411D01*
X182055259Y-116199814D01*
X182056934Y-116209257D01*
X182057571Y-116216606D01*
X182057130Y-116221731D01*
X182056711Y-116224181D01*
X182056443Y-116226567D01*
X182056322Y-116228889D01*
X182056345Y-116231147D01*
X182056507Y-116233338D01*
X182056805Y-116235463D01*
X182057234Y-116237520D01*
X182057792Y-116239508D01*
X182058473Y-116241427D01*
X182059275Y-116243274D01*
X182060193Y-116245050D01*
X182061223Y-116246753D01*
X182062362Y-116248383D01*
X182063606Y-116249938D01*
X182064950Y-116251417D01*
X182066391Y-116252820D01*
X182067925Y-116254146D01*
X182069548Y-116255393D01*
X182071257Y-116256560D01*
X182073047Y-116257647D01*
X182074914Y-116258653D01*
X182076856Y-116259576D01*
X182078866Y-116260416D01*
X182080943Y-116261171D01*
X182083082Y-116261842D01*
X182085279Y-116262426D01*
X182087530Y-116262923D01*
X182089832Y-116263331D01*
X182092180Y-116263651D01*
X182094571Y-116263881D01*
X182097000Y-116264019D01*
X182099464Y-116264065D01*
X182102410Y-116264204D01*
X182105291Y-116264614D01*
X182108106Y-116265290D01*
X182110854Y-116266225D01*
X182113531Y-116267412D01*
X182116137Y-116268844D01*
X182118670Y-116270514D01*
X182121127Y-116272416D01*
X182123506Y-116274543D01*
X182125806Y-116276887D01*
X182128025Y-116279443D01*
X182130160Y-116282204D01*
X182132210Y-116285162D01*
X182134172Y-116288310D01*
X182136046Y-116291643D01*
X182137829Y-116295154D01*
X182139518Y-116298834D01*
X182141113Y-116302679D01*
X182142610Y-116306681D01*
X182144009Y-116310832D01*
X182145307Y-116315127D01*
X182146502Y-116319559D01*
X182147593Y-116324121D01*
X182148577Y-116328805D01*
X182149453Y-116333606D01*
X182150218Y-116338517D01*
X182150871Y-116343530D01*
X182151409Y-116348639D01*
X182151831Y-116353837D01*
X182152135Y-116359117D01*
X182152319Y-116364474D01*
X182152381Y-116369899D01*
X182152519Y-116375400D01*
X182152930Y-116380986D01*
X182154541Y-116392367D01*
X182157159Y-116403966D01*
X182160732Y-116415704D01*
X182165203Y-116427504D01*
X182170519Y-116439289D01*
X182176626Y-116450981D01*
X182183469Y-116462502D01*
X182190995Y-116473775D01*
X182199148Y-116484723D01*
X182207875Y-116495268D01*
X182217121Y-116505332D01*
X182226832Y-116514838D01*
X182236955Y-116523708D01*
X182247433Y-116531865D01*
X182258215Y-116539232D01*
X182268995Y-116546535D01*
X182279474Y-116554497D01*
X182289596Y-116563032D01*
X182299307Y-116572056D01*
X182308554Y-116581483D01*
X182317280Y-116591228D01*
X182325434Y-116601206D01*
X182332959Y-116611330D01*
X182339802Y-116621517D01*
X182345909Y-116631681D01*
X182351225Y-116641736D01*
X182355696Y-116651597D01*
X182359268Y-116661179D01*
X182361887Y-116670397D01*
X182362822Y-116674842D01*
X182363498Y-116679165D01*
X182363909Y-116683354D01*
X182364047Y-116687398D01*
X182364291Y-116696442D01*
X182365008Y-116705671D01*
X182366175Y-116715024D01*
X182367768Y-116724440D01*
X182369764Y-116733855D01*
X182372140Y-116743209D01*
X182374872Y-116752438D01*
X182377938Y-116761481D01*
X182381314Y-116770277D01*
X182384976Y-116778762D01*
X182388902Y-116786875D01*
X182393069Y-116794555D01*
X182397452Y-116801738D01*
X182402030Y-116808363D01*
X182406777Y-116814367D01*
X182411672Y-116819690D01*
X182416689Y-116826066D01*
X182421791Y-116833240D01*
X182426939Y-116841142D01*
X182432095Y-116849704D01*
X182437220Y-116858854D01*
X182442275Y-116868524D01*
X182447222Y-116878643D01*
X182452021Y-116889143D01*
X182456635Y-116899952D01*
X182461023Y-116911002D01*
X182465149Y-116922222D01*
X182468971Y-116933543D01*
X182472453Y-116944895D01*
X182475555Y-116956209D01*
X182478238Y-116967413D01*
X182480464Y-116978440D01*
X182483460Y-116993313D01*
X182488432Y-117009119D01*
X182495312Y-117025799D01*
X182504028Y-117043294D01*
X182514512Y-117061544D01*
X182526694Y-117080492D01*
X182555870Y-117120240D01*
X182591000Y-117162066D01*
X182631524Y-117205496D01*
X182676886Y-117250058D01*
X182726526Y-117295279D01*
X182779887Y-117340685D01*
X182836411Y-117385805D01*
X182895539Y-117430166D01*
X182956714Y-117473294D01*
X183019377Y-117514716D01*
X183082970Y-117553960D01*
X183146935Y-117590554D01*
X183210714Y-117624023D01*
X183269284Y-117653665D01*
X183325064Y-117682562D01*
X183423043Y-117735148D01*
X183462637Y-117757348D01*
X183494232Y-117775828D01*
X183516525Y-117789842D01*
X183528215Y-117798648D01*
X183536044Y-117805756D01*
X183549423Y-117815081D01*
X183568073Y-117826484D01*
X183591714Y-117839824D01*
X183652858Y-117871760D01*
X183730621Y-117909773D01*
X183822770Y-117952747D01*
X183927074Y-117999566D01*
X184041299Y-118049113D01*
X184163214Y-118100273D01*
X184241928Y-118134256D01*
X184320641Y-118169726D01*
X184389433Y-118202220D01*
X184417008Y-118215956D01*
X184438381Y-118227273D01*
X184448659Y-118232168D01*
X184459589Y-118236916D01*
X184471077Y-118241493D01*
X184483029Y-118245876D01*
X184495354Y-118250043D01*
X184507958Y-118253969D01*
X184520748Y-118257632D01*
X184533631Y-118261008D01*
X184546514Y-118264073D01*
X184559304Y-118266806D01*
X184571908Y-118269182D01*
X184584233Y-118271178D01*
X184596185Y-118272771D01*
X184607673Y-118273937D01*
X184618603Y-118274654D01*
X184628881Y-118274899D01*
X184638917Y-118275142D01*
X184649138Y-118275849D01*
X184659484Y-118276991D01*
X184669892Y-118278537D01*
X184680299Y-118280454D01*
X184690645Y-118282712D01*
X184700866Y-118285280D01*
X184710902Y-118288127D01*
X184720689Y-118291223D01*
X184730167Y-118294535D01*
X184739272Y-118298034D01*
X184747943Y-118301687D01*
X184756118Y-118305465D01*
X184763735Y-118309336D01*
X184770732Y-118313268D01*
X184777047Y-118317232D01*
X184783101Y-118322493D01*
X184791248Y-118328311D01*
X184801348Y-118334626D01*
X184813262Y-118341375D01*
X184826850Y-118348496D01*
X184841973Y-118355927D01*
X184858492Y-118363606D01*
X184876266Y-118371472D01*
X184895156Y-118379461D01*
X184915023Y-118387512D01*
X184935727Y-118395563D01*
X184957129Y-118403552D01*
X184979089Y-118411417D01*
X185001468Y-118419096D01*
X185024125Y-118426527D01*
X185046922Y-118433648D01*
X185093162Y-118447952D01*
X185136054Y-118462752D01*
X185174728Y-118477552D01*
X185208318Y-118491856D01*
X185235955Y-118505168D01*
X185247270Y-118511297D01*
X185256770Y-118516992D01*
X185264349Y-118522190D01*
X185269896Y-118526831D01*
X185273304Y-118530851D01*
X185274172Y-118532610D01*
X185274465Y-118534190D01*
X185274587Y-118536174D01*
X185274952Y-118538155D01*
X185275550Y-118540130D01*
X185276377Y-118542096D01*
X185277424Y-118544051D01*
X185278685Y-118545991D01*
X185280154Y-118547914D01*
X185281823Y-118549817D01*
X185283686Y-118551696D01*
X185285736Y-118553549D01*
X185287967Y-118555373D01*
X185290370Y-118557165D01*
X185292941Y-118558922D01*
X185295671Y-118560642D01*
X185298554Y-118562320D01*
X185301584Y-118563956D01*
X185304753Y-118565544D01*
X185308055Y-118567083D01*
X185311483Y-118568570D01*
X185315030Y-118570002D01*
X185318690Y-118571375D01*
X185322455Y-118572688D01*
X185326319Y-118573936D01*
X185330275Y-118575118D01*
X185334316Y-118576230D01*
X185338436Y-118577269D01*
X185342627Y-118578233D01*
X185346884Y-118579118D01*
X185351198Y-118579921D01*
X185355564Y-118580641D01*
X185359974Y-118581273D01*
X185364423Y-118581815D01*
X185742549Y-118618381D01*
X186056804Y-118640189D01*
X186192499Y-118645287D01*
X186315248Y-118646369D01*
X186426061Y-118643328D01*
X186525943Y-118636054D01*
X186615904Y-118624440D01*
X186696951Y-118608376D01*
X186770091Y-118587755D01*
X186836333Y-118562467D01*
X186896683Y-118532404D01*
X186952150Y-118497458D01*
X187003741Y-118457520D01*
X187052464Y-118412481D01*
X187061405Y-118402051D01*
X187070351Y-118389688D01*
X187088152Y-118359616D01*
X187105659Y-118323173D01*
X187122662Y-118281265D01*
X187138951Y-118234798D01*
X187154318Y-118184681D01*
X187168554Y-118131820D01*
X187181449Y-118077122D01*
X187192793Y-118021494D01*
X187202377Y-117965842D01*
X187209993Y-117911074D01*
X187215431Y-117858097D01*
X187218481Y-117807817D01*
X187218935Y-117761142D01*
X187216582Y-117718978D01*
X187211214Y-117682232D01*
X187202812Y-117642575D01*
X187193603Y-117596160D01*
X187173511Y-117489747D01*
X187152427Y-117376390D01*
X187131840Y-117269482D01*
X187122031Y-117215997D01*
X187108936Y-117156124D01*
X187093237Y-117091911D01*
X187075615Y-117025404D01*
X187056753Y-116958648D01*
X187037333Y-116893691D01*
X187018037Y-116832578D01*
X186999548Y-116777357D01*
X186940936Y-116626224D01*
X186865023Y-116448364D01*
X186778817Y-116258226D01*
X186689323Y-116070258D01*
X186603551Y-115898909D01*
X186528507Y-115758628D01*
X186471197Y-115663864D01*
X186451383Y-115638066D01*
X186444070Y-115631353D01*
X186438631Y-115629065D01*
X186436570Y-115628850D01*
X186434361Y-115628213D01*
X186432011Y-115627164D01*
X186429525Y-115625717D01*
X186426912Y-115623881D01*
X186424178Y-115621670D01*
X186421330Y-115619095D01*
X186418374Y-115616167D01*
X186415317Y-115612898D01*
X186412166Y-115609299D01*
X186405610Y-115601160D01*
X186398759Y-115591842D01*
X186391667Y-115581440D01*
X186384390Y-115570045D01*
X186376981Y-115557751D01*
X186369494Y-115544651D01*
X186361984Y-115530838D01*
X186354506Y-115516405D01*
X186347112Y-115501445D01*
X186339858Y-115486050D01*
X186332798Y-115470315D01*
X186325736Y-115453708D01*
X186318473Y-115437666D01*
X186311055Y-115422260D01*
X186303528Y-115407559D01*
X186295939Y-115393634D01*
X186288335Y-115380553D01*
X186280762Y-115368387D01*
X186273266Y-115357206D01*
X186265895Y-115347078D01*
X186258694Y-115338075D01*
X186251710Y-115330265D01*
X186244989Y-115323719D01*
X186238579Y-115318506D01*
X186232525Y-115314697D01*
X186226874Y-115312359D01*
X186224214Y-115311765D01*
X186221673Y-115311565D01*
X186219658Y-115311442D01*
X186217586Y-115311077D01*
X186215462Y-115310475D01*
X186213291Y-115309643D01*
X186211077Y-115308585D01*
X186208825Y-115307309D01*
X186206540Y-115305820D01*
X186204227Y-115304124D01*
X186201891Y-115302225D01*
X186199536Y-115300131D01*
X186197168Y-115297848D01*
X186194791Y-115295380D01*
X186192410Y-115292734D01*
X186190030Y-115289915D01*
X186187656Y-115286930D01*
X186185293Y-115283784D01*
X186180617Y-115277032D01*
X186176043Y-115269707D01*
X186171607Y-115261855D01*
X186167351Y-115253522D01*
X186163311Y-115244755D01*
X186159527Y-115235600D01*
X186156037Y-115226105D01*
X186152881Y-115216315D01*
X186149298Y-115206784D01*
X186144561Y-115196130D01*
X186138754Y-115184468D01*
X186131962Y-115171914D01*
X186124271Y-115158586D01*
X186115767Y-115144598D01*
X186106534Y-115130068D01*
X186096657Y-115115112D01*
X186075315Y-115084385D01*
X186052422Y-115053348D01*
X186028661Y-115022931D01*
X186004714Y-114994065D01*
X185977088Y-114963038D01*
X185946423Y-114926431D01*
X185913650Y-114885606D01*
X185879699Y-114841930D01*
X185845499Y-114796764D01*
X185811982Y-114751475D01*
X185780077Y-114707426D01*
X185750714Y-114665982D01*
X185723026Y-114625436D01*
X185695896Y-114587682D01*
X185669882Y-114553523D01*
X185645542Y-114523768D01*
X185634175Y-114510793D01*
X185623435Y-114499222D01*
X185613393Y-114489154D01*
X185604118Y-114480691D01*
X185595681Y-114473933D01*
X185588150Y-114468981D01*
X185581596Y-114465936D01*
X185578708Y-114465160D01*
X185576089Y-114464898D01*
X185574121Y-114464822D01*
X185572185Y-114464595D01*
X185570284Y-114464223D01*
X185568420Y-114463710D01*
X185566595Y-114463061D01*
X185564811Y-114462282D01*
X185563069Y-114461377D01*
X185561372Y-114460351D01*
X185559721Y-114459208D01*
X185558119Y-114457954D01*
X185556567Y-114456594D01*
X185555067Y-114455132D01*
X185553622Y-114453572D01*
X185552233Y-114451921D01*
X185550902Y-114450183D01*
X185549631Y-114448362D01*
X185548422Y-114446464D01*
X185547277Y-114444493D01*
X185546198Y-114442454D01*
X185545187Y-114440352D01*
X185544245Y-114438192D01*
X185543375Y-114435979D01*
X185542579Y-114433717D01*
X185541859Y-114431412D01*
X185541216Y-114429068D01*
X185540652Y-114426690D01*
X185540170Y-114424283D01*
X185539771Y-114421852D01*
X185539457Y-114419401D01*
X185539231Y-114416936D01*
X185539094Y-114414461D01*
X185539047Y-114411981D01*
X185533266Y-114392868D01*
X185516858Y-114358786D01*
X185457771Y-114254306D01*
X185373011Y-114115720D01*
X185273803Y-113960205D01*
X185171370Y-113804938D01*
X185076936Y-113667097D01*
X185001726Y-113563858D01*
X184974838Y-113530582D01*
X184956964Y-113512398D01*
X184952816Y-113509057D01*
X184948334Y-113505019D01*
X184943558Y-113500329D01*
X184938526Y-113495035D01*
X184933277Y-113489183D01*
X184927850Y-113482819D01*
X184922283Y-113475990D01*
X184916615Y-113468742D01*
X184910885Y-113461122D01*
X184905133Y-113453177D01*
X184899395Y-113444953D01*
X184893712Y-113436496D01*
X184888122Y-113427853D01*
X184882664Y-113419071D01*
X184877376Y-113410195D01*
X184872297Y-113401273D01*
X184865329Y-113390766D01*
X184854500Y-113377244D01*
X184840044Y-113360915D01*
X184822192Y-113341990D01*
X184801178Y-113320677D01*
X184777233Y-113297187D01*
X184721485Y-113244508D01*
X184656807Y-113185628D01*
X184585059Y-113122220D01*
X184508103Y-113055961D01*
X184427797Y-112988523D01*
X184100375Y-112715340D01*
X183964198Y-112599337D01*
X183911457Y-112553210D01*
X183872172Y-112517564D01*
X183795995Y-112453062D01*
X183707500Y-112383288D01*
X183608386Y-112309298D01*
X183500350Y-112232145D01*
X183264303Y-112072568D01*
X183012938Y-111912992D01*
X182759837Y-111761848D01*
X182518581Y-111627572D01*
X182406638Y-111569395D01*
X182302749Y-111518597D01*
X182208612Y-111476233D01*
X182125923Y-111443356D01*
X182025932Y-111410313D01*
X181919321Y-111380673D01*
X181807408Y-111354490D01*
X181691510Y-111331818D01*
X181572946Y-111312712D01*
X181453034Y-111297226D01*
X181333090Y-111285414D01*
X181214433Y-111277330D01*
X181098381Y-111273030D01*
X180986251Y-111272566D01*
X180879361Y-111275993D01*
X180779028Y-111283366D01*
X180686571Y-111294739D01*
X180603308Y-111310165D01*
X180530555Y-111329700D01*
X180469631Y-111353397D01*
X180451027Y-111364980D01*
X180433907Y-111379834D01*
X180418268Y-111397879D01*
X180404105Y-111419037D01*
X180391416Y-111443230D01*
X180380195Y-111470379D01*
X180370439Y-111500405D01*
X180362144Y-111533231D01*
X180355307Y-111568778D01*
X180349923Y-111606967D01*
X180345988Y-111647720D01*
X180343499Y-111690958D01*
X180342843Y-111784577D01*
X179496164Y-111784577D01*
X179497783Y-111736051D01*
X179500370Y-111690277D01*
X179503964Y-111647912D01*
X179508643Y-111608525D01*
X179514485Y-111571679D01*
X179521567Y-111536942D01*
X179529967Y-111503880D01*
X179539762Y-111472057D01*
X179551030Y-111441041D01*
X179563849Y-111410397D01*
X179578295Y-111379691D01*
X179594446Y-111348489D01*
X179612381Y-111316357D01*
X179656892Y-111239616D01*
X179703310Y-111168014D01*
X179751930Y-111101358D01*
X179777158Y-111069824D01*
X179803046Y-111039454D01*
X179829632Y-111010223D01*
X179856952Y-110982107D01*
X179885044Y-110955082D01*
X179913944Y-110929124D01*
X179943688Y-110904209D01*
X179974315Y-110880312D01*
X180005860Y-110857409D01*
X180038360Y-110835476D01*
X180071852Y-110814489D01*
X180106374Y-110794423D01*
X180141961Y-110775255D01*
X180178651Y-110756959D01*
X180255486Y-110722890D01*
X180337174Y-110692022D01*
X180424008Y-110664162D01*
X180516284Y-110639116D01*
X180614296Y-110616690D01*
X180718339Y-110596690D01*
X180779141Y-110584349D01*
X180837649Y-110571389D01*
X180892561Y-110558180D01*
X180942573Y-110545096D01*
X180986385Y-110532508D01*
X181022693Y-110520788D01*
X181050195Y-110510308D01*
X181060237Y-110505649D01*
X181067590Y-110501440D01*
X181073093Y-110496424D01*
X181079620Y-110491322D01*
X181087076Y-110486174D01*
X181095370Y-110481018D01*
X181104408Y-110475893D01*
X181114098Y-110470837D01*
X181124345Y-110465891D01*
X181135058Y-110461091D01*
X181146142Y-110456478D01*
X181157506Y-110452089D01*
X181169056Y-110447964D01*
X181180699Y-110444141D01*
X181192341Y-110440659D01*
X181203891Y-110437557D01*
X181215255Y-110434874D01*
X181226340Y-110432648D01*
X181273881Y-110419088D01*
X181324896Y-110403544D01*
X181372935Y-110387999D01*
X181393822Y-110380847D01*
X181411547Y-110374439D01*
X181420940Y-110372764D01*
X181433107Y-110371700D01*
X181447848Y-110371242D01*
X181464960Y-110371380D01*
X181484243Y-110372108D01*
X181505495Y-110373416D01*
X181553100Y-110377747D01*
X181606161Y-110384310D01*
X181663067Y-110393043D01*
X181692458Y-110398204D01*
X181722205Y-110403885D01*
X181752108Y-110410077D01*
X181781964Y-110416773D01*
X181843418Y-110430302D01*
X181907476Y-110446622D01*
X181972278Y-110465049D01*
X182035964Y-110484903D01*
X182096674Y-110505502D01*
X182152546Y-110526162D01*
X182201721Y-110546202D01*
X182242339Y-110564939D01*
X182260670Y-110574670D01*
X182279846Y-110583998D01*
X182299720Y-110592891D01*
X182320143Y-110601320D01*
X182340970Y-110609252D01*
X182362053Y-110616657D01*
X182383244Y-110623505D01*
X182404396Y-110629763D01*
X182425363Y-110635401D01*
X182445996Y-110640387D01*
X182466148Y-110644692D01*
X182485673Y-110648284D01*
X182504422Y-110651131D01*
X182522249Y-110653203D01*
X182539007Y-110654469D01*
X182554547Y-110654898D01*
X182584424Y-110655702D01*
X182616456Y-110658102D01*
X182650565Y-110662084D01*
X182686674Y-110667631D01*
X182724705Y-110674729D01*
X182764581Y-110683361D01*
X182806225Y-110693513D01*
X182849558Y-110705169D01*
X182894504Y-110718313D01*
X182940984Y-110732929D01*
X182988922Y-110749003D01*
X183038239Y-110766519D01*
X183088859Y-110785461D01*
X183140703Y-110805813D01*
X183193695Y-110827561D01*
X183247756Y-110850689D01*
X183283030Y-110864280D01*
X183320599Y-110877065D01*
X183359284Y-110888734D01*
X183397907Y-110898976D01*
X183435290Y-110907482D01*
X183470254Y-110913942D01*
X183486461Y-110916307D01*
X183501622Y-110918045D01*
X183515589Y-110919116D01*
X183528215Y-110919482D01*
X183550451Y-110920513D01*
X183574452Y-110923580D01*
X183600155Y-110928638D01*
X183627495Y-110935646D01*
X183686833Y-110955340D01*
X183751953Y-110982320D01*
X183822344Y-111016246D01*
X183897494Y-111056775D01*
X183976893Y-111103568D01*
X184060027Y-111156283D01*
X184146386Y-111214579D01*
X184235458Y-111278115D01*
X184326732Y-111346550D01*
X184419695Y-111419543D01*
X184513836Y-111496753D01*
X184608644Y-111577839D01*
X184703608Y-111662459D01*
X184798214Y-111750272D01*
X184871760Y-111818920D01*
X184948034Y-111888683D01*
X185099839Y-112024117D01*
X185235769Y-112141691D01*
X185292200Y-112189130D01*
X185337964Y-112226522D01*
X185358477Y-112241510D01*
X185378293Y-112256629D01*
X185397333Y-112271764D01*
X185415520Y-112286798D01*
X185432777Y-112301615D01*
X185449027Y-112316098D01*
X185478193Y-112343601D01*
X185502399Y-112368375D01*
X185512447Y-112379448D01*
X185521023Y-112389490D01*
X185528048Y-112398384D01*
X185533446Y-112406016D01*
X185537138Y-112412267D01*
X185539047Y-112417023D01*
X185539186Y-112419160D01*
X185539598Y-112421596D01*
X185541218Y-112427317D01*
X185543861Y-112434091D01*
X185547481Y-112441827D01*
X185552031Y-112450432D01*
X185557465Y-112459811D01*
X185563736Y-112469872D01*
X185570797Y-112480523D01*
X185578603Y-112491670D01*
X185587107Y-112503219D01*
X185596261Y-112515079D01*
X185606020Y-112527156D01*
X185616337Y-112539357D01*
X185627166Y-112551588D01*
X185638460Y-112563758D01*
X185650172Y-112575773D01*
X185675018Y-112603813D01*
X185705074Y-112639356D01*
X185739097Y-112680976D01*
X185775850Y-112727247D01*
X185814090Y-112776743D01*
X185852579Y-112828037D01*
X185890075Y-112879703D01*
X185925339Y-112930315D01*
X185962061Y-112983335D01*
X186003805Y-113041936D01*
X186096657Y-113168440D01*
X186192486Y-113294944D01*
X186279881Y-113406565D01*
X186324220Y-113463420D01*
X186376619Y-113532986D01*
X186498162Y-113699591D01*
X186629627Y-113885047D01*
X186756131Y-114068023D01*
X186813192Y-114153310D01*
X186868331Y-114233388D01*
X186920121Y-114306520D01*
X186967136Y-114370971D01*
X187007950Y-114425004D01*
X187041137Y-114466883D01*
X187065270Y-114494871D01*
X187073495Y-114503113D01*
X187078923Y-114507232D01*
X187081387Y-114508316D01*
X187083818Y-114509581D01*
X187086211Y-114511019D01*
X187088565Y-114512627D01*
X187090877Y-114514397D01*
X187093143Y-114516324D01*
X187095360Y-114518403D01*
X187097526Y-114520626D01*
X187099638Y-114522990D01*
X187101692Y-114525487D01*
X187103687Y-114528111D01*
X187105619Y-114530858D01*
X187107484Y-114533722D01*
X187109281Y-114536695D01*
X187111006Y-114539774D01*
X187112657Y-114542951D01*
X187114230Y-114546221D01*
X187115723Y-114549578D01*
X187117132Y-114553017D01*
X187118455Y-114556531D01*
X187119689Y-114560115D01*
X187120831Y-114563763D01*
X187121878Y-114567469D01*
X187122827Y-114571228D01*
X187123675Y-114575033D01*
X187124420Y-114578878D01*
X187125058Y-114582759D01*
X187125587Y-114586668D01*
X187126003Y-114590601D01*
X187126304Y-114594551D01*
X187126486Y-114598513D01*
X187126548Y-114602481D01*
X187126791Y-114610289D01*
X187127499Y-114617819D01*
X187128641Y-114625038D01*
X187130186Y-114631916D01*
X187132103Y-114638422D01*
X187134361Y-114644525D01*
X187136929Y-114650194D01*
X187139777Y-114655398D01*
X187142872Y-114660106D01*
X187146185Y-114664287D01*
X187149683Y-114667909D01*
X187153337Y-114670942D01*
X187155212Y-114672229D01*
X187157114Y-114673356D01*
X187159040Y-114674320D01*
X187160985Y-114675118D01*
X187162945Y-114675745D01*
X187164917Y-114676198D01*
X187166897Y-114676473D01*
X187168881Y-114676565D01*
X187171110Y-114677072D01*
X187173821Y-114678576D01*
X187176996Y-114681052D01*
X187180622Y-114684471D01*
X187189159Y-114694041D01*
X187199308Y-114707075D01*
X187210945Y-114723364D01*
X187223947Y-114742700D01*
X187238189Y-114764874D01*
X187253547Y-114789674D01*
X187269898Y-114816894D01*
X187287116Y-114846322D01*
X187323662Y-114910969D01*
X187362192Y-114981942D01*
X187401714Y-115057565D01*
X187904422Y-116078857D01*
X187960313Y-116198368D01*
X188012716Y-116327513D01*
X188061366Y-116464519D01*
X188106002Y-116607610D01*
X188146359Y-116755010D01*
X188182173Y-116904946D01*
X188213181Y-117055641D01*
X188239120Y-117205320D01*
X188259726Y-117352209D01*
X188274736Y-117494532D01*
X188283885Y-117630515D01*
X188286911Y-117758382D01*
X188286832Y-117761142D01*
X188283549Y-117876358D01*
X188273537Y-117982668D01*
X188256610Y-118075537D01*
X188232506Y-118153190D01*
X188176044Y-118286329D01*
X188128078Y-118394787D01*
X188086189Y-118482658D01*
X188066768Y-118520152D01*
X188047959Y-118554033D01*
X188029460Y-118584815D01*
X188010969Y-118613007D01*
X187992183Y-118639121D01*
X187972801Y-118663670D01*
X187952519Y-118687165D01*
X187931036Y-118710117D01*
X187883256Y-118756440D01*
X187847388Y-118787549D01*
X187803932Y-118821014D01*
X187753857Y-118856340D01*
X187698130Y-118893031D01*
X187637722Y-118930589D01*
X187573600Y-118968520D01*
X187438094Y-119043513D01*
X187299364Y-119114041D01*
X187231212Y-119146390D01*
X187165160Y-119176135D01*
X187102178Y-119202780D01*
X187043235Y-119225827D01*
X186989299Y-119244782D01*
X186941339Y-119259148D01*
X186891699Y-119268391D01*
X186823765Y-119276284D01*
X186642691Y-119288087D01*
X186417464Y-119294681D01*
X186167433Y-119296190D01*
X185911945Y-119292738D01*
X185670347Y-119284449D01*
X185461988Y-119271447D01*
X185376319Y-119263218D01*
X185306214Y-119253857D01*
X185240379Y-119241392D01*
X185152591Y-119220618D01*
X185046695Y-119192651D01*
X184926537Y-119158606D01*
X184795961Y-119119601D01*
X184658812Y-119076751D01*
X184518934Y-119031172D01*
X184380172Y-118983981D01*
X184120963Y-118895842D01*
X183905907Y-118826554D01*
X183821912Y-118801150D01*
X183757327Y-118783064D01*
X183714942Y-118773162D01*
X183702947Y-118771553D01*
X183697548Y-118772315D01*
X183697282Y-118773568D01*
X183697473Y-118775334D01*
X183698109Y-118777598D01*
X183699180Y-118780345D01*
X183702594Y-118787232D01*
X183707635Y-118795879D01*
X183714226Y-118806169D01*
X183722290Y-118817986D01*
X183731749Y-118831214D01*
X183742527Y-118845737D01*
X183754544Y-118861437D01*
X183767724Y-118878200D01*
X183781989Y-118895908D01*
X183797262Y-118914445D01*
X183813465Y-118933696D01*
X183830521Y-118953544D01*
X183848352Y-118973872D01*
X183866881Y-118994564D01*
X183905452Y-119037818D01*
X183941295Y-119079645D01*
X183973665Y-119119115D01*
X184001818Y-119155299D01*
X184025011Y-119187266D01*
X184034514Y-119201378D01*
X184042498Y-119214086D01*
X184048870Y-119225275D01*
X184053536Y-119234829D01*
X184056404Y-119242631D01*
X184057381Y-119248565D01*
X184057799Y-119253743D01*
X184059054Y-119259359D01*
X184061144Y-119265414D01*
X184064068Y-119271912D01*
X184067825Y-119278856D01*
X184072415Y-119286248D01*
X184077836Y-119294092D01*
X184084087Y-119302391D01*
X184099077Y-119320363D01*
X184117377Y-119340187D01*
X184138979Y-119361887D01*
X184163876Y-119385487D01*
X184192059Y-119411009D01*
X184223521Y-119438476D01*
X184258254Y-119467912D01*
X184296250Y-119499341D01*
X184337502Y-119532784D01*
X184382002Y-119568267D01*
X184480714Y-119645440D01*
X184567283Y-119711172D01*
X184637480Y-119766487D01*
X184666904Y-119790702D01*
X184692794Y-119812871D01*
X184715336Y-119833180D01*
X184734714Y-119851815D01*
X184751116Y-119868961D01*
X184764728Y-119884805D01*
X184775735Y-119899533D01*
X184784323Y-119913330D01*
X184790680Y-119926384D01*
X184794989Y-119938879D01*
X184797439Y-119951002D01*
X184798214Y-119962939D01*
X184798291Y-119965465D01*
X184798520Y-119968077D01*
X184799423Y-119973533D01*
X184800900Y-119979253D01*
X184802927Y-119985181D01*
X184805481Y-119991265D01*
X184808539Y-119997449D01*
X184812078Y-120003680D01*
X184816074Y-120009904D01*
X184820504Y-120016065D01*
X184825344Y-120022110D01*
X184830573Y-120027984D01*
X184836165Y-120033634D01*
X184842099Y-120039004D01*
X184848351Y-120044042D01*
X184854897Y-120048691D01*
X184861714Y-120052899D01*
X184868287Y-120057426D01*
X184871295Y-120059364D01*
X184874116Y-120061084D01*
X184876752Y-120062588D01*
X184879201Y-120063875D01*
X184881465Y-120064944D01*
X184883542Y-120065797D01*
X184885434Y-120066433D01*
X184887139Y-120066851D01*
X184888658Y-120067053D01*
X184889991Y-120067037D01*
X184891139Y-120066805D01*
X184892100Y-120066355D01*
X184892875Y-120065688D01*
X184893464Y-120064805D01*
X184893867Y-120063704D01*
X184894084Y-120062386D01*
X184894115Y-120060851D01*
X184893960Y-120059100D01*
X184893619Y-120057131D01*
X184893092Y-120054945D01*
X184892379Y-120052542D01*
X184891480Y-120049922D01*
X184890395Y-120047085D01*
X184889123Y-120044031D01*
X184886023Y-120037272D01*
X184882178Y-120029644D01*
X184877589Y-120021149D01*
X184876051Y-120018046D01*
X184875394Y-120015673D01*
X184875599Y-120014018D01*
X184876020Y-120013455D01*
X184876649Y-120013066D01*
X184878523Y-120012804D01*
X184881205Y-120013219D01*
X184884676Y-120014296D01*
X184888916Y-120016022D01*
X184899635Y-120021368D01*
X184913215Y-120029148D01*
X184929507Y-120039253D01*
X184948365Y-120051575D01*
X184969641Y-120066006D01*
X184993189Y-120082436D01*
X185018860Y-120100758D01*
X185046509Y-120120863D01*
X185107146Y-120165987D01*
X185173922Y-120216940D01*
X185325479Y-120331703D01*
X185489438Y-120452419D01*
X185646452Y-120565198D01*
X185777173Y-120656148D01*
X185885238Y-120733208D01*
X185937628Y-120771490D01*
X185986855Y-120808284D01*
X186031369Y-120842597D01*
X186069620Y-120873438D01*
X186100057Y-120899814D01*
X186111862Y-120911017D01*
X186121131Y-120920732D01*
X186129974Y-120930202D01*
X186140530Y-120940679D01*
X186152652Y-120952056D01*
X186166193Y-120964223D01*
X186196940Y-120990495D01*
X186231594Y-121018628D01*
X186268977Y-121047753D01*
X186307910Y-121077001D01*
X186347215Y-121105506D01*
X186385714Y-121132398D01*
X186426146Y-121161203D01*
X186471043Y-121195154D01*
X186518916Y-121232950D01*
X186568277Y-121273289D01*
X186617638Y-121314868D01*
X186665511Y-121356385D01*
X186710408Y-121396537D01*
X186750839Y-121434024D01*
X186768801Y-121451681D01*
X186786878Y-121468874D01*
X186822855Y-121501492D01*
X186857716Y-121531134D01*
X186890407Y-121557055D01*
X186905609Y-121568387D01*
X186919873Y-121578510D01*
X186933067Y-121587332D01*
X186945060Y-121594757D01*
X186955720Y-121600695D01*
X186964914Y-121605051D01*
X186972512Y-121607733D01*
X186978381Y-121608648D01*
X186981280Y-121608756D01*
X186984025Y-121609075D01*
X186986617Y-121609603D01*
X186989057Y-121610333D01*
X186991346Y-121611260D01*
X186993485Y-121612380D01*
X186995474Y-121613688D01*
X186997315Y-121615180D01*
X186999009Y-121616849D01*
X187000557Y-121618693D01*
X187001959Y-121620704D01*
X187003217Y-121622880D01*
X187004331Y-121625214D01*
X187005303Y-121627703D01*
X187006134Y-121630340D01*
X187006824Y-121633122D01*
X187007374Y-121636044D01*
X187007786Y-121639100D01*
X187008061Y-121642286D01*
X187008198Y-121645597D01*
X187008200Y-121649028D01*
X187008068Y-121652575D01*
X187007802Y-121656232D01*
X187007402Y-121659994D01*
X187006872Y-121663858D01*
X187006210Y-121667817D01*
X187005419Y-121671867D01*
X187004498Y-121676004D01*
X187003450Y-121680222D01*
X187002275Y-121684516D01*
X187000974Y-121688883D01*
X186999548Y-121693316D01*
X186996820Y-121701001D01*
X186994597Y-121708167D01*
X186992885Y-121714790D01*
X186991693Y-121720848D01*
X186991027Y-121726317D01*
X186990895Y-121728823D01*
X186990897Y-121731173D01*
X186991035Y-121733364D01*
X186991309Y-121735393D01*
X186991721Y-121737258D01*
X186992272Y-121738955D01*
X186992962Y-121740482D01*
X186993792Y-121741835D01*
X186994764Y-121743012D01*
X186995879Y-121744009D01*
X186997137Y-121744825D01*
X186998539Y-121745455D01*
X187000086Y-121745897D01*
X187001780Y-121746149D01*
X187003621Y-121746207D01*
X187005611Y-121746068D01*
X187007749Y-121745729D01*
X187010038Y-121745188D01*
X187012478Y-121744441D01*
X187015070Y-121743487D01*
X187017815Y-121742321D01*
X187020714Y-121740940D01*
X187028137Y-121737031D01*
X187036498Y-121734225D01*
X187045775Y-121732508D01*
X187055947Y-121731866D01*
X187066992Y-121732286D01*
X187078885Y-121733755D01*
X187091607Y-121736258D01*
X187105133Y-121739783D01*
X187119442Y-121744315D01*
X187134512Y-121749842D01*
X187166845Y-121763823D01*
X187201953Y-121781617D01*
X187239657Y-121803117D01*
X187279780Y-121828214D01*
X187322143Y-121856799D01*
X187366568Y-121888763D01*
X187412876Y-121923999D01*
X187460890Y-121962397D01*
X187510431Y-122003849D01*
X187561321Y-122048247D01*
X187613381Y-122095482D01*
X187666938Y-122144368D01*
X187723348Y-122194866D01*
X187838277Y-122295242D01*
X187945268Y-122385697D01*
X187991756Y-122423792D01*
X188031423Y-122455315D01*
X188169388Y-122563132D01*
X188347352Y-122707661D01*
X188764980Y-123057242D01*
X189167725Y-123404838D01*
X189327085Y-123546887D01*
X189439006Y-123651232D01*
X189473856Y-123685607D01*
X189506475Y-123716881D01*
X189536116Y-123744435D01*
X189562037Y-123767648D01*
X189583493Y-123785900D01*
X189599740Y-123798572D01*
X189605678Y-123802620D01*
X189610034Y-123805041D01*
X189612716Y-123805757D01*
X189613400Y-123805451D01*
X189613631Y-123804690D01*
X189615160Y-123804175D01*
X189619663Y-123806518D01*
X189637082Y-123819315D01*
X189702018Y-123874061D01*
X189800317Y-123961425D01*
X189923855Y-124073904D01*
X190064508Y-124203994D01*
X190214152Y-124344192D01*
X190364665Y-124486994D01*
X190507923Y-124624898D01*
X190642860Y-124753139D01*
X190789704Y-124888820D01*
X190930595Y-125015572D01*
X190993226Y-125070483D01*
X191047673Y-125117023D01*
X191085284Y-125147458D01*
X191118872Y-125175459D01*
X191148632Y-125201320D01*
X191174755Y-125225337D01*
X191197437Y-125247803D01*
X191216872Y-125269014D01*
X191233252Y-125289263D01*
X191240357Y-125299120D01*
X191246772Y-125308846D01*
X191252519Y-125318480D01*
X191257625Y-125328057D01*
X191262112Y-125337615D01*
X191266006Y-125347190D01*
X191269329Y-125356820D01*
X191272107Y-125366540D01*
X191274364Y-125376389D01*
X191276124Y-125386402D01*
X191278249Y-125407070D01*
X191278677Y-125428839D01*
X191277600Y-125452003D01*
X191275214Y-125476857D01*
X191269506Y-125513240D01*
X191261361Y-125547961D01*
X191250854Y-125581005D01*
X191238059Y-125612353D01*
X191223051Y-125641987D01*
X191205905Y-125669892D01*
X191186694Y-125696048D01*
X191165495Y-125720439D01*
X191142381Y-125743047D01*
X191117427Y-125763855D01*
X191090707Y-125782845D01*
X191062297Y-125800000D01*
X191032271Y-125815302D01*
X191000703Y-125828734D01*
X190967668Y-125840279D01*
X190933240Y-125849919D01*
X190897495Y-125857636D01*
X190860507Y-125863414D01*
X190822350Y-125867235D01*
X190783100Y-125869080D01*
X190742830Y-125868934D01*
X190701615Y-125866778D01*
X190659530Y-125862595D01*
X190616650Y-125856368D01*
X190573049Y-125848079D01*
X190528801Y-125837710D01*
X190483982Y-125825245D01*
X190438666Y-125810666D01*
X190392927Y-125793954D01*
X190346841Y-125775094D01*
X190300481Y-125754067D01*
X190253923Y-125730857D01*
X190210194Y-125707922D01*
X190167024Y-125683314D01*
X190125465Y-125657838D01*
X190086574Y-125632299D01*
X190051403Y-125607505D01*
X190021007Y-125584261D01*
X190007929Y-125573472D01*
X189996440Y-125563373D01*
X189986671Y-125554065D01*
X189978756Y-125545648D01*
X189972445Y-125537839D01*
X189965475Y-125530310D01*
X189957932Y-125523091D01*
X189949900Y-125516213D01*
X189941465Y-125509707D01*
X189932712Y-125503604D01*
X189923727Y-125497936D01*
X189914594Y-125492732D01*
X189905400Y-125488024D01*
X189896229Y-125483844D01*
X189887166Y-125480221D01*
X189878297Y-125477188D01*
X189869707Y-125474775D01*
X189861481Y-125473012D01*
X189853705Y-125471932D01*
X189846464Y-125471566D01*
X189838656Y-125471320D01*
X189831127Y-125470594D01*
X189823907Y-125469403D01*
X189817029Y-125467762D01*
X189810523Y-125465687D01*
X189804420Y-125463194D01*
X189798751Y-125460297D01*
X189793548Y-125457013D01*
X189791130Y-125455231D01*
X189788840Y-125453357D01*
X189786682Y-125451394D01*
X189784659Y-125449344D01*
X189782776Y-125447209D01*
X189781037Y-125444991D01*
X189779445Y-125442691D01*
X189778003Y-125440311D01*
X189776717Y-125437854D01*
X189775590Y-125435322D01*
X189774626Y-125432716D01*
X189773828Y-125430038D01*
X189773201Y-125427290D01*
X189772748Y-125424475D01*
X189772473Y-125421593D01*
X189772381Y-125418648D01*
X189771981Y-125415907D01*
X189770795Y-125412658D01*
X189768841Y-125408918D01*
X189766139Y-125404706D01*
X189762708Y-125400041D01*
X189758568Y-125394940D01*
X189748238Y-125383508D01*
X189735303Y-125370557D01*
X189719919Y-125356234D01*
X189702241Y-125340685D01*
X189682423Y-125324060D01*
X189660620Y-125306504D01*
X189636989Y-125288165D01*
X189611683Y-125269191D01*
X189584858Y-125249728D01*
X189556668Y-125229924D01*
X189527269Y-125209927D01*
X189496816Y-125189883D01*
X189465464Y-125169939D01*
X189344583Y-125088829D01*
X189236600Y-125017144D01*
X189154414Y-124962325D01*
X189127025Y-124943566D01*
X189110923Y-124931814D01*
X189082873Y-124910720D01*
X189034359Y-124871209D01*
X188965257Y-124813218D01*
X188875443Y-124736685D01*
X188633184Y-124527747D01*
X188306589Y-124243898D01*
X188202161Y-124160637D01*
X188038699Y-124034216D01*
X187838525Y-123882990D01*
X187731648Y-123803811D01*
X187623964Y-123725315D01*
X187443490Y-123589923D01*
X187277526Y-123459740D01*
X187129669Y-123337990D01*
X187003516Y-123227899D01*
X186902665Y-123132690D01*
X186862851Y-123091674D01*
X186830710Y-123055589D01*
X186806694Y-123024836D01*
X186791250Y-122999819D01*
X186784830Y-122980942D01*
X186785143Y-122973931D01*
X186787881Y-122968606D01*
X186788688Y-122967522D01*
X186789130Y-122966258D01*
X186789214Y-122964819D01*
X186788945Y-122963211D01*
X186788332Y-122961441D01*
X186787381Y-122959514D01*
X186786098Y-122957436D01*
X186784491Y-122955212D01*
X186782566Y-122952849D01*
X186780330Y-122950352D01*
X186777789Y-122947727D01*
X186774951Y-122944980D01*
X186771823Y-122942117D01*
X186768410Y-122939143D01*
X186760761Y-122932888D01*
X186752057Y-122926260D01*
X186742354Y-122919307D01*
X186731705Y-122912075D01*
X186720164Y-122904610D01*
X186707786Y-122896960D01*
X186694626Y-122889169D01*
X186680736Y-122881286D01*
X186666173Y-122873356D01*
X186649963Y-122864083D01*
X186631250Y-122852252D01*
X186610257Y-122838033D01*
X186587211Y-122821597D01*
X186535855Y-122782757D01*
X186478980Y-122737096D01*
X186418384Y-122685978D01*
X186355866Y-122630767D01*
X186293224Y-122572828D01*
X186262418Y-122543261D01*
X186232256Y-122513524D01*
X186166658Y-122452856D01*
X186094425Y-122387350D01*
X186017850Y-122319117D01*
X185939230Y-122250263D01*
X185860857Y-122182897D01*
X185785027Y-122119129D01*
X185714034Y-122061065D01*
X185650172Y-122010815D01*
X185616106Y-121984557D01*
X185573846Y-121949826D01*
X185467197Y-121857274D01*
X185335122Y-121737808D01*
X185182522Y-121596080D01*
X185014294Y-121436741D01*
X184835339Y-121264442D01*
X184650554Y-121083833D01*
X184464839Y-120899565D01*
X184162573Y-120601299D01*
X183898135Y-120345015D01*
X183670655Y-120130030D01*
X183479266Y-119955664D01*
X183323100Y-119821233D01*
X183201288Y-119726055D01*
X183152994Y-119692974D01*
X183112962Y-119669449D01*
X183081086Y-119655397D01*
X183057255Y-119650732D01*
X183052239Y-119650547D01*
X183047137Y-119649998D01*
X183041989Y-119649092D01*
X183036833Y-119647838D01*
X183031708Y-119646243D01*
X183026653Y-119644314D01*
X183021706Y-119642059D01*
X183016907Y-119639487D01*
X183012293Y-119636605D01*
X183007905Y-119633420D01*
X183003780Y-119629941D01*
X182999957Y-119626175D01*
X182996475Y-119622130D01*
X182994875Y-119620005D01*
X182993374Y-119617814D01*
X182991977Y-119615556D01*
X182990690Y-119613234D01*
X182989518Y-119610847D01*
X182988464Y-119608398D01*
X182985713Y-119603024D01*
X182981458Y-119596844D01*
X182968631Y-119582198D01*
X182950362Y-119564715D01*
X182927031Y-119544650D01*
X182899019Y-119522260D01*
X182866704Y-119497800D01*
X182830467Y-119471527D01*
X182790688Y-119443695D01*
X182747746Y-119414561D01*
X182702022Y-119384381D01*
X182653894Y-119353410D01*
X182603743Y-119321904D01*
X182551949Y-119290120D01*
X182498892Y-119258311D01*
X182444951Y-119226736D01*
X182390506Y-119195648D01*
X182323027Y-119160136D01*
X182293454Y-119145465D01*
X182266400Y-119132810D01*
X182241671Y-119122138D01*
X182219075Y-119113420D01*
X182198416Y-119106625D01*
X182179501Y-119101721D01*
X182162136Y-119098677D01*
X182146128Y-119097463D01*
X182131282Y-119098046D01*
X182117406Y-119100398D01*
X182104305Y-119104485D01*
X182091785Y-119110278D01*
X182079652Y-119117745D01*
X182067714Y-119126856D01*
X182058503Y-119133978D01*
X182046857Y-119141418D01*
X182032949Y-119149122D01*
X182016947Y-119157035D01*
X181999023Y-119165103D01*
X181979348Y-119173272D01*
X181958090Y-119181488D01*
X181935423Y-119189695D01*
X181911515Y-119197841D01*
X181886537Y-119205870D01*
X181860660Y-119213729D01*
X181834054Y-119221363D01*
X181806890Y-119228717D01*
X181779339Y-119235739D01*
X181751571Y-119242373D01*
X181723756Y-119248565D01*
X181459172Y-119312065D01*
X181565006Y-119433773D01*
X181565105Y-119433882D01*
X181576718Y-119446718D01*
X181588012Y-119459694D01*
G37*
G36*
X176637245Y-117160713D02*
G01*
X176646053Y-117204023D01*
X176649047Y-117243023D01*
X176649293Y-117250891D01*
X176650019Y-117258588D01*
X176651210Y-117266068D01*
X176652851Y-117273285D01*
X176654926Y-117280192D01*
X176657419Y-117286742D01*
X176660316Y-117292888D01*
X176663600Y-117298586D01*
X176667256Y-117303787D01*
X176671268Y-117308446D01*
X176673404Y-117310557D01*
X176675622Y-117312515D01*
X176677922Y-117314314D01*
X176680301Y-117315949D01*
X176682758Y-117317413D01*
X176685291Y-117318701D01*
X176687897Y-117319806D01*
X176690574Y-117320724D01*
X176693322Y-117321448D01*
X176696137Y-117321972D01*
X176699019Y-117322291D01*
X176701964Y-117322398D01*
X176704443Y-117322675D01*
X176706918Y-117323498D01*
X176709383Y-117324853D01*
X176711834Y-117326729D01*
X176714265Y-117329112D01*
X176716672Y-117331991D01*
X176719050Y-117335352D01*
X176721394Y-117339183D01*
X176723700Y-117343471D01*
X176725961Y-117348204D01*
X176728175Y-117353369D01*
X176730335Y-117358954D01*
X176734475Y-117371332D01*
X176738345Y-117385237D01*
X176741904Y-117400568D01*
X176745114Y-117417225D01*
X176747937Y-117435106D01*
X176750334Y-117454111D01*
X176752265Y-117474139D01*
X176753693Y-117495090D01*
X176754578Y-117516863D01*
X176754881Y-117539356D01*
X176754483Y-117570904D01*
X176753186Y-117600252D01*
X176750835Y-117627676D01*
X176747274Y-117653458D01*
X176742350Y-117677875D01*
X176735905Y-117701207D01*
X176727787Y-117723733D01*
X176717839Y-117745731D01*
X176705907Y-117767482D01*
X176691836Y-117789264D01*
X176675470Y-117811355D01*
X176656654Y-117834036D01*
X176635234Y-117857585D01*
X176611055Y-117882281D01*
X176583961Y-117908404D01*
X176553797Y-117936231D01*
X176520838Y-117967082D01*
X176491041Y-117994274D01*
X176463849Y-118017994D01*
X176438703Y-118038427D01*
X176426723Y-118047469D01*
X176415045Y-118055759D01*
X176403600Y-118063320D01*
X176392318Y-118070177D01*
X176381129Y-118076351D01*
X176369963Y-118081866D01*
X176358750Y-118086745D01*
X176347422Y-118091013D01*
X176335907Y-118094691D01*
X176324136Y-118097803D01*
X176312040Y-118100372D01*
X176299549Y-118102423D01*
X176286592Y-118103977D01*
X176273101Y-118105058D01*
X176259005Y-118105690D01*
X176244235Y-118105895D01*
X176212392Y-118105120D01*
X176177014Y-118102919D01*
X176137544Y-118099477D01*
X176093423Y-118094981D01*
X176040785Y-118088088D01*
X175990814Y-118079520D01*
X175944687Y-118069588D01*
X175923434Y-118064207D01*
X175903584Y-118058601D01*
X175885284Y-118052810D01*
X175868681Y-118046871D01*
X175853924Y-118040823D01*
X175841159Y-118034706D01*
X175830533Y-118028558D01*
X175822193Y-118022418D01*
X175816288Y-118016324D01*
X175814294Y-118013306D01*
X175812964Y-118010315D01*
X175809533Y-118002687D01*
X175805236Y-117995671D01*
X175800136Y-117989263D01*
X175794298Y-117983454D01*
X175787786Y-117978238D01*
X175780664Y-117973608D01*
X175772995Y-117969558D01*
X175764843Y-117966080D01*
X175756273Y-117963168D01*
X175747348Y-117960815D01*
X175738132Y-117959015D01*
X175728690Y-117957760D01*
X175719085Y-117957044D01*
X175709381Y-117956860D01*
X175699642Y-117957200D01*
X175689933Y-117958060D01*
X175680316Y-117959431D01*
X175670856Y-117961306D01*
X175661618Y-117963680D01*
X175652664Y-117966545D01*
X175644059Y-117969895D01*
X175635866Y-117973722D01*
X175628151Y-117978020D01*
X175620976Y-117982782D01*
X175614405Y-117988001D01*
X175608504Y-117993671D01*
X175603334Y-117999785D01*
X175598961Y-118006336D01*
X175595449Y-118013317D01*
X175592861Y-118020721D01*
X175591261Y-118028542D01*
X175590714Y-118036773D01*
X175592300Y-118058487D01*
X175596956Y-118083727D01*
X175604527Y-118112176D01*
X175614857Y-118143516D01*
X175627792Y-118177430D01*
X175643176Y-118213600D01*
X175660855Y-118251707D01*
X175680673Y-118291435D01*
X175702475Y-118332464D01*
X175726107Y-118374479D01*
X175751413Y-118417159D01*
X175778238Y-118460189D01*
X175806427Y-118503250D01*
X175835826Y-118546024D01*
X175866279Y-118588193D01*
X175897631Y-118629440D01*
X175910089Y-118647098D01*
X175921640Y-118664291D01*
X175932245Y-118680925D01*
X175941866Y-118696909D01*
X175950464Y-118712148D01*
X175957999Y-118726550D01*
X175964434Y-118740022D01*
X175969730Y-118752471D01*
X175973847Y-118763804D01*
X175976747Y-118773927D01*
X175978392Y-118782748D01*
X175978742Y-118790174D01*
X175978420Y-118793335D01*
X175977759Y-118796112D01*
X175976756Y-118798493D01*
X175975404Y-118800468D01*
X175973700Y-118802024D01*
X175971639Y-118803150D01*
X175969215Y-118803834D01*
X175966423Y-118804065D01*
X175963013Y-118804127D01*
X175959730Y-118804310D01*
X175956576Y-118804614D01*
X175953556Y-118805036D01*
X175950671Y-118805575D01*
X175947924Y-118806227D01*
X175945319Y-118806993D01*
X175942859Y-118807868D01*
X175940545Y-118808852D01*
X175938382Y-118809943D01*
X175936372Y-118811138D01*
X175934518Y-118812436D01*
X175932823Y-118813835D01*
X175931289Y-118815333D01*
X175929921Y-118816927D01*
X175928720Y-118818617D01*
X175927689Y-118820399D01*
X175926832Y-118822273D01*
X175926151Y-118824236D01*
X175925650Y-118826286D01*
X175925331Y-118828421D01*
X175925197Y-118830639D01*
X175925250Y-118832939D01*
X175925495Y-118835319D01*
X175925933Y-118837776D01*
X175926569Y-118840308D01*
X175927403Y-118842914D01*
X175928441Y-118845592D01*
X175929683Y-118848340D01*
X175931134Y-118851155D01*
X175932796Y-118854036D01*
X175934673Y-118856982D01*
X175936253Y-118859415D01*
X175938012Y-118861754D01*
X175939944Y-118863996D01*
X175942042Y-118866139D01*
X175944298Y-118868181D01*
X175946707Y-118870120D01*
X175949260Y-118871955D01*
X175951953Y-118873684D01*
X175954777Y-118875303D01*
X175957726Y-118876813D01*
X175960794Y-118878209D01*
X175963973Y-118879492D01*
X175967256Y-118880658D01*
X175970638Y-118881706D01*
X175974110Y-118882634D01*
X175977667Y-118883440D01*
X175981301Y-118884122D01*
X175985006Y-118884678D01*
X175988775Y-118885106D01*
X175992601Y-118885404D01*
X175996478Y-118885570D01*
X176000398Y-118885603D01*
X176004355Y-118885500D01*
X176008342Y-118885259D01*
X176012352Y-118884879D01*
X176016379Y-118884357D01*
X176020415Y-118883692D01*
X176024455Y-118882882D01*
X176028490Y-118881924D01*
X176032515Y-118880817D01*
X176036522Y-118879559D01*
X176040506Y-118878148D01*
X176044039Y-118876814D01*
X176047688Y-118875785D01*
X176051447Y-118875057D01*
X176055306Y-118874624D01*
X176059257Y-118874481D01*
X176063295Y-118874625D01*
X176067409Y-118875050D01*
X176071594Y-118875750D01*
X176075840Y-118876722D01*
X176080141Y-118877961D01*
X176084488Y-118879461D01*
X176088875Y-118881218D01*
X176093292Y-118883227D01*
X176097732Y-118885482D01*
X176102188Y-118887980D01*
X176106651Y-118890716D01*
X176111115Y-118893684D01*
X176115571Y-118896880D01*
X176124428Y-118903935D01*
X176133162Y-118911843D01*
X176141709Y-118920564D01*
X176150008Y-118930061D01*
X176157998Y-118940294D01*
X176165615Y-118951225D01*
X176172798Y-118962815D01*
X176179782Y-118975686D01*
X176188735Y-118990379D01*
X176199517Y-119006731D01*
X176211989Y-119024579D01*
X176226011Y-119043760D01*
X176241444Y-119064111D01*
X176275985Y-119107674D01*
X176314494Y-119153966D01*
X176355856Y-119201684D01*
X176398954Y-119249526D01*
X176442673Y-119296191D01*
X176483445Y-119341634D01*
X176521799Y-119385900D01*
X176556805Y-119427809D01*
X176587532Y-119466184D01*
X176613050Y-119499846D01*
X176632428Y-119527617D01*
X176639525Y-119538926D01*
X176644738Y-119548319D01*
X176647951Y-119555651D01*
X176649047Y-119560773D01*
X176649155Y-119563330D01*
X176649475Y-119566037D01*
X176650002Y-119568886D01*
X176650732Y-119571874D01*
X176652780Y-119578238D01*
X176655579Y-119585082D01*
X176659092Y-119592361D01*
X176663279Y-119600027D01*
X176668102Y-119608034D01*
X176673521Y-119616336D01*
X176679499Y-119624886D01*
X176685996Y-119633637D01*
X176692973Y-119642544D01*
X176700393Y-119651558D01*
X176708215Y-119660635D01*
X176716402Y-119669728D01*
X176724915Y-119678789D01*
X176733714Y-119687773D01*
X176741459Y-119696939D01*
X176748793Y-119706532D01*
X176755678Y-119716481D01*
X176762074Y-119726717D01*
X176767943Y-119737169D01*
X176773246Y-119747770D01*
X176777945Y-119758447D01*
X176782001Y-119769133D01*
X176785374Y-119779756D01*
X176788026Y-119790247D01*
X176789919Y-119800537D01*
X176791013Y-119810556D01*
X176791270Y-119820234D01*
X176790652Y-119829501D01*
X176790002Y-119833958D01*
X176789118Y-119838287D01*
X176787997Y-119842478D01*
X176786632Y-119846523D01*
X176784787Y-119850972D01*
X176783219Y-119855386D01*
X176781930Y-119859761D01*
X176780916Y-119864093D01*
X176780177Y-119868379D01*
X176779713Y-119872615D01*
X176779522Y-119876796D01*
X176779603Y-119880919D01*
X176779955Y-119884981D01*
X176780578Y-119888976D01*
X176781470Y-119892901D01*
X176782631Y-119896753D01*
X176784059Y-119900527D01*
X176785753Y-119904220D01*
X176787713Y-119907828D01*
X176789937Y-119911347D01*
X176792426Y-119914772D01*
X176795176Y-119918101D01*
X176798188Y-119921328D01*
X176801461Y-119924452D01*
X176804994Y-119927466D01*
X176808785Y-119930369D01*
X176812834Y-119933155D01*
X176817140Y-119935820D01*
X176821701Y-119938362D01*
X176826518Y-119940776D01*
X176831588Y-119943058D01*
X176836911Y-119945205D01*
X176842487Y-119947212D01*
X176848313Y-119949076D01*
X176854389Y-119950792D01*
X176860714Y-119952357D01*
X176871554Y-119955514D01*
X176882201Y-119959013D01*
X176892584Y-119962822D01*
X176902634Y-119966909D01*
X176912281Y-119971245D01*
X176921455Y-119975797D01*
X176930086Y-119980536D01*
X176938105Y-119985430D01*
X176945442Y-119990448D01*
X176952027Y-119995558D01*
X176957790Y-120000731D01*
X176962662Y-120005935D01*
X176966572Y-120011139D01*
X176968145Y-120013731D01*
X176969452Y-120016312D01*
X176970483Y-120018877D01*
X176971231Y-120021422D01*
X176971686Y-120023945D01*
X176971839Y-120026440D01*
X176973824Y-120037055D01*
X176975808Y-120048847D01*
X176979776Y-120074727D01*
X176983745Y-120101598D01*
X176987714Y-120126981D01*
X176987867Y-120129554D01*
X176988322Y-120132304D01*
X176989070Y-120135225D01*
X176990101Y-120138309D01*
X176991408Y-120141548D01*
X176992981Y-120144934D01*
X176996891Y-120152117D01*
X177001763Y-120159796D01*
X177007527Y-120167910D01*
X177014112Y-120176395D01*
X177021448Y-120185190D01*
X177029467Y-120194234D01*
X177038099Y-120203463D01*
X177047272Y-120212817D01*
X177056919Y-120222232D01*
X177066969Y-120231648D01*
X177077352Y-120241001D01*
X177087999Y-120250231D01*
X177098839Y-120259274D01*
X177109194Y-120267889D01*
X177118425Y-120275862D01*
X177126524Y-120283167D01*
X177133483Y-120289783D01*
X177139296Y-120295686D01*
X177143953Y-120300852D01*
X177147448Y-120305259D01*
X177148757Y-120307170D01*
X177149772Y-120308883D01*
X177150492Y-120310394D01*
X177150918Y-120311700D01*
X177151046Y-120312799D01*
X177150878Y-120313688D01*
X177150410Y-120314364D01*
X177149644Y-120314824D01*
X177148577Y-120315065D01*
X177147209Y-120315084D01*
X177145538Y-120314878D01*
X177143564Y-120314444D01*
X177138703Y-120312882D01*
X177132616Y-120310375D01*
X177125298Y-120306898D01*
X177121499Y-120305084D01*
X177118040Y-120303604D01*
X177114917Y-120302454D01*
X177112130Y-120301627D01*
X177109676Y-120301119D01*
X177107554Y-120300922D01*
X177105761Y-120301031D01*
X177104988Y-120301199D01*
X177104296Y-120301441D01*
X177103685Y-120301757D01*
X177103156Y-120302146D01*
X177102707Y-120302607D01*
X177102340Y-120303139D01*
X177102052Y-120303742D01*
X177101845Y-120304415D01*
X177101718Y-120305157D01*
X177101670Y-120305968D01*
X177101813Y-120307793D01*
X177102272Y-120309883D01*
X177103045Y-120312232D01*
X177104130Y-120314836D01*
X177105525Y-120317687D01*
X177107228Y-120320781D01*
X177109237Y-120324112D01*
X177111551Y-120327672D01*
X177114167Y-120331458D01*
X177117083Y-120335463D01*
X177120297Y-120339680D01*
X177123808Y-120344106D01*
X177127614Y-120348732D01*
X177131712Y-120353555D01*
X177136101Y-120358567D01*
X177140779Y-120363763D01*
X177145743Y-120369138D01*
X177150992Y-120374685D01*
X177156525Y-120380399D01*
X177162338Y-120386273D01*
X177174415Y-120397114D01*
X177186771Y-120407760D01*
X177199313Y-120418143D01*
X177211948Y-120428193D01*
X177224583Y-120437840D01*
X177237125Y-120447014D01*
X177249481Y-120455645D01*
X177261558Y-120463664D01*
X177273262Y-120471000D01*
X177284502Y-120477585D01*
X177295184Y-120483348D01*
X177305214Y-120488220D01*
X177314500Y-120492131D01*
X177322950Y-120495010D01*
X177330469Y-120496789D01*
X177336964Y-120497398D01*
X177339444Y-120497536D01*
X177341919Y-120497947D01*
X177344384Y-120498623D01*
X177346835Y-120499558D01*
X177349266Y-120500745D01*
X177351673Y-120502177D01*
X177354051Y-120503847D01*
X177356395Y-120505749D01*
X177358700Y-120507875D01*
X177360962Y-120510220D01*
X177363175Y-120512776D01*
X177365335Y-120515536D01*
X177367437Y-120518494D01*
X177369475Y-120521643D01*
X177371446Y-120524976D01*
X177373345Y-120528486D01*
X177375165Y-120532167D01*
X177376904Y-120536012D01*
X177378555Y-120540013D01*
X177380114Y-120544165D01*
X177381576Y-120548460D01*
X177382937Y-120552892D01*
X177384191Y-120557453D01*
X177385333Y-120562138D01*
X177386360Y-120566939D01*
X177387265Y-120571850D01*
X177388044Y-120576863D01*
X177388692Y-120581972D01*
X177389205Y-120587170D01*
X177389577Y-120592451D01*
X177389804Y-120597807D01*
X177389881Y-120603232D01*
X177389988Y-120608657D01*
X177390307Y-120614013D01*
X177391555Y-120624491D01*
X177393578Y-120634613D01*
X177396330Y-120644325D01*
X177399764Y-120653571D01*
X177403833Y-120662298D01*
X177408492Y-120670451D01*
X177413693Y-120677977D01*
X177419390Y-120684820D01*
X177425537Y-120690927D01*
X177428765Y-120693687D01*
X177432087Y-120696243D01*
X177435499Y-120698588D01*
X177438994Y-120700715D01*
X177442566Y-120702616D01*
X177446210Y-120704287D01*
X177449920Y-120705719D01*
X177453691Y-120706905D01*
X177457515Y-120707840D01*
X177461388Y-120708516D01*
X177465303Y-120708927D01*
X177469256Y-120709066D01*
X177473720Y-120709173D01*
X177478179Y-120709494D01*
X177482628Y-120710025D01*
X177487063Y-120710760D01*
X177491479Y-120711698D01*
X177495870Y-120712833D01*
X177500232Y-120714161D01*
X177504561Y-120715680D01*
X177513096Y-120719271D01*
X177521438Y-120723576D01*
X177529547Y-120728563D01*
X177537385Y-120734201D01*
X177544913Y-120740459D01*
X177552092Y-120747306D01*
X177558884Y-120754711D01*
X177565249Y-120762643D01*
X177571149Y-120771071D01*
X177576546Y-120779965D01*
X177581400Y-120789292D01*
X177585672Y-120799023D01*
X177592792Y-120811971D01*
X177607903Y-120832654D01*
X177630565Y-120860624D01*
X177660334Y-120895431D01*
X177739430Y-120983756D01*
X177841657Y-121094034D01*
X177963479Y-121222667D01*
X178101362Y-121366059D01*
X178251771Y-121520612D01*
X178411172Y-121682731D01*
X178646073Y-121918841D01*
X178830867Y-122108132D01*
X178971510Y-122257859D01*
X179027135Y-122320154D01*
X179073953Y-122375278D01*
X179112711Y-122424140D01*
X179144151Y-122467645D01*
X179169017Y-122506700D01*
X179188055Y-122542214D01*
X179202007Y-122575092D01*
X179211619Y-122606241D01*
X179217634Y-122636569D01*
X179220797Y-122666981D01*
X179221965Y-122710156D01*
X179221459Y-122750439D01*
X179219216Y-122787916D01*
X179215175Y-122822672D01*
X179209274Y-122854793D01*
X179201450Y-122884364D01*
X179191642Y-122911469D01*
X179185974Y-122924125D01*
X179179787Y-122936195D01*
X179173073Y-122947693D01*
X179165824Y-122958627D01*
X179158033Y-122969009D01*
X179149691Y-122978849D01*
X179140791Y-122988159D01*
X179131325Y-122996948D01*
X179121286Y-123005227D01*
X179110665Y-123013007D01*
X179099455Y-123020299D01*
X179087648Y-123027114D01*
X179062213Y-123039352D01*
X179034298Y-123049807D01*
X179003840Y-123058565D01*
X178990145Y-123062713D01*
X178976885Y-123067195D01*
X178964121Y-123071971D01*
X178951915Y-123077003D01*
X178940329Y-123082252D01*
X178929425Y-123087679D01*
X178919265Y-123093246D01*
X178909912Y-123098914D01*
X178901427Y-123104643D01*
X178893871Y-123110396D01*
X178887309Y-123116134D01*
X178881800Y-123121817D01*
X178877407Y-123127407D01*
X178874193Y-123132865D01*
X178873047Y-123135533D01*
X178872219Y-123138153D01*
X178871717Y-123140721D01*
X178871547Y-123143232D01*
X178871378Y-123146146D01*
X178870875Y-123148936D01*
X178870047Y-123151599D01*
X178868901Y-123154136D01*
X178867445Y-123156544D01*
X178865687Y-123158824D01*
X178863634Y-123160974D01*
X178861295Y-123162993D01*
X178858676Y-123164880D01*
X178855786Y-123166635D01*
X178852632Y-123168256D01*
X178849223Y-123169742D01*
X178845566Y-123171092D01*
X178841668Y-123172306D01*
X178837538Y-123173383D01*
X178833183Y-123174320D01*
X178828611Y-123175119D01*
X178823829Y-123175776D01*
X178818846Y-123176293D01*
X178813670Y-123176667D01*
X178808307Y-123176897D01*
X178802766Y-123176983D01*
X178797055Y-123176924D01*
X178791180Y-123176718D01*
X178785151Y-123176365D01*
X178778974Y-123175864D01*
X178772658Y-123175214D01*
X178766210Y-123174414D01*
X178759638Y-123173462D01*
X178752950Y-123172358D01*
X178746153Y-123171101D01*
X178739256Y-123169691D01*
X178469380Y-123116773D01*
X178443371Y-123108255D01*
X178412179Y-123092846D01*
X178335476Y-123042680D01*
X178241719Y-122968933D01*
X178133359Y-122874266D01*
X178012844Y-122761336D01*
X177882625Y-122632803D01*
X177745150Y-122491324D01*
X177602869Y-122339560D01*
X177458232Y-122180168D01*
X177313688Y-122015807D01*
X177171686Y-121849136D01*
X177034677Y-121682814D01*
X176905108Y-121519500D01*
X176785431Y-121361852D01*
X176678094Y-121212528D01*
X176585546Y-121074189D01*
X176563925Y-121042202D01*
X176535607Y-121002835D01*
X176501831Y-120957639D01*
X176463839Y-120908164D01*
X176422869Y-120855960D01*
X176380164Y-120802578D01*
X176336962Y-120749568D01*
X176294505Y-120698481D01*
X176093505Y-120457627D01*
X176025778Y-120374501D01*
X175976344Y-120311528D01*
X175942537Y-120265174D01*
X175930661Y-120247125D01*
X175921691Y-120231905D01*
X175915295Y-120219073D01*
X175911139Y-120208186D01*
X175908890Y-120198802D01*
X175908214Y-120190481D01*
X175908030Y-120188313D01*
X175907483Y-120185784D01*
X175906583Y-120182906D01*
X175905341Y-120179691D01*
X175901866Y-120172296D01*
X175897135Y-120163692D01*
X175891225Y-120153972D01*
X175884215Y-120143228D01*
X175876182Y-120131555D01*
X175867203Y-120119044D01*
X175857356Y-120105789D01*
X175846719Y-120091883D01*
X175823382Y-120062489D01*
X175797812Y-120031608D01*
X175770631Y-119999982D01*
X175748194Y-119973925D01*
X175728308Y-119951271D01*
X175710670Y-119931951D01*
X175694977Y-119915894D01*
X175687765Y-119909067D01*
X175680927Y-119903030D01*
X175674424Y-119897774D01*
X175668218Y-119893290D01*
X175662273Y-119889570D01*
X175656549Y-119886605D01*
X175651009Y-119884386D01*
X175645615Y-119882904D01*
X175640330Y-119882150D01*
X175635116Y-119882117D01*
X175629934Y-119882795D01*
X175624748Y-119884175D01*
X175619519Y-119886249D01*
X175614210Y-119889008D01*
X175608782Y-119892443D01*
X175603199Y-119896546D01*
X175597421Y-119901308D01*
X175591412Y-119906720D01*
X175578549Y-119919460D01*
X175564305Y-119934695D01*
X175548380Y-119952357D01*
X175524076Y-119979330D01*
X175498812Y-120004674D01*
X175472617Y-120028376D01*
X175445523Y-120050418D01*
X175417561Y-120070786D01*
X175388762Y-120089465D01*
X175359157Y-120106438D01*
X175328776Y-120121690D01*
X175297652Y-120135206D01*
X175265814Y-120146970D01*
X175233294Y-120156967D01*
X175200123Y-120165181D01*
X175166332Y-120171597D01*
X175131952Y-120176199D01*
X175097014Y-120178971D01*
X175061548Y-120179899D01*
X175038946Y-120179138D01*
X175016661Y-120176788D01*
X174994517Y-120172748D01*
X174972333Y-120166917D01*
X174949932Y-120159196D01*
X174927137Y-120149482D01*
X174903767Y-120137675D01*
X174879646Y-120123674D01*
X174854594Y-120107379D01*
X174828435Y-120088689D01*
X174800988Y-120067503D01*
X174772076Y-120043720D01*
X174741521Y-120017240D01*
X174709145Y-119987961D01*
X174674769Y-119955784D01*
X174638214Y-119920607D01*
X174584305Y-119867483D01*
X174534365Y-119816096D01*
X174489386Y-119767686D01*
X174450360Y-119723492D01*
X174418279Y-119684755D01*
X174405154Y-119667821D01*
X174394136Y-119652716D01*
X174385351Y-119639595D01*
X174378923Y-119628614D01*
X174374975Y-119619927D01*
X174373631Y-119613690D01*
X174373370Y-119610964D01*
X174372594Y-119607757D01*
X174371316Y-119604086D01*
X174369549Y-119599965D01*
X174364597Y-119590436D01*
X174357839Y-119579294D01*
X174349375Y-119566665D01*
X174339307Y-119552671D01*
X174327736Y-119537436D01*
X174314761Y-119521086D01*
X174300484Y-119503743D01*
X174285005Y-119485532D01*
X174268426Y-119466577D01*
X174250847Y-119447002D01*
X174232369Y-119426931D01*
X174213092Y-119406488D01*
X174193118Y-119385796D01*
X174172547Y-119364981D01*
X173971464Y-119158606D01*
X173283547Y-119142731D01*
X173012122Y-119134349D01*
X172717504Y-119121316D01*
X172081016Y-119082539D01*
X171418732Y-119028878D01*
X171091868Y-118997242D01*
X170775299Y-118962815D01*
X170347333Y-118919159D01*
X170133103Y-118898819D01*
X169955089Y-118883440D01*
X169529772Y-118843091D01*
X169029047Y-118798773D01*
X168762645Y-118773390D01*
X168449610Y-118746518D01*
X167838422Y-118698232D01*
X167210698Y-118647299D01*
X166594882Y-118592398D01*
X165230127Y-118467548D01*
X164090599Y-118375440D01*
X162953056Y-118299207D01*
X161594255Y-118221982D01*
X160824400Y-118176589D01*
X160059009Y-118124747D01*
X159399784Y-118073898D01*
X158948423Y-118031482D01*
X158574037Y-118002377D01*
X157969465Y-117957398D01*
X157335125Y-117910931D01*
X156764286Y-117859502D01*
X156266870Y-117804106D01*
X156048796Y-117775229D01*
X155852798Y-117745732D01*
X155690905Y-117723573D01*
X155506192Y-117699429D01*
X155321480Y-117677270D01*
X155236255Y-117668175D01*
X155159588Y-117661064D01*
X155080424Y-117652170D01*
X155007484Y-117641252D01*
X154940543Y-117628148D01*
X154879378Y-117612695D01*
X154823763Y-117594731D01*
X154773472Y-117574093D01*
X154750254Y-117562720D01*
X154728283Y-117550618D01*
X154707530Y-117537766D01*
X154687969Y-117524143D01*
X154669570Y-117509730D01*
X154652305Y-117494505D01*
X154636148Y-117478450D01*
X154621068Y-117461542D01*
X154607039Y-117443763D01*
X154594033Y-117425091D01*
X154582020Y-117405506D01*
X154570974Y-117384989D01*
X154560865Y-117363518D01*
X154551666Y-117341073D01*
X154535886Y-117293180D01*
X154523407Y-117241148D01*
X154514006Y-117184815D01*
X154509558Y-117151585D01*
X154506203Y-117121139D01*
X154504042Y-117093157D01*
X154503175Y-117067323D01*
X154503703Y-117043318D01*
X154505727Y-117020825D01*
X154509349Y-116999525D01*
X154514667Y-116979101D01*
X154521784Y-116959236D01*
X154530800Y-116939610D01*
X154541816Y-116919907D01*
X154554933Y-116899809D01*
X154570251Y-116878998D01*
X154587871Y-116857155D01*
X154607894Y-116833964D01*
X154630420Y-116809107D01*
X154649015Y-116789512D01*
X154669044Y-116770422D01*
X154690453Y-116751843D01*
X154713187Y-116733783D01*
X154737193Y-116716251D01*
X154762415Y-116699253D01*
X154788800Y-116682798D01*
X154816293Y-116666893D01*
X154844841Y-116651547D01*
X154874388Y-116636766D01*
X154904881Y-116622559D01*
X154936265Y-116608933D01*
X154968487Y-116595896D01*
X155001491Y-116583456D01*
X155035224Y-116571621D01*
X155069631Y-116560398D01*
X155148826Y-116538265D01*
X155221983Y-116519512D01*
X155289512Y-116504169D01*
X155351825Y-116492268D01*
X155409332Y-116483840D01*
X155462443Y-116478915D01*
X155511571Y-116477525D01*
X155557125Y-116479700D01*
X155599516Y-116485473D01*
X155639156Y-116494873D01*
X155676455Y-116507931D01*
X155711823Y-116524680D01*
X155745673Y-116545148D01*
X155778414Y-116569369D01*
X155810458Y-116597373D01*
X155842215Y-116629190D01*
X155859007Y-116647058D01*
X155875849Y-116663987D01*
X155893039Y-116680031D01*
X155910872Y-116695242D01*
X155929647Y-116709675D01*
X155949661Y-116723382D01*
X155971213Y-116736416D01*
X155994598Y-116748831D01*
X156020115Y-116760680D01*
X156048061Y-116772017D01*
X156078734Y-116782894D01*
X156112430Y-116793366D01*
X156149448Y-116803484D01*
X156190086Y-116813304D01*
X156234639Y-116822877D01*
X156283407Y-116832257D01*
X156336685Y-116841498D01*
X156394773Y-116850653D01*
X156457967Y-116859775D01*
X156526565Y-116868917D01*
X156681161Y-116887475D01*
X156860942Y-116906754D01*
X157068287Y-116927180D01*
X157305576Y-116949180D01*
X157879505Y-116999606D01*
X158011342Y-117010696D01*
X158135489Y-117023832D01*
X158249714Y-117038581D01*
X158351786Y-117054507D01*
X158439470Y-117071178D01*
X158510536Y-117088159D01*
X158539139Y-117096630D01*
X158562750Y-117105016D01*
X158581090Y-117113262D01*
X158593880Y-117121315D01*
X158616752Y-117140414D01*
X158626052Y-117147918D01*
X158633981Y-117154057D01*
X158640576Y-117158832D01*
X158645877Y-117162243D01*
X158648054Y-117163436D01*
X158649922Y-117164289D01*
X158651485Y-117164801D01*
X158652750Y-117164971D01*
X158653720Y-117164801D01*
X158654400Y-117164289D01*
X158654795Y-117163436D01*
X158654910Y-117162243D01*
X158654750Y-117160708D01*
X158654320Y-117158832D01*
X158652668Y-117154057D01*
X158649992Y-117147918D01*
X158646332Y-117140414D01*
X158641727Y-117131547D01*
X158636214Y-117121315D01*
X158633024Y-117115997D01*
X158630413Y-117110956D01*
X158628403Y-117106191D01*
X158627015Y-117101698D01*
X158626561Y-117099554D01*
X158626270Y-117097477D01*
X158626146Y-117095468D01*
X158626190Y-117093526D01*
X158626406Y-117091650D01*
X158626796Y-117089841D01*
X158627363Y-117088099D01*
X158628110Y-117086423D01*
X158629039Y-117084812D01*
X158630152Y-117083267D01*
X158631453Y-117081788D01*
X158632944Y-117080374D01*
X158634628Y-117079025D01*
X158636508Y-117077740D01*
X158638585Y-117076520D01*
X158640864Y-117075364D01*
X158646034Y-117073244D01*
X158652039Y-117071377D01*
X158658901Y-117069763D01*
X158666640Y-117068398D01*
X158675279Y-117067281D01*
X158684838Y-117066411D01*
X158695339Y-117065785D01*
X158706803Y-117065401D01*
X158719252Y-117065257D01*
X158732706Y-117065352D01*
X158747188Y-117065683D01*
X158762718Y-117066248D01*
X158779317Y-117067046D01*
X158797008Y-117068075D01*
X158815810Y-117069332D01*
X158835747Y-117070816D01*
X158879106Y-117074457D01*
X158927256Y-117078981D01*
X159232186Y-117096179D01*
X159377459Y-117102794D01*
X159440267Y-117104737D01*
X159493463Y-117105439D01*
X159539218Y-117107920D01*
X159580694Y-117111393D01*
X159617084Y-117115858D01*
X159633121Y-117118463D01*
X159647583Y-117121315D01*
X159660372Y-117124416D01*
X159671385Y-117127764D01*
X159680522Y-117131361D01*
X159687683Y-117135206D01*
X159692767Y-117139299D01*
X159694498Y-117141438D01*
X159695672Y-117143639D01*
X159696276Y-117145903D01*
X159696298Y-117148228D01*
X159695726Y-117150616D01*
X159694545Y-117153065D01*
X159693907Y-117155049D01*
X159693967Y-117157029D01*
X159694708Y-117159001D01*
X159696116Y-117160961D01*
X159698176Y-117162906D01*
X159700871Y-117164832D01*
X159704186Y-117166734D01*
X159708105Y-117168609D01*
X159712614Y-117170453D01*
X159717697Y-117172263D01*
X159729520Y-117175761D01*
X159743452Y-117179074D01*
X159759369Y-117182169D01*
X159777146Y-117185016D01*
X159796659Y-117187585D01*
X159817784Y-117189843D01*
X159840398Y-117191760D01*
X159864376Y-117193305D01*
X159889594Y-117194447D01*
X159915929Y-117195155D01*
X159943255Y-117195398D01*
X160434223Y-117206643D01*
X161108745Y-117233763D01*
X161745564Y-117266836D01*
X161980693Y-117282504D01*
X162123423Y-117295940D01*
X162177229Y-117302121D01*
X162249266Y-117308673D01*
X162435632Y-117322399D01*
X162657716Y-117336124D01*
X162890715Y-117348856D01*
X163484787Y-117378126D01*
X163988074Y-117408388D01*
X164351462Y-117436665D01*
X164465346Y-117449129D01*
X164525838Y-117459981D01*
X164536374Y-117462145D01*
X164553816Y-117464643D01*
X164607777Y-117470482D01*
X164684434Y-117477190D01*
X164780500Y-117484456D01*
X164892690Y-117491969D01*
X165017716Y-117499421D01*
X165152291Y-117506501D01*
X165293130Y-117512898D01*
X165568628Y-117526375D01*
X165806422Y-117541341D01*
X165980716Y-117555314D01*
X166035989Y-117561153D01*
X166065714Y-117565815D01*
X166077121Y-117569032D01*
X166095211Y-117572698D01*
X166149885Y-117581194D01*
X166226634Y-117590929D01*
X166322360Y-117601533D01*
X166433960Y-117612633D01*
X166558335Y-117623858D01*
X166692384Y-117634834D01*
X166833006Y-117645190D01*
X167134301Y-117668423D01*
X167449485Y-117696122D01*
X167740857Y-117724813D01*
X167970713Y-117751023D01*
X168207102Y-117773347D01*
X168516417Y-117798648D01*
X168858474Y-117823949D01*
X169193089Y-117846273D01*
X169496119Y-117863802D01*
X169752021Y-117883315D01*
X169853773Y-117893195D01*
X169933510Y-117902828D01*
X169987822Y-117911964D01*
X170004378Y-117916269D01*
X170013298Y-117920357D01*
X170021198Y-117923389D01*
X170032842Y-117926506D01*
X170048005Y-117929670D01*
X170066462Y-117932842D01*
X170112361Y-117939053D01*
X170168740Y-117944830D01*
X170233801Y-117949864D01*
X170305745Y-117953843D01*
X170382774Y-117956458D01*
X170463090Y-117957398D01*
X170548687Y-117960323D01*
X170640856Y-117964922D01*
X170833506Y-117977903D01*
X171018218Y-117993861D01*
X171172173Y-118010315D01*
X171403301Y-118036711D01*
X171686704Y-118059759D01*
X171996773Y-118078590D01*
X172307897Y-118092336D01*
X172594463Y-118100129D01*
X172830862Y-118101100D01*
X172991483Y-118094382D01*
X173035373Y-118087869D01*
X173046813Y-118083775D01*
X173050715Y-118079107D01*
X173050469Y-118076381D01*
X173049739Y-118073174D01*
X173048539Y-118069503D01*
X173046880Y-118065382D01*
X173042238Y-118055852D01*
X173035914Y-118044711D01*
X173028009Y-118032081D01*
X173018623Y-118018087D01*
X173007858Y-118002853D01*
X172995813Y-117986503D01*
X172982590Y-117969160D01*
X172968290Y-117950949D01*
X172953013Y-117931994D01*
X172936861Y-117912419D01*
X172902330Y-117871905D01*
X172865506Y-117830398D01*
X172828681Y-117788902D01*
X172794151Y-117748460D01*
X172762721Y-117710126D01*
X172735199Y-117674955D01*
X172712389Y-117644001D01*
X172695098Y-117618318D01*
X172688774Y-117607783D01*
X172684133Y-117598960D01*
X172681274Y-117591983D01*
X172680298Y-117586982D01*
X172680129Y-117584813D01*
X172679626Y-117582284D01*
X172677652Y-117576192D01*
X172674438Y-117568797D01*
X172670045Y-117560193D01*
X172664537Y-117550472D01*
X172657974Y-117539729D01*
X172650419Y-117528055D01*
X172641933Y-117515544D01*
X172632580Y-117502289D01*
X172622420Y-117488383D01*
X172611517Y-117473919D01*
X172599931Y-117458989D01*
X172587725Y-117443688D01*
X172574961Y-117428108D01*
X172561701Y-117412341D01*
X172548007Y-117396482D01*
X172534312Y-117380440D01*
X172521052Y-117364143D01*
X172508288Y-117347706D01*
X172496082Y-117331245D01*
X172484496Y-117314878D01*
X172473592Y-117298720D01*
X172463433Y-117282888D01*
X172454079Y-117267497D01*
X172445594Y-117252665D01*
X172438039Y-117238507D01*
X172431476Y-117225139D01*
X172425968Y-117212679D01*
X172421575Y-117201242D01*
X172418361Y-117190944D01*
X172416387Y-117181902D01*
X172415715Y-117174232D01*
X172415471Y-117168286D01*
X172414754Y-117162387D01*
X172413588Y-117156581D01*
X172411995Y-117150915D01*
X172409999Y-117145435D01*
X172407623Y-117140187D01*
X172404890Y-117135218D01*
X172401825Y-117130575D01*
X172398449Y-117126304D01*
X172394786Y-117122452D01*
X172392854Y-117120697D01*
X172390860Y-117119064D01*
X172388805Y-117117560D01*
X172386693Y-117116189D01*
X172384527Y-117114957D01*
X172382310Y-117113871D01*
X172380044Y-117112936D01*
X172377733Y-117112158D01*
X172375379Y-117111543D01*
X172372985Y-117111096D01*
X172370554Y-117110824D01*
X172368090Y-117110732D01*
X172365533Y-117110547D01*
X172362829Y-117109998D01*
X172359985Y-117109092D01*
X172357010Y-117107838D01*
X172353911Y-117106242D01*
X172350695Y-117104314D01*
X172347371Y-117102059D01*
X172343946Y-117099487D01*
X172340428Y-117096605D01*
X172336825Y-117093420D01*
X172329394Y-117086175D01*
X172321715Y-117077814D01*
X172313850Y-117068399D01*
X172305861Y-117057991D01*
X172297810Y-117046653D01*
X172289758Y-117034447D01*
X172281769Y-117021435D01*
X172273904Y-117007679D01*
X172266224Y-116993240D01*
X172258793Y-116978182D01*
X172251671Y-116962565D01*
X172164907Y-116796963D01*
X172067539Y-116617036D01*
X171866042Y-116258112D01*
X171774441Y-116101067D01*
X171697288Y-115973602D01*
X171640847Y-115886692D01*
X171622351Y-115861876D01*
X171611381Y-115851315D01*
X171609397Y-115850246D01*
X171607417Y-115849027D01*
X171605445Y-115847662D01*
X171603485Y-115846157D01*
X171601540Y-115844517D01*
X171599614Y-115842746D01*
X171597712Y-115840848D01*
X171595837Y-115838830D01*
X171593992Y-115836695D01*
X171592183Y-115834449D01*
X171588684Y-115829642D01*
X171585372Y-115824447D01*
X171582276Y-115818903D01*
X171579429Y-115813050D01*
X171576861Y-115806925D01*
X171574602Y-115800567D01*
X171573599Y-115797313D01*
X171572685Y-115794016D01*
X171571864Y-115790680D01*
X171571140Y-115787310D01*
X171570517Y-115783910D01*
X171569998Y-115780487D01*
X171569588Y-115777044D01*
X171569290Y-115773587D01*
X171569108Y-115770120D01*
X171569047Y-115766648D01*
X171568498Y-115758672D01*
X171566887Y-115748726D01*
X171564268Y-115736952D01*
X171560696Y-115723488D01*
X171556225Y-115708473D01*
X171550909Y-115692048D01*
X171537959Y-115655523D01*
X171522281Y-115615029D01*
X171504308Y-115571683D01*
X171484474Y-115526601D01*
X171463214Y-115480898D01*
X171442505Y-115437655D01*
X171424043Y-115395405D01*
X171407845Y-115354394D01*
X171393926Y-115314872D01*
X171382301Y-115277086D01*
X171372987Y-115241285D01*
X171365997Y-115207716D01*
X171361349Y-115176627D01*
X171359057Y-115148267D01*
X171359138Y-115122884D01*
X171361605Y-115100725D01*
X171366476Y-115082039D01*
X171369817Y-115074075D01*
X171373765Y-115067073D01*
X171378321Y-115061063D01*
X171383487Y-115056077D01*
X171389266Y-115052144D01*
X171395660Y-115049297D01*
X171402669Y-115047565D01*
X171410297Y-115046982D01*
X171412777Y-115046812D01*
X171415252Y-115046311D01*
X171417717Y-115045486D01*
X171420167Y-115044346D01*
X171422599Y-115042900D01*
X171425006Y-115041156D01*
X171427384Y-115039124D01*
X171429728Y-115036812D01*
X171432033Y-115034228D01*
X171434295Y-115031382D01*
X171436508Y-115028282D01*
X171438668Y-115024936D01*
X171440770Y-115021355D01*
X171442808Y-115017545D01*
X171444779Y-115013517D01*
X171446678Y-115009278D01*
X171448499Y-115004838D01*
X171450237Y-115000205D01*
X171451888Y-114995388D01*
X171453447Y-114990396D01*
X171454910Y-114985237D01*
X171456270Y-114979920D01*
X171457524Y-114974453D01*
X171458667Y-114968847D01*
X171459693Y-114963108D01*
X171460598Y-114957246D01*
X171461377Y-114951271D01*
X171462026Y-114945189D01*
X171462539Y-114939011D01*
X171462911Y-114932744D01*
X171463138Y-114926398D01*
X171463214Y-114919981D01*
X171463886Y-114907806D01*
X171465862Y-114895130D01*
X171469079Y-114882013D01*
X171473477Y-114868512D01*
X171478996Y-114854685D01*
X171485573Y-114840591D01*
X171493149Y-114826288D01*
X171501662Y-114811833D01*
X171521253Y-114782703D01*
X171543860Y-114753666D01*
X171568994Y-114725187D01*
X171596167Y-114697732D01*
X171624890Y-114671764D01*
X171654675Y-114647750D01*
X171685033Y-114626155D01*
X171715477Y-114607443D01*
X171730578Y-114599313D01*
X171745518Y-114592079D01*
X171760234Y-114585799D01*
X171774667Y-114580530D01*
X171788755Y-114576330D01*
X171802437Y-114573259D01*
X171815651Y-114571373D01*
X171828338Y-114570732D01*
X171833906Y-114570286D01*
X171838710Y-114568967D01*
X171842762Y-114566799D01*
X171846074Y-114563807D01*
X171848657Y-114560017D01*
X171850523Y-114555453D01*
X171851684Y-114550142D01*
X171852151Y-114544108D01*
X171851936Y-114537376D01*
X171851050Y-114529972D01*
X171849506Y-114521920D01*
X171847314Y-114513247D01*
X171844487Y-114503976D01*
X171841035Y-114494134D01*
X171836972Y-114483745D01*
X171832307Y-114472836D01*
X171827054Y-114461430D01*
X171821223Y-114449553D01*
X171807875Y-114424487D01*
X171792356Y-114397840D01*
X171774760Y-114369813D01*
X171755180Y-114340608D01*
X171733708Y-114310427D01*
X171710438Y-114279470D01*
X171685463Y-114247940D01*
X171668276Y-114224644D01*
X171645198Y-114191551D01*
X171617282Y-114150271D01*
X171585584Y-114102419D01*
X171515056Y-113993444D01*
X171442047Y-113877523D01*
X171393477Y-113797810D01*
X172447091Y-113797810D01*
X172447122Y-113803149D01*
X172447464Y-113808731D01*
X172448115Y-113814561D01*
X172449076Y-113820645D01*
X172450347Y-113826989D01*
X172451928Y-113833598D01*
X172453820Y-113840479D01*
X172456021Y-113847636D01*
X172458533Y-113855076D01*
X172461354Y-113862806D01*
X172464486Y-113870829D01*
X172467928Y-113879154D01*
X172475741Y-113896726D01*
X172484795Y-113915570D01*
X172495089Y-113935732D01*
X172503629Y-113951025D01*
X172513300Y-113967048D01*
X172523994Y-113983659D01*
X172535603Y-114000720D01*
X172548018Y-114018091D01*
X172561131Y-114035632D01*
X172574833Y-114053205D01*
X172589016Y-114070669D01*
X172603571Y-114087885D01*
X172618389Y-114104714D01*
X172633362Y-114121015D01*
X172648382Y-114136650D01*
X172663340Y-114151478D01*
X172678128Y-114165361D01*
X172692636Y-114178159D01*
X172706757Y-114189732D01*
X172720451Y-114200940D01*
X172733711Y-114212676D01*
X172746475Y-114224846D01*
X172758681Y-114237357D01*
X172770266Y-114250115D01*
X172781170Y-114263029D01*
X172791330Y-114276005D01*
X172800683Y-114288950D01*
X172809168Y-114301771D01*
X172816723Y-114314375D01*
X172823286Y-114326669D01*
X172828795Y-114338560D01*
X172833187Y-114349954D01*
X172836401Y-114360760D01*
X172838375Y-114370883D01*
X172838878Y-114375660D01*
X172839047Y-114380232D01*
X172839293Y-114389031D01*
X172840019Y-114397543D01*
X172841210Y-114405730D01*
X172842851Y-114413553D01*
X172844925Y-114420972D01*
X172847419Y-114427950D01*
X172850315Y-114434447D01*
X172853600Y-114440424D01*
X172857256Y-114445844D01*
X172861268Y-114450667D01*
X172863404Y-114452842D01*
X172865622Y-114454854D01*
X172867922Y-114456697D01*
X172870302Y-114458366D01*
X172872759Y-114459858D01*
X172875291Y-114461166D01*
X172877897Y-114462286D01*
X172880575Y-114463214D01*
X172883323Y-114463944D01*
X172886138Y-114464471D01*
X172889019Y-114464791D01*
X172891965Y-114464898D01*
X172894444Y-114464991D01*
X172896919Y-114465265D01*
X172899384Y-114465718D01*
X172901835Y-114466345D01*
X172904266Y-114467143D01*
X172906673Y-114468107D01*
X172909051Y-114469235D01*
X172911395Y-114470521D01*
X172913700Y-114471962D01*
X172915961Y-114473554D01*
X172918175Y-114475294D01*
X172920335Y-114477177D01*
X172922436Y-114479199D01*
X172924475Y-114481357D01*
X172926446Y-114483647D01*
X172928344Y-114486065D01*
X172930165Y-114488607D01*
X172931904Y-114491268D01*
X172933555Y-114494047D01*
X172935114Y-114496937D01*
X172936576Y-114499937D01*
X172937937Y-114503040D01*
X172939191Y-114506245D01*
X172940333Y-114509546D01*
X172941360Y-114512941D01*
X172942265Y-114516424D01*
X172943044Y-114519993D01*
X172943692Y-114523644D01*
X172944205Y-114527371D01*
X172944577Y-114531173D01*
X172944804Y-114535044D01*
X172944881Y-114538981D01*
X172945081Y-114543134D01*
X172945674Y-114547644D01*
X172948002Y-114557678D01*
X172951787Y-114568968D01*
X172956952Y-114581398D01*
X172963420Y-114594850D01*
X172971112Y-114609210D01*
X172979951Y-114624360D01*
X172989860Y-114640185D01*
X173000761Y-114656567D01*
X173012577Y-114673392D01*
X173025230Y-114690542D01*
X173038642Y-114707901D01*
X173052737Y-114725354D01*
X173067437Y-114742783D01*
X173082663Y-114760073D01*
X173098339Y-114777106D01*
X173133087Y-114815977D01*
X173172919Y-114863840D01*
X173216472Y-114918772D01*
X173262381Y-114978851D01*
X173309282Y-115042155D01*
X173355812Y-115106761D01*
X173400605Y-115170747D01*
X173442297Y-115232190D01*
X173522251Y-115347118D01*
X173597741Y-115453117D01*
X173631175Y-115498737D01*
X173660331Y-115537288D01*
X173684153Y-115567156D01*
X173701588Y-115586731D01*
X173709685Y-115595378D01*
X173719975Y-115607288D01*
X173746485Y-115640061D01*
X173779817Y-115683377D01*
X173818667Y-115735559D01*
X173861735Y-115794936D01*
X173907717Y-115859831D01*
X173955311Y-115928571D01*
X174003215Y-115999482D01*
X174052793Y-116072087D01*
X174105162Y-116145747D01*
X174158646Y-116218538D01*
X174211573Y-116288539D01*
X174262268Y-116353827D01*
X174309055Y-116412480D01*
X174350262Y-116462575D01*
X174384214Y-116502190D01*
X174413369Y-116534271D01*
X174440851Y-116566351D01*
X174465976Y-116597440D01*
X174488063Y-116626544D01*
X174506429Y-116652672D01*
X174514004Y-116664309D01*
X174520392Y-116674831D01*
X174525510Y-116684112D01*
X174529270Y-116692029D01*
X174531589Y-116698457D01*
X174532381Y-116703273D01*
X174532520Y-116705396D01*
X174532930Y-116707787D01*
X174534541Y-116713340D01*
X174537160Y-116719854D01*
X174540732Y-116727251D01*
X174545203Y-116735455D01*
X174550520Y-116744387D01*
X174556626Y-116753970D01*
X174563470Y-116764127D01*
X174570995Y-116774780D01*
X174579148Y-116785852D01*
X174587875Y-116797265D01*
X174597121Y-116808941D01*
X174606832Y-116820803D01*
X174616954Y-116832774D01*
X174627433Y-116844776D01*
X174638214Y-116856731D01*
X174648995Y-116868869D01*
X174659474Y-116881402D01*
X174669596Y-116894229D01*
X174679308Y-116907250D01*
X174688554Y-116920364D01*
X174697281Y-116933471D01*
X174705434Y-116946469D01*
X174712959Y-116959258D01*
X174719803Y-116971736D01*
X174725910Y-116983804D01*
X174731226Y-116995360D01*
X174735697Y-117006304D01*
X174739269Y-117016534D01*
X174741888Y-117025951D01*
X174743499Y-117034453D01*
X174744048Y-117041940D01*
X174744231Y-117048817D01*
X174744771Y-117055531D01*
X174745652Y-117062043D01*
X174746859Y-117068315D01*
X174748376Y-117074309D01*
X174750187Y-117079984D01*
X174752277Y-117085303D01*
X174754631Y-117090226D01*
X174757232Y-117094716D01*
X174760067Y-117098732D01*
X174763118Y-117102237D01*
X174764720Y-117103786D01*
X174766371Y-117105192D01*
X174768068Y-117106451D01*
X174769810Y-117107558D01*
X174771594Y-117108507D01*
X174773419Y-117109295D01*
X174775283Y-117109916D01*
X174777184Y-117110366D01*
X174779119Y-117110640D01*
X174781088Y-117110732D01*
X174783737Y-117111055D01*
X174786718Y-117112015D01*
X174790021Y-117113596D01*
X174793635Y-117115786D01*
X174797552Y-117118568D01*
X174801761Y-117121929D01*
X174806254Y-117125853D01*
X174811019Y-117130327D01*
X174821331Y-117140866D01*
X174832620Y-117153427D01*
X174844808Y-117167895D01*
X174857818Y-117184153D01*
X174871571Y-117202086D01*
X174885992Y-117221577D01*
X174901001Y-117242510D01*
X174916523Y-117264769D01*
X174932478Y-117288236D01*
X174948790Y-117312797D01*
X174965381Y-117338334D01*
X174982173Y-117364732D01*
X175031565Y-117440055D01*
X175051947Y-117470399D01*
X175069733Y-117496031D01*
X175085131Y-117517074D01*
X175098351Y-117533651D01*
X175109602Y-117545888D01*
X175114555Y-117550418D01*
X175119094Y-117553909D01*
X175123245Y-117556376D01*
X175127035Y-117557836D01*
X175130490Y-117558304D01*
X175133636Y-117557795D01*
X175136499Y-117556325D01*
X175139104Y-117553909D01*
X175141480Y-117550563D01*
X175143651Y-117546302D01*
X175147484Y-117535099D01*
X175150813Y-117520423D01*
X175153848Y-117502398D01*
X175156797Y-117481148D01*
X175159574Y-117466723D01*
X175163877Y-117451321D01*
X175169622Y-117435081D01*
X175176724Y-117418144D01*
X175185097Y-117400649D01*
X175194656Y-117382736D01*
X175205315Y-117364543D01*
X175216990Y-117346211D01*
X175229595Y-117327878D01*
X175243045Y-117309686D01*
X175257255Y-117291772D01*
X175272139Y-117274277D01*
X175287612Y-117257340D01*
X175303589Y-117241101D01*
X175319985Y-117225699D01*
X175336713Y-117211273D01*
X175500755Y-117073690D01*
X175379047Y-116893773D01*
X175352155Y-116855502D01*
X175323650Y-116816796D01*
X175294401Y-116778711D01*
X175265276Y-116742299D01*
X175237144Y-116708617D01*
X175210871Y-116678717D01*
X175187328Y-116653654D01*
X175176850Y-116643266D01*
X175167381Y-116634482D01*
X175148684Y-116614607D01*
X175124964Y-116587601D01*
X175097152Y-116554765D01*
X175066177Y-116517403D01*
X174998460Y-116434307D01*
X174929256Y-116348731D01*
X174889702Y-116297561D01*
X174836073Y-116233059D01*
X174770661Y-116157766D01*
X174695761Y-116074226D01*
X174613668Y-115984981D01*
X174526676Y-115892574D01*
X174437079Y-115799546D01*
X174347172Y-115708440D01*
X174172631Y-115528854D01*
X174010490Y-115359190D01*
X173939807Y-115283660D01*
X173879108Y-115217307D01*
X173830688Y-115162365D01*
X173796840Y-115121065D01*
X173730694Y-115040295D01*
X173652642Y-114950160D01*
X173564667Y-114852709D01*
X173468756Y-114749987D01*
X173366891Y-114644040D01*
X173261057Y-114536914D01*
X173153240Y-114430657D01*
X173045422Y-114327315D01*
X172996795Y-114281695D01*
X172947113Y-114233222D01*
X172897803Y-114183510D01*
X172850292Y-114134169D01*
X172806006Y-114086813D01*
X172766370Y-114043053D01*
X172732812Y-114004503D01*
X172706757Y-113972773D01*
X172695610Y-113958088D01*
X172684060Y-113943845D01*
X172672200Y-113930113D01*
X172660123Y-113916963D01*
X172647922Y-113904463D01*
X172635690Y-113892685D01*
X172623520Y-113881697D01*
X172611505Y-113871570D01*
X172599739Y-113862373D01*
X172588313Y-113854176D01*
X172577321Y-113847048D01*
X172566856Y-113841060D01*
X172557012Y-113836282D01*
X172547880Y-113832782D01*
X172539555Y-113830631D01*
X172535724Y-113830083D01*
X172532129Y-113829898D01*
X172528719Y-113829821D01*
X172525436Y-113829592D01*
X172522283Y-113829214D01*
X172519262Y-113828689D01*
X172516377Y-113828021D01*
X172513631Y-113827212D01*
X172511026Y-113826266D01*
X172508566Y-113825185D01*
X172506252Y-113823973D01*
X172504089Y-113822631D01*
X172502079Y-113821164D01*
X172500225Y-113819573D01*
X172498530Y-113817863D01*
X172496997Y-113816035D01*
X172495628Y-113814093D01*
X172494428Y-113812039D01*
X172493397Y-113809877D01*
X172492540Y-113807609D01*
X172491859Y-113805238D01*
X172491358Y-113802768D01*
X172491039Y-113800201D01*
X172490905Y-113797540D01*
X172490958Y-113794788D01*
X172491203Y-113791947D01*
X172491642Y-113789022D01*
X172492277Y-113786013D01*
X172493112Y-113782926D01*
X172494149Y-113779762D01*
X172495391Y-113776524D01*
X172496842Y-113773216D01*
X172498505Y-113769840D01*
X172500381Y-113766399D01*
X172504039Y-113759824D01*
X172507068Y-113753986D01*
X172509462Y-113748876D01*
X172511213Y-113744487D01*
X172511844Y-113742561D01*
X172512312Y-113740812D01*
X172512615Y-113739239D01*
X172512753Y-113737842D01*
X172512723Y-113736619D01*
X172512526Y-113735569D01*
X172512161Y-113734692D01*
X172511626Y-113733987D01*
X172510920Y-113733452D01*
X172510043Y-113733086D01*
X172508994Y-113732889D01*
X172507771Y-113732860D01*
X172506373Y-113732998D01*
X172504801Y-113733301D01*
X172503052Y-113733769D01*
X172501125Y-113734400D01*
X172496737Y-113736151D01*
X172491627Y-113738544D01*
X172485789Y-113741574D01*
X172479214Y-113745231D01*
X172474904Y-113747790D01*
X172470904Y-113750510D01*
X172467215Y-113753396D01*
X172463835Y-113756455D01*
X172460765Y-113759693D01*
X172458006Y-113763114D01*
X172455556Y-113766725D01*
X172453417Y-113770532D01*
X172451587Y-113774541D01*
X172450068Y-113778756D01*
X172448859Y-113783185D01*
X172447960Y-113787833D01*
X172447371Y-113792706D01*
X172447091Y-113797810D01*
X171393477Y-113797810D01*
X171242948Y-113550763D01*
X171008131Y-113168440D01*
X170901719Y-112992823D01*
X170803740Y-112827127D01*
X170724613Y-112689213D01*
X170695375Y-112636255D01*
X170674755Y-112596939D01*
X170666703Y-112582254D01*
X170658457Y-112568011D01*
X170650071Y-112554279D01*
X170641600Y-112541129D01*
X170633098Y-112528629D01*
X170624619Y-112516851D01*
X170616218Y-112505864D01*
X170607948Y-112495736D01*
X170599865Y-112486539D01*
X170592022Y-112478342D01*
X170584473Y-112471215D01*
X170577273Y-112465227D01*
X170570477Y-112460448D01*
X170564137Y-112456949D01*
X170558310Y-112454798D01*
X170555604Y-112454250D01*
X170553047Y-112454065D01*
X170551064Y-112453973D01*
X170549084Y-112453699D01*
X170547112Y-112453250D01*
X170545151Y-112452628D01*
X170543206Y-112451840D01*
X170541281Y-112450891D01*
X170539378Y-112449784D01*
X170537503Y-112448525D01*
X170535659Y-112447119D01*
X170533849Y-112445571D01*
X170532079Y-112443884D01*
X170530351Y-112442066D01*
X170528669Y-112440119D01*
X170527038Y-112438049D01*
X170525462Y-112435861D01*
X170523943Y-112433560D01*
X170522486Y-112431150D01*
X170521095Y-112428636D01*
X170519774Y-112426024D01*
X170518527Y-112423317D01*
X170517357Y-112420522D01*
X170516269Y-112417642D01*
X170515266Y-112414682D01*
X170514352Y-112411648D01*
X170513531Y-112408545D01*
X170512806Y-112405376D01*
X170512183Y-112402147D01*
X170511664Y-112398863D01*
X170511254Y-112395529D01*
X170510956Y-112392149D01*
X170510775Y-112388729D01*
X170510714Y-112385272D01*
X170510225Y-112377847D01*
X170508791Y-112369522D01*
X170506458Y-112360391D01*
X170503272Y-112350546D01*
X170499280Y-112340082D01*
X170494528Y-112329091D01*
X170489064Y-112317665D01*
X170482932Y-112305898D01*
X170476181Y-112293883D01*
X170468856Y-112281714D01*
X170461003Y-112269482D01*
X170452671Y-112257281D01*
X170443904Y-112245204D01*
X170434750Y-112233344D01*
X170425254Y-112221795D01*
X170415464Y-112210648D01*
X170405004Y-112199578D01*
X170393543Y-112186329D01*
X170381199Y-112171081D01*
X170368087Y-112154011D01*
X170354324Y-112135297D01*
X170340027Y-112115119D01*
X170310292Y-112071081D01*
X170279813Y-112023321D01*
X170249520Y-111973267D01*
X170220344Y-111922345D01*
X170193213Y-111871982D01*
X170139388Y-111777062D01*
X170092011Y-111696034D01*
X170072136Y-111663209D01*
X170055548Y-111636833D01*
X170042805Y-111617899D01*
X170034465Y-111607398D01*
X170029002Y-111601372D01*
X170022507Y-111593167D01*
X170014943Y-111582714D01*
X170006270Y-111569943D01*
X169996450Y-111554785D01*
X169985444Y-111537170D01*
X169959720Y-111494289D01*
X169928786Y-111440742D01*
X169892333Y-111375970D01*
X169850052Y-111299417D01*
X169801631Y-111210523D01*
X169789528Y-111188778D01*
X169777239Y-111167528D01*
X169765074Y-111147271D01*
X169753344Y-111128502D01*
X169742358Y-111111718D01*
X169732426Y-111097414D01*
X169723858Y-111086086D01*
X169720183Y-111081694D01*
X169716965Y-111078232D01*
X169703529Y-111062224D01*
X169687364Y-111038720D01*
X169668967Y-111008782D01*
X169648834Y-110973473D01*
X169605343Y-110890987D01*
X169560860Y-110799757D01*
X169519353Y-110708279D01*
X169484792Y-110625049D01*
X169471356Y-110589182D01*
X169461144Y-110558563D01*
X169454654Y-110534253D01*
X169452380Y-110517315D01*
X169452136Y-110509506D01*
X169451419Y-110501977D01*
X169450252Y-110494758D01*
X169448660Y-110487880D01*
X169446664Y-110481374D01*
X169444288Y-110475271D01*
X169441556Y-110469602D01*
X169438490Y-110464398D01*
X169435115Y-110459691D01*
X169431452Y-110455510D01*
X169427526Y-110451888D01*
X169425472Y-110450295D01*
X169423360Y-110448854D01*
X169421194Y-110447568D01*
X169418977Y-110446441D01*
X169416711Y-110445476D01*
X169414399Y-110444679D01*
X169412045Y-110444051D01*
X169409652Y-110443599D01*
X169407221Y-110443324D01*
X169404756Y-110443232D01*
X169397487Y-110442484D01*
X169390565Y-110440285D01*
X169383997Y-110436704D01*
X169377791Y-110431811D01*
X169371954Y-110425674D01*
X169366491Y-110418361D01*
X169361410Y-110409942D01*
X169356717Y-110400485D01*
X169352420Y-110390059D01*
X169348525Y-110378733D01*
X169345039Y-110366576D01*
X169341969Y-110353656D01*
X169339321Y-110340042D01*
X169337102Y-110325804D01*
X169333979Y-110295727D01*
X169332655Y-110263975D01*
X169333184Y-110231100D01*
X169335619Y-110197651D01*
X169340015Y-110164179D01*
X169342966Y-110147606D01*
X169346427Y-110131234D01*
X169350406Y-110115131D01*
X169354909Y-110099366D01*
X169359942Y-110084008D01*
X169365514Y-110069126D01*
X169371630Y-110054789D01*
X169378298Y-110041065D01*
X169385924Y-110027067D01*
X169392922Y-110012922D01*
X169399285Y-109998730D01*
X169405004Y-109984593D01*
X169410072Y-109970610D01*
X169414482Y-109956884D01*
X169418224Y-109943514D01*
X169421292Y-109930601D01*
X169423678Y-109918247D01*
X169425375Y-109906551D01*
X169426373Y-109895615D01*
X169426667Y-109885539D01*
X169426247Y-109876425D01*
X169425106Y-109868372D01*
X169423237Y-109861483D01*
X169420632Y-109855856D01*
X169419298Y-109853392D01*
X169418269Y-109850961D01*
X169417540Y-109848568D01*
X169417107Y-109846214D01*
X169416965Y-109843902D01*
X169417108Y-109841636D01*
X169417533Y-109839419D01*
X169418234Y-109837253D01*
X169419205Y-109835141D01*
X169420444Y-109833086D01*
X169421944Y-109831092D01*
X169423701Y-109829160D01*
X169425709Y-109827295D01*
X169427965Y-109825498D01*
X169430463Y-109823773D01*
X169433198Y-109822122D01*
X169436166Y-109820549D01*
X169439362Y-109819056D01*
X169442781Y-109817647D01*
X169446417Y-109816324D01*
X169450267Y-109815090D01*
X169454325Y-109813948D01*
X169458586Y-109812901D01*
X169463046Y-109811952D01*
X169467700Y-109811104D01*
X169472543Y-109810359D01*
X169477570Y-109809721D01*
X169482777Y-109809193D01*
X169488157Y-109808777D01*
X169493708Y-109808476D01*
X169499423Y-109808293D01*
X169505297Y-109808232D01*
X169516261Y-109807805D01*
X169527270Y-109806557D01*
X169538249Y-109804534D01*
X169549119Y-109801782D01*
X169559803Y-109798348D01*
X169570224Y-109794279D01*
X169580303Y-109789620D01*
X169589964Y-109784419D01*
X169599129Y-109778722D01*
X169607720Y-109772575D01*
X169615660Y-109766025D01*
X169622872Y-109759118D01*
X169629277Y-109751902D01*
X169634798Y-109744421D01*
X169639359Y-109736724D01*
X169641254Y-109732809D01*
X169642881Y-109728857D01*
X169646909Y-109721048D01*
X169651046Y-109713519D01*
X169655275Y-109706300D01*
X169659583Y-109699421D01*
X169663952Y-109692915D01*
X169668368Y-109686812D01*
X169672815Y-109681144D01*
X169677277Y-109675940D01*
X169681739Y-109671232D01*
X169686186Y-109667052D01*
X169690602Y-109663429D01*
X169694971Y-109660396D01*
X169699279Y-109657983D01*
X169703508Y-109656221D01*
X169705589Y-109655593D01*
X169707645Y-109655141D01*
X169709674Y-109654866D01*
X169711673Y-109654774D01*
X169720726Y-109657223D01*
X169735485Y-109660478D01*
X169755204Y-109664354D01*
X169779141Y-109668664D01*
X169806550Y-109673221D01*
X169836688Y-109677841D01*
X169868810Y-109682337D01*
X169902172Y-109686522D01*
X169933788Y-109692951D01*
X169964597Y-109700248D01*
X169993795Y-109708289D01*
X170007537Y-109712550D01*
X170020573Y-109716950D01*
X170032804Y-109721475D01*
X170044127Y-109726107D01*
X170054443Y-109730833D01*
X170063651Y-109735637D01*
X170071649Y-109740502D01*
X170078337Y-109745414D01*
X170083615Y-109750357D01*
X170087381Y-109755315D01*
X170091515Y-109759888D01*
X170097881Y-109765609D01*
X170106356Y-109772384D01*
X170116815Y-109780119D01*
X170129135Y-109788724D01*
X170143191Y-109798103D01*
X170158859Y-109808164D01*
X170176016Y-109818815D01*
X170194537Y-109829961D01*
X170214298Y-109841511D01*
X170235175Y-109853371D01*
X170257044Y-109865447D01*
X170279782Y-109877648D01*
X170303264Y-109889880D01*
X170327365Y-109902050D01*
X170351963Y-109914065D01*
X170415214Y-109949618D01*
X170485154Y-109994102D01*
X170560660Y-110046522D01*
X170640608Y-110105888D01*
X170723873Y-110171207D01*
X170809331Y-110241487D01*
X170895860Y-110315735D01*
X170982334Y-110392961D01*
X171067630Y-110472170D01*
X171150623Y-110552372D01*
X171230191Y-110632574D01*
X171305208Y-110711783D01*
X171374551Y-110789009D01*
X171437096Y-110863257D01*
X171491720Y-110933537D01*
X171537297Y-110998857D01*
X171617085Y-111110725D01*
X171699354Y-111223091D01*
X171774678Y-111322558D01*
X171806790Y-111363269D01*
X171833630Y-111395732D01*
X171973860Y-111559112D01*
X172061338Y-111662878D01*
X172104642Y-111715288D01*
X172145838Y-111766148D01*
X172185133Y-111814611D01*
X172223064Y-111860158D01*
X172258762Y-111901861D01*
X172291359Y-111938789D01*
X172319988Y-111970012D01*
X172343780Y-111994599D01*
X172361866Y-112011621D01*
X172368499Y-112017005D01*
X172373379Y-112020148D01*
X172375828Y-112021217D01*
X172378215Y-112022436D01*
X172380537Y-112023800D01*
X172382795Y-112025305D01*
X172384986Y-112026946D01*
X172387111Y-112028717D01*
X172389168Y-112030615D01*
X172391156Y-112032633D01*
X172393075Y-112034768D01*
X172394923Y-112037014D01*
X172396699Y-112039367D01*
X172398402Y-112041821D01*
X172400032Y-112044372D01*
X172401587Y-112047016D01*
X172403066Y-112049746D01*
X172404469Y-112052559D01*
X172405795Y-112055450D01*
X172407042Y-112058413D01*
X172408209Y-112061444D01*
X172409296Y-112064538D01*
X172411225Y-112070895D01*
X172412821Y-112077447D01*
X172414076Y-112084153D01*
X172414981Y-112090976D01*
X172415531Y-112097876D01*
X172415715Y-112104815D01*
X172415839Y-112108394D01*
X172416205Y-112112181D01*
X172417648Y-112120339D01*
X172420006Y-112129209D01*
X172423239Y-112138715D01*
X172427310Y-112148779D01*
X172432179Y-112159323D01*
X172437808Y-112170271D01*
X172444157Y-112181544D01*
X172451189Y-112193066D01*
X172458864Y-112204757D01*
X172467144Y-112216542D01*
X172475990Y-112228343D01*
X172485363Y-112240081D01*
X172495224Y-112251680D01*
X172505535Y-112263062D01*
X172516256Y-112274149D01*
X172526412Y-112285600D01*
X172536978Y-112298043D01*
X172559002Y-112325411D01*
X172581647Y-112355259D01*
X172604230Y-112386596D01*
X172626068Y-112418428D01*
X172646481Y-112449765D01*
X172664785Y-112479613D01*
X172680298Y-112506982D01*
X172694850Y-112533378D01*
X172710394Y-112560394D01*
X172726434Y-112587162D01*
X172742474Y-112612815D01*
X172758018Y-112636482D01*
X172772570Y-112657298D01*
X172785634Y-112674392D01*
X172791453Y-112681273D01*
X172796713Y-112686898D01*
X172810356Y-112705967D01*
X172834417Y-112738244D01*
X172907839Y-112835727D01*
X173005073Y-112965951D01*
X173058899Y-113039156D01*
X173114214Y-113115523D01*
X173179378Y-113199983D01*
X173261471Y-113300070D01*
X173357083Y-113412063D01*
X173462803Y-113532242D01*
X173575219Y-113656886D01*
X173690923Y-113782273D01*
X173806503Y-113904684D01*
X173918548Y-114020398D01*
X174137325Y-114238762D01*
X174335266Y-114441747D01*
X174491536Y-114606037D01*
X174585298Y-114708315D01*
X174751323Y-114910060D01*
X174862862Y-115043922D01*
X174976880Y-115179274D01*
X175030459Y-115243776D01*
X175083045Y-115305364D01*
X175133150Y-115362611D01*
X175179287Y-115414091D01*
X175219966Y-115458378D01*
X175253701Y-115494045D01*
X175279002Y-115519666D01*
X175294381Y-115533815D01*
X175319587Y-115551580D01*
X175352661Y-115578205D01*
X175437173Y-115652795D01*
X175537436Y-115747104D01*
X175642969Y-115850654D01*
X175743294Y-115952963D01*
X175827930Y-116043551D01*
X175861089Y-116081176D01*
X175886396Y-116111940D01*
X175902541Y-116134534D01*
X175906769Y-116142358D01*
X175908214Y-116147649D01*
X175908399Y-116149802D01*
X175908947Y-116152285D01*
X175909849Y-116155088D01*
X175911098Y-116158201D01*
X175914597Y-116165310D01*
X175919376Y-116173528D01*
X175925364Y-116182769D01*
X175932491Y-116192948D01*
X175940688Y-116203980D01*
X175949885Y-116215779D01*
X175960013Y-116228260D01*
X175971000Y-116241338D01*
X175982778Y-116254927D01*
X175995278Y-116268943D01*
X176008428Y-116283300D01*
X176022159Y-116297913D01*
X176036403Y-116312696D01*
X176051088Y-116327565D01*
X176113614Y-116388889D01*
X176174016Y-116451547D01*
X176232031Y-116515135D01*
X176287395Y-116579250D01*
X176339844Y-116643489D01*
X176389115Y-116707449D01*
X176434944Y-116770727D01*
X176477068Y-116832919D01*
X176515224Y-116893624D01*
X176549147Y-116952437D01*
X176578574Y-117008955D01*
X176603241Y-117062776D01*
X176607469Y-117073690D01*
X176622886Y-117113496D01*
X176637245Y-117160713D01*
G37*
D11*
X37553750Y-19932500D03*
D12*
X37553750Y-27552500D03*
D13*
X308292500Y-36210717D03*
D11*
X20885000Y-19138750D03*
D12*
X20885000Y-26758750D03*
D11*
X101847500Y-18345000D03*
D12*
X101847500Y-25965000D03*
D11*
X60572500Y-19138750D03*
D12*
X60572500Y-26758750D03*
D13*
X322376184Y-36497957D03*
D11*
X230435000Y-20091250D03*
D12*
X230435000Y-27711250D03*
D11*
X117722500Y-19297500D03*
D12*
X117722500Y-26917500D03*
D11*
X257422500Y-18345000D03*
D12*
X257422500Y-25965000D03*
D11*
X166141250Y-16916250D03*
D12*
X166141250Y-24536250D03*
D11*
X81210000Y-19138750D03*
D12*
X81210000Y-26758750D03*
D14*
X315540758Y-14905348D03*
X315540758Y-17655348D03*
D15*
X309119226Y-99503274D03*
D16*
X307952500Y-100670000D03*
D15*
X309119226Y-101836726D03*
X309602500Y-100670000D03*
X306785774Y-101836726D03*
X307952500Y-102320000D03*
X306302500Y-100670000D03*
X307952500Y-99020000D03*
X306785774Y-99503274D03*
D11*
X134391250Y-20091250D03*
D12*
X134391250Y-27711250D03*
D17*
X267097066Y-16331856D03*
X267097066Y-18871856D03*
X267097066Y-21411856D03*
X267097066Y-23951856D03*
X267097066Y-26491856D03*
D11*
X127247500Y-16757500D03*
D12*
X127247500Y-24377500D03*
D11*
X159791250Y-18503750D03*
D12*
X159791250Y-26123750D03*
D11*
X236785000Y-18503750D03*
D12*
X236785000Y-26123750D03*
D11*
X24060000Y-18345000D03*
D12*
X24060000Y-25965000D03*
D18*
X327615451Y-23020000D03*
X327615451Y-20020000D03*
D11*
X57397500Y-19932500D03*
D12*
X57397500Y-27552500D03*
D11*
X137566250Y-19297500D03*
D12*
X137566250Y-26917500D03*
D11*
X140741250Y-18345000D03*
D12*
X140741250Y-25965000D03*
D11*
X239960000Y-17710000D03*
D12*
X239960000Y-25330000D03*
D11*
X114547500Y-20250000D03*
D12*
X114547500Y-27870000D03*
D11*
X156616250Y-19138750D03*
D12*
X156616250Y-26758750D03*
D11*
X171697500Y-20091250D03*
D12*
X171697500Y-27711250D03*
D11*
X220910000Y-17710000D03*
D12*
X220910000Y-25330000D03*
D11*
X214560000Y-19297500D03*
D12*
X214560000Y-26917500D03*
D16*
X33337500Y-27781250D03*
D15*
X33337500Y-26131250D03*
X34504226Y-28947976D03*
X32170774Y-28947976D03*
X33337500Y-29431250D03*
X31687500Y-27781250D03*
X34987500Y-27781250D03*
X34504226Y-26614524D03*
X32170774Y-26614524D03*
D11*
X201066250Y-17710000D03*
D12*
X201066250Y-25330000D03*
D11*
X194716250Y-19138750D03*
D12*
X194716250Y-26758750D03*
D11*
X27235000Y-17551250D03*
D12*
X27235000Y-25171250D03*
D11*
X181222500Y-17551250D03*
D12*
X181222500Y-25171250D03*
D19*
X292347500Y-71685000D03*
X268535000Y-71685000D03*
D20*
X268535000Y-86925000D03*
X292347500Y-86925000D03*
D21*
X42068750Y-55562500D03*
D11*
X184397500Y-16916250D03*
D12*
X184397500Y-24536250D03*
D11*
X233610000Y-19297500D03*
D12*
X233610000Y-26917500D03*
D11*
X87560000Y-17551250D03*
D12*
X87560000Y-25171250D03*
D11*
X120897500Y-18345000D03*
D12*
X120897500Y-25965000D03*
D11*
X224085000Y-16757500D03*
D12*
X224085000Y-24377500D03*
D11*
X153441250Y-20091250D03*
D12*
X153441250Y-27711250D03*
D21*
X56356250Y-95250000D03*
D11*
X204241250Y-16757500D03*
D12*
X204241250Y-24377500D03*
D19*
X25647500Y-90735000D03*
D20*
X25647500Y-105975000D03*
X49460000Y-105975000D03*
D19*
X49460000Y-90735000D03*
D11*
X263931250Y-16757500D03*
D12*
X263931250Y-24377500D03*
D11*
X162966250Y-17710000D03*
D12*
X162966250Y-25330000D03*
D11*
X124072500Y-17551250D03*
D12*
X124072500Y-25171250D03*
D11*
X50253750Y-16757500D03*
D12*
X50253750Y-24377500D03*
D19*
X294728750Y-33585000D03*
D20*
X270916250Y-48825000D03*
D19*
X270916250Y-33585000D03*
D20*
X294728750Y-48825000D03*
D15*
X245689524Y-27360476D03*
X248506250Y-26193750D03*
D16*
X246856250Y-26193750D03*
D15*
X245689524Y-25027024D03*
X248022976Y-25027024D03*
X246856250Y-27843750D03*
X246856250Y-24543750D03*
X248022976Y-27360476D03*
X245206250Y-26193750D03*
D11*
X47078750Y-17551250D03*
D12*
X47078750Y-25171250D03*
D11*
X63747500Y-18345000D03*
D12*
X63747500Y-25965000D03*
D22*
X311943750Y-20610000D03*
X318443750Y-20610000D03*
X311943750Y-25110000D03*
X318443750Y-25110000D03*
D11*
X197891250Y-18503750D03*
D12*
X197891250Y-26123750D03*
D11*
X43903750Y-18345000D03*
D12*
X43903750Y-25965000D03*
D11*
X178047500Y-18503750D03*
D12*
X178047500Y-26123750D03*
D11*
X260597500Y-17551250D03*
D12*
X260597500Y-25171250D03*
D11*
X251072500Y-20091250D03*
D12*
X251072500Y-27711250D03*
D11*
X211385000Y-20091250D03*
D12*
X211385000Y-27711250D03*
D11*
X217735000Y-18345000D03*
D12*
X217735000Y-25965000D03*
D11*
X143916250Y-17551250D03*
D12*
X143916250Y-25171250D03*
D11*
X40728750Y-19297500D03*
D12*
X40728750Y-26917500D03*
D15*
X322993750Y-73025000D03*
X325810476Y-71858274D03*
X325810476Y-74191726D03*
X323477024Y-74191726D03*
D16*
X324643750Y-73025000D03*
D15*
X326293750Y-73025000D03*
X324643750Y-74675000D03*
X324643750Y-71375000D03*
X323477024Y-71858274D03*
D13*
X305019564Y-33799806D03*
D19*
X97085000Y-109785000D03*
D20*
X197097500Y-125025000D03*
X97085000Y-125025000D03*
D19*
X197097500Y-109785000D03*
D11*
X95497500Y-20091250D03*
D12*
X95497500Y-27711250D03*
D17*
X310688112Y-70015297D03*
X313228112Y-70015297D03*
X315768112Y-70015297D03*
X318308112Y-70015297D03*
X320848112Y-70015297D03*
D11*
X191541250Y-20091250D03*
D12*
X191541250Y-27711250D03*
D11*
X105022500Y-17551250D03*
D12*
X105022500Y-25171250D03*
D11*
X70097500Y-16916250D03*
D12*
X70097500Y-24536250D03*
D21*
X277018750Y-65087500D03*
D11*
X66922500Y-17710000D03*
D12*
X66922500Y-25330000D03*
D21*
X253206250Y-103187500D03*
D11*
X147091250Y-16757500D03*
D12*
X147091250Y-24377500D03*
D11*
X243135000Y-16757500D03*
D12*
X243135000Y-24377500D03*
D11*
X254247500Y-19297500D03*
D12*
X254247500Y-26917500D03*
D11*
X84385000Y-18345000D03*
D12*
X84385000Y-25965000D03*
D11*
X174872500Y-19297500D03*
D12*
X174872500Y-26917500D03*
D11*
X98672500Y-19138750D03*
D12*
X98672500Y-26758750D03*
D11*
X17710000Y-19932500D03*
D12*
X17710000Y-27552500D03*
D11*
X78035000Y-20091250D03*
D12*
X78035000Y-27711250D03*
D11*
X30410000Y-16757500D03*
D12*
X30410000Y-24377500D03*
D23*
X187890000Y-97720000D03*
D20*
X182810000Y-97720000D03*
D23*
X177730000Y-97720000D03*
D24*
X175450000Y-95180000D03*
D25*
X179000000Y-95180000D03*
X185350000Y-92640000D03*
D24*
X188900000Y-92640000D03*
D20*
X235197500Y-40570000D03*
D23*
X230117500Y-40570000D03*
X240277500Y-40570000D03*
D24*
X227837500Y-38030000D03*
D25*
X231387500Y-38030000D03*
X237737500Y-35490000D03*
D24*
X241287500Y-35490000D03*
D23*
X297427500Y-97720000D03*
X287267500Y-97720000D03*
D20*
X292347500Y-97720000D03*
D24*
X284987500Y-95180000D03*
D25*
X288537500Y-95180000D03*
D24*
X298437500Y-92640000D03*
D25*
X294887500Y-92640000D03*
D23*
X235515000Y-78670000D03*
X225355000Y-78670000D03*
D20*
X230435000Y-78670000D03*
D25*
X226625000Y-76130000D03*
D24*
X223075000Y-76130000D03*
X236525000Y-73590000D03*
D25*
X232975000Y-73590000D03*
D23*
X68827500Y-40570000D03*
D20*
X63747500Y-40570000D03*
D23*
X58667500Y-40570000D03*
D24*
X56387500Y-38030000D03*
D25*
X59937500Y-38030000D03*
D24*
X69837500Y-35490000D03*
D25*
X66287500Y-35490000D03*
D20*
X197097500Y-40570000D03*
D23*
X202177500Y-40570000D03*
X192017500Y-40570000D03*
D25*
X193287500Y-38030000D03*
D24*
X189737500Y-38030000D03*
X203187500Y-35490000D03*
D25*
X199637500Y-35490000D03*
D20*
X218528750Y-116770000D03*
D23*
X223608750Y-116770000D03*
X213448750Y-116770000D03*
D25*
X214718750Y-114230000D03*
D24*
X211168750Y-114230000D03*
D25*
X221068750Y-111690000D03*
D24*
X224618750Y-111690000D03*
D20*
X97085000Y-78670000D03*
D23*
X102165000Y-78670000D03*
X92005000Y-78670000D03*
D24*
X89725000Y-76130000D03*
D25*
X93275000Y-76130000D03*
X99625000Y-73590000D03*
D24*
X103175000Y-73590000D03*
D23*
X220592500Y-59620000D03*
X230752500Y-59620000D03*
D20*
X225672500Y-59620000D03*
D24*
X218312500Y-57080000D03*
D25*
X221862500Y-57080000D03*
X228212500Y-54540000D03*
D24*
X231762500Y-54540000D03*
D23*
X68192500Y-59620000D03*
D20*
X73272500Y-59620000D03*
D23*
X78352500Y-59620000D03*
D25*
X69462500Y-57080000D03*
D24*
X65912500Y-57080000D03*
D25*
X75812500Y-54540000D03*
D24*
X79362500Y-54540000D03*
D26*
X303212500Y-73660000D03*
D27*
X301212500Y-73660000D03*
D23*
X153917500Y-40570000D03*
X164077500Y-40570000D03*
D20*
X158997500Y-40570000D03*
D24*
X151637500Y-38030000D03*
D25*
X155187500Y-38030000D03*
D24*
X165087500Y-35490000D03*
D25*
X161537500Y-35490000D03*
D23*
X216465000Y-78670000D03*
X206305000Y-78670000D03*
D20*
X211385000Y-78670000D03*
D24*
X204025000Y-76130000D03*
D25*
X207575000Y-76130000D03*
D24*
X217475000Y-73590000D03*
D25*
X213925000Y-73590000D03*
D23*
X268217500Y-116770000D03*
D20*
X273297500Y-116770000D03*
D23*
X278377500Y-116770000D03*
D24*
X265937500Y-114230000D03*
D25*
X269487500Y-114230000D03*
D24*
X279387500Y-111690000D03*
D25*
X275837500Y-111690000D03*
D23*
X215830000Y-97720000D03*
X225990000Y-97720000D03*
D20*
X220910000Y-97720000D03*
D25*
X217100000Y-95180000D03*
D24*
X213550000Y-95180000D03*
X227000000Y-92640000D03*
D25*
X223450000Y-92640000D03*
D20*
X37553750Y-97720000D03*
D23*
X32473750Y-97720000D03*
X42633750Y-97720000D03*
D24*
X30193750Y-95180000D03*
D25*
X33743750Y-95180000D03*
D24*
X43643750Y-92640000D03*
D25*
X40093750Y-92640000D03*
D20*
X51841250Y-116770000D03*
D23*
X56921250Y-116770000D03*
X46761250Y-116770000D03*
D25*
X48031250Y-114230000D03*
D24*
X44481250Y-114230000D03*
X57931250Y-111690000D03*
D25*
X54381250Y-111690000D03*
D23*
X106927500Y-40570000D03*
D20*
X101847500Y-40570000D03*
D23*
X96767500Y-40570000D03*
D24*
X94487500Y-38030000D03*
D25*
X98037500Y-38030000D03*
D24*
X107937500Y-35490000D03*
D25*
X104387500Y-35490000D03*
D20*
X92322500Y-59690000D03*
D23*
X87242500Y-59690000D03*
X97402500Y-59690000D03*
D24*
X84962500Y-57150000D03*
D25*
X88512500Y-57150000D03*
D24*
X98412500Y-54610000D03*
D25*
X94862500Y-54610000D03*
D23*
X63430000Y-97720000D03*
X73590000Y-97720000D03*
D20*
X68510000Y-97720000D03*
D25*
X64700000Y-95180000D03*
D24*
X61150000Y-95180000D03*
X74600000Y-92640000D03*
D25*
X71050000Y-92640000D03*
D23*
X49777500Y-40570000D03*
X39617500Y-40570000D03*
D20*
X44697500Y-40570000D03*
D24*
X37337500Y-38030000D03*
D25*
X40887500Y-38030000D03*
X47237500Y-35490000D03*
D24*
X50787500Y-35490000D03*
D23*
X83115000Y-78670000D03*
D20*
X78035000Y-78670000D03*
D23*
X72955000Y-78670000D03*
D25*
X74225000Y-76130000D03*
D24*
X70675000Y-76130000D03*
X84125000Y-73590000D03*
D25*
X80575000Y-73590000D03*
D23*
X92640000Y-97720000D03*
X82480000Y-97720000D03*
D20*
X87560000Y-97720000D03*
D24*
X80200000Y-95180000D03*
D25*
X83750000Y-95180000D03*
X90100000Y-92640000D03*
D24*
X93650000Y-92640000D03*
D23*
X237261250Y-116770000D03*
X247421250Y-116770000D03*
D20*
X242341250Y-116770000D03*
D25*
X238531250Y-114230000D03*
D24*
X234981250Y-114230000D03*
X248431250Y-111690000D03*
D25*
X244881250Y-111690000D03*
D23*
X49142500Y-59620000D03*
X59302500Y-59620000D03*
D20*
X54222500Y-59620000D03*
D24*
X46862500Y-57080000D03*
D25*
X50412500Y-57080000D03*
X56762500Y-54540000D03*
D24*
X60312500Y-54540000D03*
D23*
X173602500Y-59620000D03*
X163442500Y-59620000D03*
D20*
X168522500Y-59620000D03*
D25*
X164712500Y-57080000D03*
D24*
X161162500Y-57080000D03*
X174612500Y-54540000D03*
D25*
X171062500Y-54540000D03*
D20*
X192335000Y-78670000D03*
D23*
X187255000Y-78670000D03*
X197415000Y-78670000D03*
D25*
X188525000Y-76130000D03*
D24*
X184975000Y-76130000D03*
X198425000Y-73590000D03*
D25*
X194875000Y-73590000D03*
D23*
X140265000Y-78670000D03*
D20*
X135185000Y-78670000D03*
D23*
X130105000Y-78670000D03*
D24*
X127825000Y-76130000D03*
D25*
X131375000Y-76130000D03*
X137725000Y-73590000D03*
D24*
X141275000Y-73590000D03*
D23*
X259327500Y-40570000D03*
D20*
X254247500Y-40570000D03*
D23*
X249167500Y-40570000D03*
D25*
X250437500Y-38030000D03*
D24*
X246887500Y-38030000D03*
X260337500Y-35490000D03*
D25*
X256787500Y-35490000D03*
D20*
X58985000Y-78670000D03*
D23*
X53905000Y-78670000D03*
X64065000Y-78670000D03*
D25*
X55175000Y-76130000D03*
D24*
X51625000Y-76130000D03*
X65075000Y-73590000D03*
D25*
X61525000Y-73590000D03*
D20*
X249485000Y-78670000D03*
D23*
X254565000Y-78670000D03*
X244405000Y-78670000D03*
D24*
X242125000Y-76130000D03*
D25*
X245675000Y-76130000D03*
D24*
X255575000Y-73590000D03*
D25*
X252025000Y-73590000D03*
D23*
X168840000Y-97720000D03*
X158680000Y-97720000D03*
D20*
X163760000Y-97720000D03*
D24*
X156400000Y-95180000D03*
D25*
X159950000Y-95180000D03*
X166300000Y-92640000D03*
D24*
X169850000Y-92640000D03*
D23*
X245040000Y-97720000D03*
X234880000Y-97720000D03*
D20*
X239960000Y-97720000D03*
D25*
X236150000Y-95180000D03*
D24*
X232600000Y-95180000D03*
X246050000Y-92640000D03*
D25*
X242500000Y-92640000D03*
D20*
X244722500Y-59620000D03*
D23*
X249802500Y-59620000D03*
X239642500Y-59620000D03*
D24*
X237362500Y-57080000D03*
D25*
X240912500Y-57080000D03*
D24*
X250812500Y-54540000D03*
D25*
X247262500Y-54540000D03*
D23*
X285521250Y-78670000D03*
X275361250Y-78670000D03*
D20*
X280441250Y-78670000D03*
D25*
X276631250Y-76130000D03*
D24*
X273081250Y-76130000D03*
X286531250Y-73590000D03*
D25*
X282981250Y-73590000D03*
D23*
X268852500Y-59620000D03*
X258692500Y-59620000D03*
D20*
X263772500Y-59620000D03*
D24*
X256412500Y-57080000D03*
D25*
X259962500Y-57080000D03*
X266312500Y-54540000D03*
D24*
X269862500Y-54540000D03*
D23*
X120580000Y-97720000D03*
X130740000Y-97720000D03*
D20*
X125660000Y-97720000D03*
D25*
X121850000Y-95180000D03*
D24*
X118300000Y-95180000D03*
X131750000Y-92640000D03*
D25*
X128200000Y-92640000D03*
D23*
X172967500Y-40570000D03*
X183127500Y-40570000D03*
D20*
X178047500Y-40570000D03*
D25*
X174237500Y-38030000D03*
D24*
X170687500Y-38030000D03*
X184137500Y-35490000D03*
D25*
X180587500Y-35490000D03*
D23*
X287267500Y-116770000D03*
D20*
X292347500Y-116770000D03*
D23*
X297427500Y-116770000D03*
D25*
X288537500Y-114230000D03*
D24*
X284987500Y-114230000D03*
X298437500Y-111690000D03*
D25*
X294887500Y-111690000D03*
D23*
X27711250Y-78670000D03*
X37871250Y-78670000D03*
D20*
X32791250Y-78670000D03*
D25*
X28981250Y-76130000D03*
D24*
X25431250Y-76130000D03*
D25*
X35331250Y-73590000D03*
D24*
X38881250Y-73590000D03*
D23*
X22948750Y-116770000D03*
D20*
X28028750Y-116770000D03*
D23*
X33108750Y-116770000D03*
D25*
X24218750Y-114230000D03*
D24*
X20668750Y-114230000D03*
X34118750Y-111690000D03*
D25*
X30568750Y-111690000D03*
D20*
X173285000Y-78670000D03*
D23*
X178365000Y-78670000D03*
X168205000Y-78670000D03*
D24*
X165925000Y-76130000D03*
D25*
X169475000Y-76130000D03*
X175825000Y-73590000D03*
D24*
X179375000Y-73590000D03*
D23*
X149790000Y-97720000D03*
X139630000Y-97720000D03*
D20*
X144710000Y-97720000D03*
D24*
X137350000Y-95180000D03*
D25*
X140900000Y-95180000D03*
X147250000Y-92640000D03*
D24*
X150800000Y-92640000D03*
D23*
X111055000Y-78670000D03*
X121215000Y-78670000D03*
D20*
X116135000Y-78670000D03*
D24*
X108775000Y-76130000D03*
D25*
X112325000Y-76130000D03*
D24*
X122225000Y-73590000D03*
D25*
X118675000Y-73590000D03*
D23*
X101530000Y-97720000D03*
X111690000Y-97720000D03*
D20*
X106610000Y-97720000D03*
D25*
X102800000Y-95180000D03*
D24*
X99250000Y-95180000D03*
X112700000Y-92640000D03*
D25*
X109150000Y-92640000D03*
D20*
X154235000Y-78670000D03*
D23*
X149155000Y-78670000D03*
X159315000Y-78670000D03*
D24*
X146875000Y-76130000D03*
D25*
X150425000Y-76130000D03*
X156775000Y-73590000D03*
D24*
X160325000Y-73590000D03*
D17*
X323388112Y-38750717D03*
X323388112Y-41290717D03*
X323388112Y-43830717D03*
X323388112Y-46370717D03*
X323388112Y-48910717D03*
X323388112Y-51450717D03*
X323388112Y-53990717D03*
X323388112Y-56530717D03*
X323388112Y-59070717D03*
X323388112Y-61610717D03*
X323388112Y-64150717D03*
X323388112Y-66690717D03*
X308148112Y-66690717D03*
X308148112Y-64150717D03*
X308148112Y-61610717D03*
X308148112Y-59070717D03*
X308148112Y-56530717D03*
X308148112Y-53990717D03*
X308148112Y-51450717D03*
X308148112Y-48910717D03*
X308148112Y-46370717D03*
X308148112Y-43830717D03*
X308148112Y-41290717D03*
X308148112Y-38750717D03*
X320848112Y-61610717D03*
X318308112Y-61610717D03*
X315768112Y-61610717D03*
D23*
X142011250Y-116770000D03*
D20*
X147091250Y-116770000D03*
D23*
X152171250Y-116770000D03*
D25*
X143281250Y-114230000D03*
D24*
X139731250Y-114230000D03*
X153181250Y-111690000D03*
D25*
X149631250Y-111690000D03*
D23*
X154552500Y-59620000D03*
D20*
X149472500Y-59620000D03*
D23*
X144392500Y-59620000D03*
D24*
X142112500Y-57080000D03*
D25*
X145662500Y-57080000D03*
D24*
X155562500Y-54540000D03*
D25*
X152012500Y-54540000D03*
D20*
X187572500Y-59620000D03*
D23*
X192652500Y-59620000D03*
X182492500Y-59620000D03*
D24*
X180212500Y-57080000D03*
D25*
X183762500Y-57080000D03*
D24*
X193662500Y-54540000D03*
D25*
X190112500Y-54540000D03*
D23*
X80733750Y-116770000D03*
X70573750Y-116770000D03*
D20*
X75653750Y-116770000D03*
D24*
X68293750Y-114230000D03*
D25*
X71843750Y-114230000D03*
X78193750Y-111690000D03*
D24*
X81743750Y-111690000D03*
D23*
X106292500Y-59620000D03*
X116452500Y-59620000D03*
D20*
X111372500Y-59620000D03*
D25*
X107562500Y-57080000D03*
D24*
X104012500Y-57080000D03*
D25*
X113912500Y-54540000D03*
D24*
X117462500Y-54540000D03*
D23*
X277742500Y-40570000D03*
D20*
X282822500Y-40570000D03*
D23*
X287902500Y-40570000D03*
D24*
X275462500Y-38030000D03*
D25*
X279012500Y-38030000D03*
X285362500Y-35490000D03*
D24*
X288912500Y-35490000D03*
D23*
X25330000Y-59620000D03*
X35490000Y-59620000D03*
D20*
X30410000Y-59620000D03*
D24*
X23050000Y-57080000D03*
D25*
X26600000Y-57080000D03*
D24*
X36500000Y-54540000D03*
D25*
X32950000Y-54540000D03*
D20*
X120897500Y-40570000D03*
D23*
X115817500Y-40570000D03*
X125977500Y-40570000D03*
D24*
X113537500Y-38030000D03*
D25*
X117087500Y-38030000D03*
D24*
X126987500Y-35490000D03*
D25*
X123437500Y-35490000D03*
D23*
X211067500Y-40570000D03*
D20*
X216147500Y-40570000D03*
D23*
X221227500Y-40570000D03*
D24*
X208787500Y-38030000D03*
D25*
X212337500Y-38030000D03*
X218687500Y-35490000D03*
D24*
X222237500Y-35490000D03*
D23*
X316477500Y-116770000D03*
X306317500Y-116770000D03*
D20*
X311397500Y-116770000D03*
D24*
X304037500Y-114230000D03*
D25*
X307587500Y-114230000D03*
X313937500Y-111690000D03*
D24*
X317487500Y-111690000D03*
D20*
X266153750Y-97720000D03*
D23*
X261073750Y-97720000D03*
X271233750Y-97720000D03*
D24*
X258793750Y-95180000D03*
D25*
X262343750Y-95180000D03*
X268693750Y-92640000D03*
D24*
X272243750Y-92640000D03*
D23*
X145027500Y-40570000D03*
D20*
X139947500Y-40570000D03*
D23*
X134867500Y-40570000D03*
D25*
X136137500Y-38030000D03*
D24*
X132587500Y-38030000D03*
X146037500Y-35490000D03*
D25*
X142487500Y-35490000D03*
D23*
X211702500Y-59620000D03*
X201542500Y-59620000D03*
D20*
X206622500Y-59620000D03*
D24*
X199262500Y-57080000D03*
D25*
X202812500Y-57080000D03*
X209162500Y-54540000D03*
D24*
X212712500Y-54540000D03*
D20*
X25647500Y-40570000D03*
D23*
X30727500Y-40570000D03*
X20567500Y-40570000D03*
D25*
X21837500Y-38030000D03*
D24*
X18287500Y-38030000D03*
X31737500Y-35490000D03*
D25*
X28187500Y-35490000D03*
D20*
X201860000Y-97720000D03*
D23*
X196780000Y-97720000D03*
X206940000Y-97720000D03*
D25*
X198050000Y-95180000D03*
D24*
X194500000Y-95180000D03*
D25*
X204400000Y-92640000D03*
D24*
X207950000Y-92640000D03*
D23*
X135502500Y-59620000D03*
X125342500Y-59620000D03*
D20*
X130422500Y-59620000D03*
D25*
X126612500Y-57080000D03*
D24*
X123062500Y-57080000D03*
X136512500Y-54540000D03*
D25*
X132962500Y-54540000D03*
D23*
X77717500Y-40570000D03*
X87877500Y-40570000D03*
D20*
X82797500Y-40570000D03*
D25*
X78987500Y-38030000D03*
D24*
X75437500Y-38030000D03*
X88887500Y-35490000D03*
D25*
X85337500Y-35490000D03*
D23*
X282505000Y-59620000D03*
D20*
X287585000Y-59620000D03*
D23*
X292665000Y-59620000D03*
D24*
X280225000Y-57080000D03*
D25*
X283775000Y-57080000D03*
X290125000Y-54540000D03*
D24*
X293675000Y-54540000D03*
M02*
